<svg width="212" height="212" viewBox="0 0 212 212" fill="none" xmlns="http://www.w3.org/2000/svg">
    <g opacity="0.16" filter="url(#filter0_f_519_1552)">
        <circle cx="106" cy="106" r="46" fill="#2876F8"/>
        <circle cx="106" cy="106" r="46" fill="url(#paint0_radial_519_1552)"/>
    </g>
    <path d="M78.927 116.394C79.0816 116.797 79.2434 117.193 79.4126 117.584C79.4677 117.69 79.5275 117.794 79.5921 117.897L81.0475 116.804L80.6368 115.732C80.6345 115.726 80.6322 115.72 80.6299 115.714C77.9279 108.659 78.0975 101.722 81.1388 94.9063C84.1801 88.0901 89.2286 83.331 96.2845 80.6289C103.34 77.9269 110.276 78.0965 117.093 81.1378C123.909 84.1791 128.668 89.2277 131.37 96.2835L131.787 97.373L133.6 97.2141C133.58 97.0964 133.556 96.9805 133.526 96.8663C133.388 96.4529 133.24 96.04 133.082 95.6279C131.652 91.8924 129.592 88.6506 126.904 85.9025C124.215 83.1544 121.185 81.0281 117.813 79.5234C114.441 78.0188 110.834 77.1839 106.993 77.0188C103.152 76.8537 99.3643 77.4864 95.6289 78.9168C91.8934 80.3473 88.6516 82.4068 85.9035 85.0951C83.1554 87.7835 81.029 90.8138 79.5244 94.186C78.0198 97.5582 77.1849 101.165 77.0198 105.006C76.8546 108.846 77.4873 112.635 78.9178 116.37C78.9209 116.378 78.924 116.386 78.927 116.394Z" fill="white"/>
    <path d="M133.6 97.2141L131.787 97.373L131.37 96.2835C132.78 99.9658 133.408 103.615 133.254 107.232C133.818 107.697 134.354 108.195 134.859 108.723C134.915 108.152 134.955 107.575 134.98 106.992C135.127 103.575 134.643 100.2 133.526 96.8663C133.556 96.9805 133.58 97.0964 133.6 97.2141Z" fill="white"/>
    <path d="M105.007 134.979C106.313 135.035 107.613 134.999 108.908 134.871C108.361 134.356 107.846 133.807 107.365 133.229C103.169 133.483 99.0164 132.694 94.9073 130.86C88.0969 127.821 83.3401 122.779 80.6368 115.732L81.0475 116.804L79.5921 117.897C79.5275 117.794 79.4677 117.69 79.4126 117.584C80.8089 120.813 82.7034 123.649 85.0961 126.095C87.7844 128.843 90.8147 130.97 94.187 132.474C97.5592 133.979 101.166 134.814 105.007 134.979Z" fill="white"/>
    <path d="M98.6148 119.803C95.1951 118.019 92.78 115.285 91.3694 111.602C89.7998 107.503 89.8874 103.499 91.6321 99.5883C93.3769 95.6779 96.2985 92.938 100.397 91.3684C104.496 89.7988 108.501 89.8865 112.411 91.6312C116.321 93.3759 119.061 96.2976 120.631 100.396C120.968 101.277 121.226 102.155 121.406 103.032C120.779 103.036 120.16 103.072 119.55 103.138C119.396 102.443 119.185 101.748 118.919 101.052C118.562 100.12 118.134 99.2575 117.634 98.4633C116.214 96.2052 114.217 94.5018 111.643 93.3532C108.163 91.8005 104.633 91.7096 101.053 93.0805C100.997 93.1019 100.941 93.1236 100.886 93.1455C97.3931 94.5274 94.8825 96.9311 93.3541 100.357C92.2054 102.931 91.8568 105.533 92.3083 108.162C92.4671 109.087 92.7248 110.015 93.0815 110.946C94.2735 114.059 96.2894 116.41 99.129 118C100.457 118.743 101.818 119.259 103.213 119.548C103.151 120.152 103.118 120.765 103.115 121.385C101.58 121.095 100.08 120.567 98.6148 119.803Z" fill="white"/>
    <path d="M111.333 130.332L112.583 131.666L121.5 122.749L130.333 131.666L131.666 130.332L122.833 121.499L131.666 112.582L130.333 111.249L121.5 120.166L112.583 111.249L111.333 112.582L120.166 121.499L111.333 130.332Z" fill="white"/>
    <defs>
        <filter id="filter0_f_519_1552" x="0" y="0" width="212" height="212" filterUnits="userSpaceOnUse" color-interpolation-filters="sRGB">
            <feFlood flood-opacity="0" result="BackgroundImageFix"/>
            <feBlend mode="normal" in="SourceGraphic" in2="BackgroundImageFix" result="shape"/>
            <feGaussianBlur stdDeviation="30" result="effect1_foregroundBlur_519_1552"/>
        </filter>
        <radialGradient id="paint0_radial_519_1552" cx="0" cy="0" r="1" gradientUnits="userSpaceOnUse" gradientTransform="translate(124.86 84.84) rotate(105.686) scale(69.7579 109.218)">
            <stop stop-color="#01CDAE"/>
            <stop offset="1" stop-color="#01CDAE" stop-opacity="0"/>
        </radialGradient>
    </defs>
</svg>
