<svg width="212" height="212" viewBox="0 0 212 212" fill="none" xmlns="http://www.w3.org/2000/svg">
    <g opacity="0.16" filter="url(#filter0_f_519_1587)">
        <circle cx="106" cy="106" r="46" fill="#2876F8"/>
        <circle cx="106" cy="106" r="46" fill="url(#paint0_radial_519_1587)"/>
    </g>
    <path d="M115.084 128.833V126.999H121.251C122.862 126.999 124.223 126.444 125.334 125.333C126.445 124.222 127.001 122.86 127.001 121.249V113.416C127.001 111.638 127.542 110.069 128.626 108.708C129.709 107.347 131.112 106.472 132.834 106.083V105.916C131.112 105.527 129.709 104.652 128.626 103.291C127.542 101.93 127.001 100.36 127.001 98.5827V90.7493C127.001 89.1382 126.445 87.7771 125.334 86.666C124.223 85.5549 122.862 84.9993 121.251 84.9993H115.084V83.166H121.251C123.362 83.166 125.153 83.9021 126.626 85.3743C128.098 86.8466 128.834 88.6382 128.834 90.7493V98.5827C128.834 100.249 129.431 101.652 130.626 102.791C131.82 103.93 133.251 104.499 134.917 104.499H134.667V107.499H134.917C133.251 107.499 131.82 108.069 130.626 109.208C129.431 110.347 128.834 111.749 128.834 113.416V121.249C128.834 123.36 128.098 125.152 126.626 126.624C125.153 128.097 123.362 128.833 121.251 128.833H115.084ZM90.7507 128.833C88.6395 128.833 86.8479 128.097 85.3757 126.624C83.9034 125.152 83.1673 123.36 83.1673 121.249V113.416C83.1673 111.749 82.5701 110.347 81.3757 109.208C80.1812 108.069 78.7507 107.499 77.084 107.499H77.334V104.499H77.084C78.7507 104.499 80.1812 103.93 81.3757 102.791C82.5701 101.652 83.1673 100.249 83.1673 98.5827V90.7493C83.1673 88.6382 83.9034 86.8466 85.3757 85.3743C86.8479 83.9021 88.6395 83.166 90.7507 83.166H96.9173V84.9993H90.7507C89.1395 84.9993 87.7784 85.5549 86.6673 86.666C85.5562 87.7771 85.0006 89.1382 85.0006 90.7493V98.5827C85.0006 100.36 84.459 101.93 83.3757 103.291C82.2923 104.652 80.8895 105.527 79.1673 105.916V106.083C80.8895 106.472 82.2923 107.347 83.3757 108.708C84.459 110.069 85.0006 111.638 85.0006 113.416V121.249C85.0006 122.86 85.5562 124.222 86.6673 125.333C87.7784 126.444 89.1395 126.999 90.7507 126.999H96.9173V128.833H90.7507Z" fill="white"/>
    <defs>
        <filter id="filter0_f_519_1587" x="0" y="0" width="212" height="212" filterUnits="userSpaceOnUse" color-interpolation-filters="sRGB">
            <feFlood flood-opacity="0" result="BackgroundImageFix"/>
            <feBlend mode="normal" in="SourceGraphic" in2="BackgroundImageFix" result="shape"/>
            <feGaussianBlur stdDeviation="30" result="effect1_foregroundBlur_519_1587"/>
        </filter>
        <radialGradient id="paint0_radial_519_1587" cx="0" cy="0" r="1" gradientUnits="userSpaceOnUse" gradientTransform="translate(124.86 84.84) rotate(105.686) scale(69.7579 109.218)">
            <stop stop-color="#01CDAE"/>
            <stop offset="1" stop-color="#01CDAE" stop-opacity="0"/>
        </radialGradient>
    </defs>
</svg>
