<svg width="233" height="152" viewBox="0 0 233 152" fill="none" xmlns="http://www.w3.org/2000/svg">
    <mask id="mask0_651_3801" style="mask-type:alpha" maskUnits="userSpaceOnUse" x="2" y="13" width="228" height="125">
        <path d="M23.8438 61.7812C34.9062 61.7812 42.625 55.4062 43.6875 45.3438H34.5C33.5 50.6875 29.4688 53.9688 23.875 53.9688C16.6562 53.9688 12.125 48.0312 12.125 38.4062C12.125 28.9062 16.7188 22.9375 23.8438 22.9375C29.3438 22.9375 33.5938 26.5625 34.4688 32.0938H43.6562C42.9375 22 34.6875 15.125 23.8438 15.125C10.7812 15.125 2.5 23.9062 2.5 38.4375C2.5 53 10.7188 61.7812 23.8438 61.7812ZM64.5625 61.5938C75 61.5938 81.5312 54.9375 81.5312 43.7812C81.5312 32.75 74.9375 26 64.5625 26C54.2188 26 47.5938 32.7812 47.5938 43.7812C47.5938 54.9062 54.125 61.5938 64.5625 61.5938ZM64.5625 54.5625C59.75 54.5625 56.8438 50.625 56.8438 43.7812C56.8438 37.0312 59.75 33 64.5625 33C69.3438 33 72.25 37 72.25 43.7812C72.25 50.625 69.375 54.5625 64.5625 54.5625ZM86.4375 61H95.5625V40.3125C95.5625 36.4062 98.0625 33.6562 101.656 33.6562C105.188 33.6562 107.312 35.875 107.312 39.5625V61H116.125V40.1875C116.125 36.2812 118.531 33.6562 122.125 33.6562C125.844 33.6562 127.875 35.875 127.875 39.9062V61H137V37.625C137 30.6875 132.469 26.0938 125.719 26.0938C120.719 26.0938 116.594 28.8125 115.031 33.125H114.844C113.688 28.625 110.188 26.0938 105.25 26.0938C100.656 26.0938 96.9062 28.6875 95.4375 32.8438H95.25V26.5938H86.4375V61ZM143.219 61H152.344V26.5938H143.219V61ZM147.781 22.8438C150.5 22.8438 152.719 20.7812 152.719 18.0625C152.719 15.3438 150.5 13.3125 147.781 13.3125C145.094 13.3125 142.875 15.3438 142.875 18.0625C142.875 20.7812 145.094 22.8438 147.781 22.8438ZM158.688 61H167.812V41.375C167.812 36.8125 170.75 33.6875 175.125 33.6875C179.438 33.6875 181.875 36.2812 181.875 40.8438V61H191V38.9375C191 30.9062 186.375 26.0938 178.75 26.0938C173.469 26.0938 169.656 28.4062 167.688 32.75H167.5V26.5938H158.688V61ZM212.844 53.7188C208.094 53.7188 205.125 49.9688 205.125 43.7188C205.125 37.5 208.125 33.5625 212.844 33.5625C217.594 33.5625 220.656 37.5625 220.656 43.75C220.656 49.9062 217.594 53.7188 212.844 53.7188ZM212.75 73.5938C223.094 73.5938 229.75 68.4062 229.75 60.2188V26.5938H220.75V32.4688H220.594C218.781 28.6562 214.875 26.1875 209.938 26.1875C201.219 26.1875 195.781 32.9062 195.781 43.6875C195.781 54.2812 201.406 60.7812 209.781 60.7812C214.75 60.7812 218.781 58.4375 220.438 54.75H220.625V60.9062C220.625 64.7812 217.594 67.1562 212.969 67.1562C209.375 67.1562 206.5 65.7188 205.906 63.4375H196.906C197.375 69.625 203.719 73.5938 212.75 73.5938ZM41.5938 124.156C41.875 132.625 48.7812 137.781 59.625 137.781C70.8125 137.781 77.9062 132.25 77.9062 123.5C77.9062 116.625 73.9688 112.75 64.9375 110.812L59.4688 109.656C54.2812 108.469 52.0938 106.906 52.0938 104.125C52.0938 100.781 55.2188 98.5625 59.875 98.5625C64.5938 98.5625 67.9375 100.875 68.25 104.688H77.0938C76.9375 96.5312 70.3438 91.125 59.8438 91.125C49.7812 91.125 42.5938 96.625 42.5938 104.938C42.5938 111.531 46.6875 115.75 55 117.531L60.875 118.812C66.3125 120.031 68.4688 121.656 68.4688 124.594C68.4688 127.906 65.0312 130.312 60 130.312C55 130.312 51.125 127.875 50.6875 124.156H41.5938ZM98.75 137.594C109.188 137.594 115.719 130.938 115.719 119.781C115.719 108.75 109.125 102 98.75 102C88.4062 102 81.7812 108.781 81.7812 119.781C81.7812 130.906 88.3125 137.594 98.75 137.594ZM98.75 130.562C93.9375 130.562 91.0312 126.625 91.0312 119.781C91.0312 113.031 93.9375 109 98.75 109C103.531 109 106.438 113 106.438 119.781C106.438 126.625 103.562 130.562 98.75 130.562ZM136.312 137.594C146.75 137.594 153.281 130.938 153.281 119.781C153.281 108.75 146.688 102 136.312 102C125.969 102 119.344 108.781 119.344 119.781C119.344 130.906 125.875 137.594 136.312 137.594ZM136.312 130.562C131.5 130.562 128.594 126.625 128.594 119.781C128.594 113.031 131.5 109 136.312 109C141.094 109 144 113 144 119.781C144 126.625 141.125 130.562 136.312 130.562ZM158.188 137H167.312V117.375C167.312 112.812 170.25 109.688 174.625 109.688C178.938 109.688 181.375 112.281 181.375 116.844V137H190.5V114.938C190.5 106.906 185.875 102.094 178.25 102.094C172.969 102.094 169.156 104.406 167.188 108.75H167V102.594H158.188V137Z" fill="#151515"/>
    </mask>
    <g mask="url(#mask0_651_3801)">
        <g filter="url(#filter0_f_651_3801)">
            <path fill-rule="evenodd" clip-rule="evenodd" d="M17.8781 181.464C-47.7675 205.868 -123.241 248.972 -173.943 175.671C-223.37 104.212 -204.794 -23.3213 -198.597 -131.501C-193.53 -219.962 -182.876 -308.312 -142.834 -367.414C-100.633 -429.702 -44.2678 -452.872 11.892 -442.18C77.1043 -429.765 144.926 -397.826 180.052 -305.941C219.154 -203.655 230.842 -67.7023 195.571 38.3021C162.119 138.842 85.4946 156.327 17.8781 181.464Z" fill="#00CDAE"/>
        </g>
        <g filter="url(#filter1_f_651_3801)">
            <path fill-rule="evenodd" clip-rule="evenodd" d="M163.884 71.1245C99.8167 28.7909 8.88654 25.5968 -8.80332 -84.8032C-26.5239 -195.395 50.0466 -274.975 94.3601 -362.768C134.254 -441.803 166.447 -547.736 228.503 -554.947C292.452 -562.377 347.976 -483.99 384.232 -396.448C416.26 -319.114 412.15 -223.89 404.047 -131.083C395.066 -28.2213 393.018 96.6296 337.069 143.736C281.221 190.757 222.075 109.574 163.884 71.1245Z" fill="#2876F8"/>
        </g>
    </g>
    <defs>
        <filter id="filter0_f_651_3801" x="-401.473" y="-638.971" width="812.372" height="1049.69" filterUnits="userSpaceOnUse" color-interpolation-filters="sRGB">
            <feFlood flood-opacity="0" result="BackgroundImageFix"/>
            <feBlend mode="normal" in="SourceGraphic" in2="BackgroundImageFix" result="shape"/>
            <feGaussianBlur stdDeviation="97.1396" result="effect1_foregroundBlur_651_3801"/>
        </filter>
        <filter id="filter1_f_651_3801" x="-205.697" y="-749.715" width="809.775" height="1101.98" filterUnits="userSpaceOnUse" color-interpolation-filters="sRGB">
            <feFlood flood-opacity="0" result="BackgroundImageFix"/>
            <feBlend mode="normal" in="SourceGraphic" in2="BackgroundImageFix" result="shape"/>
            <feGaussianBlur stdDeviation="97.1396" result="effect1_foregroundBlur_651_3801"/>
        </filter>
    </defs>
</svg>
