<svg width="106" height="116" viewBox="0 0 106 116" fill="none" xmlns="http://www.w3.org/2000/svg">
    <g filter="url(#filter0_d_548_9272)">
        <rect x="40" y="17.5569" width="48" height="48" rx="12" fill="#2C2C2C" shape-rendering="crispEdges"/>
        <path d="M59.0502 37.6956C58.8852 37.5306 58.8027 37.3402 58.8027 37.1245C58.8027 36.9087 58.8852 36.7184 59.0502 36.5534C59.2152 36.3884 59.4056 36.3059 59.6213 36.3059C59.8371 36.3059 60.0275 36.3884 60.1925 36.5534L68.9497 45.3106C69.1147 45.4756 69.1972 45.666 69.1972 45.8817C69.1972 46.0975 69.1147 46.2879 68.9497 46.4529C68.7847 46.6179 68.5943 46.7003 68.3786 46.7003C68.1628 46.7003 67.9725 46.6179 67.8075 46.4529L59.0502 37.6956Z" fill="white"/>
        <path d="M60.1925 46.4528C60.0275 46.6178 59.8371 46.7003 59.6214 46.7003C59.4056 46.7003 59.2152 46.6178 59.0503 46.4528C58.8853 46.2878 58.8028 46.0975 58.8028 45.8817C58.8028 45.666 58.8853 45.4756 59.0503 45.3106L67.8075 36.5533C67.9725 36.3884 68.1629 36.3059 68.3786 36.3059C68.5944 36.3059 68.7848 36.3884 68.9497 36.5533C69.1147 36.7183 69.1972 36.9087 69.1972 37.1245C69.1972 37.3402 69.1147 37.5306 68.9497 37.6956L60.1925 46.4528Z" fill="white"/>
        <rect x="40.5" y="18.0569" width="47" height="47" rx="11.5" stroke="#383838" shape-rendering="crispEdges"/>
    </g>
    <defs>
        <filter id="filter0_d_548_9272" x="0" y="-12.4431" width="128" height="128" filterUnits="userSpaceOnUse" color-interpolation-filters="sRGB">
            <feFlood flood-opacity="0" result="BackgroundImageFix"/>
            <feColorMatrix in="SourceAlpha" type="matrix" values="0 0 0 0 0 0 0 0 0 0 0 0 0 0 0 0 0 0 127 0" result="hardAlpha"/>
            <feOffset dy="10"/>
            <feGaussianBlur stdDeviation="20"/>
            <feComposite in2="hardAlpha" operator="out"/>
            <feColorMatrix type="matrix" values="0 0 0 0 0 0 0 0 0 0 0 0 0 0 0 0 0 0 0.05 0"/>
            <feBlend mode="normal" in2="BackgroundImageFix" result="effect1_dropShadow_548_9272"/>
            <feBlend mode="normal" in="SourceGraphic" in2="effect1_dropShadow_548_9272" result="shape"/>
        </filter>
    </defs>
</svg>
