<svg width="212" height="212" viewBox="0 0 212 212" fill="none" xmlns="http://www.w3.org/2000/svg">
    <g opacity="0.16" filter="url(#filter0_f_519_1613)">
        <circle cx="106" cy="106" r="46" fill="#2876F8"/>
    </g>
    <path d="M106 135C102 135 98.2361 134.236 94.7083 132.708C91.1806 131.181 88.1111 129.111 85.5 126.5C82.8889 123.889 80.8194 120.819 79.2917 117.292C77.7639 113.764 77 110 77 106C77 102 77.7639 98.2361 79.2917 94.7083C80.8194 91.1806 82.8889 88.1111 85.5 85.5C88.1111 82.8889 91.1806 80.8194 94.7083 79.2917C98.2361 77.7639 102 77 106 77C110 77 113.764 77.7639 117.292 79.2917C120.819 80.8194 123.889 82.8889 126.5 85.5C129.111 88.1111 131.181 91.1806 132.708 94.7083C134.236 98.2361 135 102 135 106C135 110 134.236 113.764 132.708 117.292C131.181 120.819 129.111 123.889 126.5 126.5C123.889 129.111 120.819 131.181 117.292 132.708C113.764 134.236 110 135 106 135ZM106 133.167C109.611 133.167 113 132.514 116.167 131.208C119.333 129.903 122.139 128.111 124.583 125.833L116.417 117.75C115.028 118.972 113.444 119.931 111.667 120.625C109.889 121.319 108 121.667 106 121.667C101.667 121.667 97.9722 120.139 94.9167 117.083C91.8611 114.028 90.3333 110.333 90.3333 106C90.3333 101.667 91.8611 97.9722 94.9167 94.9167C97.9722 91.8611 101.667 90.3333 106 90.3333C110.333 90.3333 114.028 91.8611 117.083 94.9167C120.139 97.9722 121.667 101.667 121.667 106C121.667 108 121.319 109.889 120.625 111.667C119.931 113.444 119 115.028 117.833 116.417L125.917 124.5C128.194 122.056 129.972 119.264 131.25 116.125C132.528 112.986 133.167 109.611 133.167 106C133.167 98.4444 130.528 92.0278 125.25 86.75C119.972 81.4722 113.556 78.8333 106 78.8333C98.4444 78.8333 92.0278 81.4722 86.75 86.75C81.4722 92.0278 78.8333 98.4444 78.8333 106C78.8333 113.556 81.4722 119.972 86.75 125.25C92.0278 130.528 98.4444 133.167 106 133.167ZM106 119.833C107.778 119.833 109.444 119.542 111 118.958C112.556 118.375 113.944 117.556 115.167 116.5L106.833 108.167C106.722 108.222 106.583 108.264 106.417 108.292C106.25 108.319 106.111 108.333 106 108.333C105.389 108.333 104.847 108.097 104.375 107.625C103.903 107.153 103.667 106.611 103.667 106C103.667 105.389 103.903 104.847 104.375 104.375C104.847 103.903 105.389 103.667 106 103.667C106.611 103.667 107.153 103.903 107.625 104.375C108.097 104.847 108.333 105.389 108.333 106C108.333 106.111 108.319 106.25 108.292 106.417C108.264 106.583 108.222 106.722 108.167 106.833L116.5 115.167C117.556 113.889 118.375 112.472 118.958 110.917C119.542 109.361 119.833 107.722 119.833 106C119.833 102.167 118.486 98.9028 115.792 96.2083C113.097 93.5139 109.833 92.1667 106 92.1667C102.167 92.1667 98.9028 93.5139 96.2083 96.2083C93.5139 98.9028 92.1667 102.167 92.1667 106C92.1667 109.833 93.5139 113.097 96.2083 115.792C98.9028 118.486 102.167 119.833 106 119.833Z" fill="#2876F8"/>
    <defs>
        <filter id="filter0_f_519_1613" x="0" y="0" width="212" height="212" filterUnits="userSpaceOnUse" color-interpolation-filters="sRGB">
            <feFlood flood-opacity="0" result="BackgroundImageFix"/>
            <feBlend mode="normal" in="SourceGraphic" in2="BackgroundImageFix" result="shape"/>
            <feGaussianBlur stdDeviation="30" result="effect1_foregroundBlur_519_1613"/>
        </filter>
    </defs>
</svg>
