<svg width="80" height="80" viewBox="0 0 80 80" fill="none" xmlns="http://www.w3.org/2000/svg">
<path d="M12.927 50.3941C13.0816 50.7966 13.2434 51.1934 13.4126 51.5845C13.4677 51.6904 13.5275 51.7944 13.5921 51.8967L15.0475 50.8039L14.6368 49.7324C14.6345 49.7264 14.6322 49.7204 14.6299 49.7144C11.9279 42.6585 12.0975 35.7225 15.1388 28.9063C18.1801 22.0901 23.2286 17.331 30.2845 14.6289C37.3404 11.9269 44.2764 12.0965 51.0926 15.1378C57.9088 18.1791 62.6679 23.2277 65.37 30.2835L65.7872 31.373L67.6003 31.2141C67.5803 31.0964 67.5557 30.9805 67.5264 30.8663C67.388 30.4529 67.2399 30.04 67.0821 29.6279C65.6516 25.8924 63.5921 22.6506 60.9038 19.9025C58.2154 17.1544 55.1851 15.0281 51.8129 13.5234C48.4407 12.0188 44.8342 11.1839 40.9933 11.0188C37.1525 10.8537 33.3643 11.4864 29.6289 12.9168C25.8934 14.3473 22.6516 16.4068 19.9035 19.0951C17.1554 21.7835 15.029 24.8138 13.5244 28.186C12.0198 31.5582 11.1849 35.1647 11.0198 39.0056C10.8546 42.8464 11.4873 46.6346 12.9178 50.37C12.9209 50.378 12.924 50.3861 12.927 50.3941Z" fill="#151515"/>
<path d="M67.6003 31.2141L65.7872 31.373L65.37 30.2835C66.7801 33.9658 67.4082 37.6155 67.2542 41.2325C67.8183 41.6975 68.3543 42.1954 68.8592 42.7233C68.915 42.1517 68.9555 41.5748 68.9805 40.9924C69.1274 37.5753 68.6425 34.1999 67.5264 30.8663C67.5557 30.9805 67.5803 31.0964 67.6003 31.2141Z" fill="#151515"/>
<path d="M39.0066 68.9791C40.3131 69.0353 41.6135 68.9992 42.9078 68.8707C42.3611 68.3556 41.8459 67.8075 41.3654 67.2295C37.1691 67.4834 33.0164 66.6936 28.9073 64.8601C22.0969 61.8214 17.3401 56.7789 14.6368 49.7324L15.0475 50.8039L13.5921 51.8967C13.5275 51.7944 13.4677 51.6904 13.4126 51.5845C14.8089 54.8125 16.7034 57.6495 19.0961 60.0954C21.7844 62.8435 24.8147 64.9698 28.187 66.4745C31.5592 67.9791 35.1657 68.814 39.0066 68.9791Z" fill="#151515"/>
<path d="M32.6148 53.803C29.1951 52.019 26.78 49.2853 25.3694 45.6017C23.7998 41.5031 23.8874 37.4986 25.6321 33.5883C27.3769 29.6779 30.2985 26.938 34.3972 25.3684C38.4958 23.7988 42.5007 23.8865 46.411 25.6312C50.3214 27.3759 53.0613 30.2976 54.6309 34.3962C54.9681 35.2768 55.2263 36.1553 55.4056 37.0317C54.7792 37.0363 54.1603 37.072 53.5502 37.1376C53.3958 36.4432 53.1854 35.7479 52.9188 35.0519C52.5621 34.1204 52.134 33.2575 51.6345 32.4633C50.2143 30.2052 48.2171 28.5018 45.6427 27.3532C42.1629 25.8005 38.6326 25.7096 35.0528 27.0805C34.9969 27.1019 34.9412 27.1236 34.8858 27.1455C31.3931 28.5274 28.8825 30.9311 27.3541 34.3566C26.2054 36.9311 25.8568 39.5329 26.3083 42.1621C26.4671 43.0867 26.7248 44.0147 27.0815 44.9461C28.2735 48.059 30.2894 50.4102 33.129 51.9998C34.457 52.7433 35.8184 53.2593 37.2129 53.5478C37.1507 54.1519 37.1177 54.7646 37.1153 55.3845C35.5804 55.0946 34.0802 54.5674 32.6148 53.803Z" fill="#151515"/>
<path d="M45.333 64.3324L46.583 65.6657L55.4997 56.749L64.333 65.6657L65.6663 64.3324L56.833 55.499L65.6663 46.5824L64.333 45.249L55.4997 54.1657L46.583 45.249L45.333 46.5824L54.1663 55.499L45.333 64.3324Z" fill="#151515"/>
</svg>
