<svg width="26" height="26" viewBox="0 0 26 26" fill="none" xmlns="http://www.w3.org/2000/svg">
    <path d="M4.36667 22.2569C4.8546 22.74 5.51347 23.0109 6.20008 23.0109C6.88669 23.0109 7.54556 22.74 8.03349 22.2569L8.54961 21.7399C9.01007 21.9735 9.48318 22.1725 9.974 22.3319V23.0597C9.9771 23.7457 10.251 24.4026 10.736 24.8876C11.221 25.3726 11.878 25.6465 12.5639 25.6496H13.435C14.8569 25.6496 16.0308 24.4816 16.0308 23.0597V22.3252C16.5189 22.1678 16.9938 21.9721 17.451 21.7399L17.9671 22.2569C18.455 22.74 19.1139 23.0109 19.8005 23.0109C20.4871 23.0109 21.146 22.74 21.6339 22.2569L22.2563 21.6379C22.7394 21.1493 23.0103 20.4899 23.0103 19.8028C23.0103 19.1157 22.7394 18.4563 22.2563 17.9677L21.7402 17.4575C21.9738 16.997 22.1728 16.5231 22.3314 16.0322H23.0592C24.4819 16.0322 25.649 14.8575 25.649 13.4356V12.5644C25.649 11.1426 24.4802 9.96867 23.0592 9.96867H22.3246C22.1673 9.48097 21.9719 9.00639 21.7402 8.54934L22.2563 8.03238C22.7394 7.54445 23.0104 6.88558 23.0104 6.19897C23.0104 5.51236 22.7394 4.85349 22.2563 4.36556L21.6339 3.74318C21.146 3.26011 20.4871 2.98913 19.8005 2.98913C19.1139 2.98913 18.455 3.26011 17.9671 3.74318L17.451 4.2593C16.9935 4.02765 16.5187 3.83197 16.0308 3.67403V2.94539C16.0266 2.25824 15.7518 1.60044 15.2659 1.11454C14.78 0.628645 14.1222 0.353812 13.435 0.349609H12.5639C11.142 0.349609 9.974 1.52437 9.974 2.94539V3.66728C9.48318 3.82667 9.00838 4.02486 8.54961 4.25846L8.03349 3.74234C7.54556 3.25927 6.88669 2.98829 6.20008 2.98829C5.51347 2.98829 4.8546 3.25927 4.36667 3.74234L3.74935 4.36556C3.26709 4.85392 2.99667 5.51263 2.99667 6.19897C2.99667 6.88531 3.26709 7.54402 3.74935 8.03238L4.25957 8.54934C4.0282 9.00655 3.8328 9.4811 3.67514 9.96867H2.9465C2.25936 9.97266 1.60152 10.2474 1.11571 10.7334C0.629901 11.2194 0.355325 11.8773 0.351562 12.5644V13.4356C0.355542 14.1228 0.630161 14.7807 1.1159 15.2667C1.60164 15.7528 2.25935 16.0278 2.9465 16.0322H3.67514C3.83453 16.5222 4.02597 16.9987 4.25957 17.4575L3.74935 17.9677C3.26668 18.4565 2.99603 19.1158 2.99603 19.8028C2.99603 20.4897 3.26668 21.149 3.74935 21.6379L4.36667 22.2569ZM12.5639 2.03796H13.435C13.9512 2.03796 14.3442 2.43011 14.3442 2.94708V4.22979C14.3449 4.41769 14.4083 4.59998 14.5244 4.74772C14.6405 4.89546 14.8027 5.00019 14.9851 5.04529C15.7741 5.24174 16.5296 5.55438 17.2267 5.97296C17.3874 6.06921 17.5756 6.1092 17.7616 6.0866C17.9476 6.064 18.1208 5.9801 18.2538 5.84814L19.163 4.93903C19.2459 4.85247 19.3454 4.78359 19.4556 4.73653C19.5659 4.68947 19.6845 4.66522 19.8043 4.66522C19.9242 4.66522 20.0428 4.68947 20.153 4.73653C20.2632 4.78359 20.3628 4.85247 20.4457 4.93903L21.0613 5.56141C21.4265 5.92657 21.4265 6.47221 21.0613 6.83737L20.1589 7.74649C20.0245 7.87928 19.9385 8.05344 19.915 8.24096C19.8914 8.42848 19.9316 8.61848 20.0291 8.78041C20.4494 9.4772 20.7638 10.2327 20.9618 11.022C21.0571 11.3947 21.3927 11.6562 21.7773 11.657H23.06C23.5753 11.657 23.9624 12.0492 23.9624 12.5661V13.4373C23.9624 13.9534 23.5753 14.3464 23.06 14.3464H21.7773C21.5884 14.346 21.4048 14.4088 21.2559 14.525C21.107 14.6412 21.0014 14.804 20.9559 14.9873C20.7595 15.7763 20.4466 16.5315 20.0274 17.2281C19.8317 17.5604 19.884 17.9837 20.1572 18.2553L21.0596 19.1644C21.1462 19.2473 21.2151 19.3468 21.2621 19.4571C21.3092 19.5673 21.3334 19.6859 21.3334 19.8057C21.3334 19.9256 21.3092 20.0442 21.2621 20.1544C21.2151 20.2646 21.1462 20.3642 21.0596 20.4471L20.444 21.0636C20.3611 21.1501 20.2615 21.219 20.1513 21.2661C20.0411 21.3131 19.9225 21.3374 19.8026 21.3374C19.6828 21.3374 19.5642 21.3131 19.4539 21.2661C19.3437 21.219 19.2442 21.1501 19.1613 21.0636L18.2522 20.1544C18.119 20.0226 17.9458 19.9389 17.7598 19.9164C17.5738 19.894 17.3856 19.9341 17.225 20.0305C16.5277 20.4488 15.7723 20.7614 14.9834 20.9581C14.7999 21.0035 14.6369 21.1093 14.5207 21.2584C14.4044 21.4075 14.3417 21.5913 14.3425 21.7804V23.0631C14.3448 23.1828 14.3228 23.3018 14.2779 23.4127C14.2329 23.5237 14.1659 23.6244 14.0809 23.7088C13.996 23.7931 13.8948 23.8594 13.7834 23.9035C13.6721 23.9476 13.553 23.9687 13.4333 23.9655H12.5622C12.4425 23.9687 12.3234 23.9476 12.2121 23.9035C12.1008 23.8594 11.9996 23.7931 11.9146 23.7088C11.8296 23.6244 11.7626 23.5237 11.7177 23.4127C11.6727 23.3018 11.6507 23.1828 11.6531 23.0631V21.7804C11.6542 21.5921 11.5923 21.4089 11.4772 21.2599C11.3621 21.1109 11.2005 21.0046 11.018 20.9581C10.2293 20.7617 9.47411 20.4491 8.77731 20.0305C8.61592 19.9326 8.42637 19.8916 8.23895 19.914C8.05153 19.9365 7.87705 20.0212 7.74338 20.1544L6.84101 21.0636C6.75812 21.1501 6.65856 21.219 6.54834 21.2661C6.43811 21.3131 6.31951 21.3374 6.19966 21.3374C6.07981 21.3374 5.9612 21.3131 5.85098 21.2661C5.74075 21.219 5.6412 21.1501 5.5583 21.0636L4.93592 20.4471C4.84937 20.3642 4.78048 20.2646 4.73343 20.1544C4.68637 20.0442 4.66211 19.9256 4.66211 19.8057C4.66211 19.6859 4.68637 19.5673 4.73343 19.4571C4.78048 19.3468 4.84937 19.2473 4.93592 19.1644L5.84504 18.2553C5.97673 18.122 6.06031 17.9488 6.0826 17.7628C6.1049 17.5768 6.06463 17.3887 5.96816 17.2281C5.55043 16.5309 5.23784 15.7758 5.0405 14.9873C4.99512 14.8038 4.88939 14.6408 4.74027 14.5246C4.59116 14.4084 4.40731 14.3456 4.21825 14.3464H2.94313C2.82315 14.3487 2.70394 14.3268 2.59265 14.2819C2.48136 14.237 2.38028 14.1701 2.29547 14.0852C2.21066 14.0003 2.14386 13.8992 2.09907 13.7878C2.05429 13.6765 2.03245 13.5573 2.03486 13.4373V12.5661C2.03486 12.05 2.5476 11.8215 2.94313 11.657C3.33865 11.4934 4.22584 11.657 4.22584 11.657C4.61124 11.6562 4.94604 11.3947 5.04218 11.022C5.23878 10.233 5.55141 9.47758 5.96985 8.78041C6.06757 8.61903 6.10854 8.4296 6.08623 8.24226C6.06392 8.05492 5.97961 7.88041 5.84672 7.74649L4.93677 6.83737C4.85029 6.75513 4.78144 6.65617 4.73439 6.54649C4.68734 6.43682 4.66308 6.31873 4.66308 6.19939C4.66308 6.08005 4.68734 5.96196 4.73439 5.85229C4.78144 5.74261 4.85029 5.64365 4.93677 5.56141L5.55915 4.93903C5.64146 4.85253 5.7405 4.78366 5.85024 4.73661C5.95998 4.68955 6.07814 4.66528 6.19755 4.66528C6.31696 4.66528 6.43512 4.68955 6.54486 4.73661C6.6546 4.78366 6.75364 4.85253 6.83595 4.93903L7.74507 5.84814C7.87855 5.98169 8.053 6.06658 8.24046 6.08921C8.42793 6.11184 8.61756 6.0709 8.77899 5.97296C9.47594 5.55467 10.2311 5.24205 11.0197 5.04529C11.2021 4.99896 11.3637 4.8929 11.4788 4.74403C11.5939 4.59516 11.6558 4.41205 11.6548 4.22388V2.94708C11.6548 2.43011 12.0478 2.03796 12.5639 2.03796ZM13.0007 8.2196C10.3712 8.2196 8.22577 10.3718 8.22577 13.0005C8.22577 15.6291 10.3712 17.7813 13.0007 17.7813C15.6294 17.7813 17.7816 15.6291 17.7816 13.0005C17.7816 10.3718 15.6294 8.2196 13.0007 8.2196ZM13.0007 9.90626C13.4075 9.90481 13.8105 9.98386 14.1865 10.1388C14.5626 10.2938 14.9043 10.5217 15.1919 10.8093C15.4795 11.0969 15.7073 11.4386 15.8623 11.8146C16.0173 12.1907 16.0964 12.5937 16.0949 13.0005C16.0964 13.4072 16.0173 13.8102 15.8623 14.1863C15.7073 14.5623 15.4795 14.904 15.1919 15.1916C14.9043 15.4792 14.5626 15.7071 14.1865 15.8621C13.8105 16.017 13.4075 16.0961 13.0007 16.0946C12.5943 16.096 12.1917 16.0168 11.8161 15.8617C11.4404 15.7066 11.0992 15.4786 10.8122 15.191C10.5251 14.9033 10.2979 14.5616 10.1436 14.1856C9.98933 13.8096 9.91105 13.4068 9.91328 13.0005C9.91116 12.5941 9.98952 12.1913 10.1438 11.8154C10.2982 11.4395 10.5254 11.0979 10.8124 10.8102C11.0995 10.5225 11.4406 10.2946 11.8162 10.1394C12.1918 9.98428 12.5944 9.90503 13.0007 9.90626Z" fill="#737373"/>
</svg>
