<svg width="24" height="25" viewBox="0 0 24 25" fill="none" xmlns="http://www.w3.org/2000/svg">
<path d="M4.5 12.0039C4.08333 12.0039 3.72917 11.8581 3.4375 11.5664C3.14583 11.2747 3 10.9206 3 10.5039V5.25391C3 4.83724 3.14583 4.48307 3.4375 4.19141C3.72917 3.89974 4.08333 3.75391 4.5 3.75391H9.75C10.1667 3.75391 10.5208 3.89974 10.8125 4.19141C11.1042 4.48307 11.25 4.83724 11.25 5.25391V10.5039C11.25 10.9206 11.1042 11.2747 10.8125 11.5664C10.5208 11.8581 10.1667 12.0039 9.75 12.0039H4.5ZM4.5 21.7539C4.08333 21.7539 3.72917 21.6081 3.4375 21.3164C3.14583 21.0247 3 20.6706 3 20.2539V15.0039C3 14.5872 3.14583 14.2331 3.4375 13.9414C3.72917 13.6497 4.08333 13.5039 4.5 13.5039H9.75C10.1667 13.5039 10.5208 13.6497 10.8125 13.9414C11.1042 14.2331 11.25 14.5872 11.25 15.0039V20.2539C11.25 20.6706 11.1042 21.0247 10.8125 21.3164C10.5208 21.6081 10.1667 21.7539 9.75 21.7539H4.5ZM14.25 12.0039C13.8333 12.0039 13.4792 11.8581 13.1875 11.5664C12.8958 11.2747 12.75 10.9206 12.75 10.5039V5.25391C12.75 4.83724 12.8958 4.48307 13.1875 4.19141C13.4792 3.89974 13.8333 3.75391 14.25 3.75391H19.5C19.9167 3.75391 20.2708 3.89974 20.5625 4.19141C20.8542 4.48307 21 4.83724 21 5.25391V10.5039C21 10.9206 20.8542 11.2747 20.5625 11.5664C20.2708 11.8581 19.9167 12.0039 19.5 12.0039H14.25ZM14.25 21.7539C13.8333 21.7539 13.4792 21.6081 13.1875 21.3164C12.8958 21.0247 12.75 20.6706 12.75 20.2539V15.0039C12.75 14.5872 12.8958 14.2331 13.1875 13.9414C13.4792 13.6497 13.8333 13.5039 14.25 13.5039H19.5C19.9167 13.5039 20.2708 13.6497 20.5625 13.9414C20.8542 14.2331 21 14.5872 21 15.0039V20.2539C21 20.6706 20.8542 21.0247 20.5625 21.3164C20.2708 21.6081 19.9167 21.7539 19.5 21.7539H14.25ZM4.5 10.5039H9.75V5.25391H4.5V10.5039ZM14.25 10.5039H19.5V5.25391H14.25V10.5039ZM14.25 20.2539H19.5V15.0039H14.25V20.2539ZM4.5 20.2539H9.75V15.0039H4.5V20.2539Z" fill="white"/>
</svg>
