<svg width="24" height="20" viewBox="0 0 24 20" fill="none" xmlns="http://www.w3.org/2000/svg">
    <path d="M23.6663 2.41699V17.5837C23.6663 18.0503 23.4913 18.4587 23.1413 18.8087C22.7913 19.1587 22.383 19.3337 21.9163 19.3337H2.08301C1.61634 19.3337 1.20801 19.1587 0.858008 18.8087C0.508008 18.4587 0.333008 18.0503 0.333008 17.5837V2.41699C0.333008 1.95033 0.508008 1.54199 0.858008 1.19199C1.20801 0.841992 1.61634 0.666992 2.08301 0.666992H21.9163C22.383 0.666992 22.7913 0.841992 23.1413 1.19199C23.4913 1.54199 23.6663 1.95033 23.6663 2.41699ZM2.08301 5.59616H21.9163V2.41699H2.08301V5.59616ZM2.08301 9.35866V17.5837H21.9163V9.35866H2.08301ZM2.08301 17.5837V2.41699V17.5837Z" fill="#737373"/>
</svg>
