<svg width="80" height="80" viewBox="0 0 80 80" fill="none" xmlns="http://www.w3.org/2000/svg">
<path d="M49.083 62.8327V60.9993H55.2497C56.8608 60.9993 58.2219 60.4438 59.333 59.3327C60.4441 58.2216 60.9997 56.8605 60.9997 55.2494V47.416C60.9997 45.6382 61.5413 44.0688 62.6247 42.7077C63.708 41.3466 65.1108 40.4716 66.833 40.0827V39.916C65.1108 39.5271 63.708 38.6521 62.6247 37.291C61.5413 35.9299 60.9997 34.3605 60.9997 32.5827V24.7493C60.9997 23.1382 60.4441 21.7771 59.333 20.666C58.2219 19.5549 56.8608 18.9993 55.2497 18.9993H49.083V17.166H55.2497C57.3608 17.166 59.1525 17.9021 60.6247 19.3743C62.0969 20.8466 62.833 22.6382 62.833 24.7493V32.5827C62.833 34.2493 63.4302 35.6521 64.6247 36.791C65.8191 37.9299 67.2497 38.4993 68.9163 38.4993H68.6663V41.4993H68.9163C67.2497 41.4993 65.8191 42.0688 64.6247 43.2077C63.4302 44.3466 62.833 45.7494 62.833 47.416V55.2494C62.833 57.3605 62.0969 59.1521 60.6247 60.6243C59.1525 62.0966 57.3608 62.8327 55.2497 62.8327H49.083ZM24.7497 62.8327C22.6386 62.8327 20.8469 62.0966 19.3747 60.6243C17.9025 59.1521 17.1663 57.3605 17.1663 55.2494V47.416C17.1663 45.7494 16.5691 44.3466 15.3747 43.2077C14.1802 42.0688 12.7497 41.4993 11.083 41.4993H11.333V38.4993H11.083C12.7497 38.4993 14.1802 37.9299 15.3747 36.791C16.5691 35.6521 17.1663 34.2493 17.1663 32.5827V24.7493C17.1663 22.6382 17.9025 20.8466 19.3747 19.3743C20.8469 17.9021 22.6386 17.166 24.7497 17.166H30.9163V18.9993H24.7497C23.1386 18.9993 21.7775 19.5549 20.6663 20.666C19.5552 21.7771 18.9997 23.1382 18.9997 24.7493V32.5827C18.9997 34.3605 18.458 35.9299 17.3747 37.291C16.2913 38.6521 14.8886 39.5271 13.1663 39.916V40.0827C14.8886 40.4716 16.2913 41.3466 17.3747 42.7077C18.458 44.0688 18.9997 45.6382 18.9997 47.416V55.2494C18.9997 56.8605 19.5552 58.2216 20.6663 59.3327C21.7775 60.4438 23.1386 60.9993 24.7497 60.9993H30.9163V62.8327H24.7497Z" fill="#151515"/>
</svg>
