<svg width="18" height="24" viewBox="0 0 18 24" fill="none" xmlns="http://www.w3.org/2000/svg">
    <path fill-rule="evenodd" clip-rule="evenodd" d="M4.59249 0.0410156C4.26116 0.0410156 3.95783 0.228271 3.80967 0.524605C3.80967 0.524605 1.34914 5.4456 0.248393 7.64769C-0.25619 8.65627 0.152728 9.88301 1.16131 10.387L5.01717 12.3149C5.15017 12.3814 5.21199 12.5372 5.16066 12.6766C4.16199 15.3862 1.43781 22.7799 1.43781 22.7799C1.30189 23.1503 1.42965 23.5657 1.75048 23.7949C2.0719 24.0242 2.5059 24.0102 2.81215 23.7611C2.81215 23.7611 13.4037 15.1307 17.2152 12.0244C17.7426 11.5951 18.0214 10.9313 17.959 10.254C17.896 9.57676 17.5005 8.97535 16.9037 8.64985L13.1564 6.60585C13.0835 6.56618 13.0316 6.49734 13.0123 6.41626C12.9937 6.33576 13.01 6.25061 13.0572 6.18236L16.3927 1.41767C16.58 1.15051 16.6028 0.801103 16.4517 0.51177C16.3012 0.222436 16.0019 0.0410156 15.6758 0.0410156H4.59249ZM5.13324 1.79102H13.9953L11.624 5.17902C11.2903 5.65502 11.176 6.25002 11.3084 6.81586C11.4414 7.38169 11.8083 7.8641 12.3187 8.14235L16.0655 10.1858C16.1507 10.2324 16.2073 10.3182 16.216 10.415C16.2253 10.5118 16.1857 10.6069 16.1098 10.6682L4.18589 20.3842L6.80274 13.2815C7.16207 12.3056 6.73041 11.2148 5.79999 10.7498L1.94417 8.82194C1.80009 8.7496 1.74175 8.57459 1.8135 8.43051L5.13324 1.79102Z" fill="#737373"/>
</svg>
