<svg width="24" height="24" viewBox="0 0 24 24" fill="none" xmlns="http://www.w3.org/2000/svg">
    <path d="M7.38333 23.5H2.25C1.78333 23.5 1.375 23.325 1.025 22.975C0.675 22.625 0.5 22.2167 0.5 21.75V16.6167C1.35556 16.5194 2.08958 16.184 2.70208 15.6104C3.31458 15.0368 3.62083 14.3319 3.62083 13.4958C3.62083 12.6597 3.31458 11.9549 2.70208 11.3812C2.08958 10.8076 1.35556 10.4722 0.5 10.375V5.24167C0.5 4.775 0.675 4.36667 1.025 4.01667C1.375 3.66667 1.78333 3.49167 2.25 3.49167H7.4125C7.62639 2.71389 8.01042 2.0625 8.56458 1.5375C9.11875 1.0125 9.78472 0.75 10.5625 0.75C11.3403 0.75 12.0062 1.0125 12.5604 1.5375C13.1146 2.0625 13.4986 2.71389 13.7125 3.49167H18.7583C19.225 3.49167 19.6333 3.66667 19.9833 4.01667C20.3333 4.36667 20.5083 4.775 20.5083 5.24167V10.2875C21.2861 10.5014 21.9229 10.9049 22.4187 11.4979C22.9146 12.091 23.1625 12.7764 23.1625 13.5542C23.1625 14.3319 22.9146 14.9833 22.4187 15.5083C21.9229 16.0333 21.2861 16.4028 20.5083 16.6167V21.75C20.5083 22.2167 20.3333 22.625 19.9833 22.975C19.6333 23.325 19.225 23.5 18.7583 23.5H13.625C13.5278 22.5667 13.1826 21.8132 12.5896 21.2396C11.9965 20.666 11.3014 20.3792 10.5042 20.3792C9.70694 20.3792 9.01181 20.666 8.41875 21.2396C7.82569 21.8132 7.48055 22.5667 7.38333 23.5ZM2.25 21.75H6.04167C6.52778 20.5639 7.20833 19.7472 8.08333 19.3C8.95833 18.8528 9.76528 18.6292 10.5042 18.6292C11.2431 18.6292 12.05 18.8528 12.925 19.3C13.8 19.7472 14.4806 20.5639 14.9667 21.75H18.7583V14.8958H20.0708C20.4597 14.8958 20.7806 14.7694 21.0333 14.5167C21.2861 14.2639 21.4125 13.9431 21.4125 13.5542C21.4125 13.1653 21.2861 12.8444 21.0333 12.5917C20.7806 12.3389 20.4597 12.2125 20.0708 12.2125H18.7583V5.24167H11.9042V3.84167C11.9042 3.45278 11.7778 3.13194 11.525 2.87917C11.2722 2.62639 10.9514 2.5 10.5625 2.5C10.1736 2.5 9.85278 2.62639 9.6 2.87917C9.34722 3.13194 9.22083 3.45278 9.22083 3.84167V5.24167H2.25V9.03333C3.18333 9.38333 3.93681 9.96667 4.51042 10.7833C5.08403 11.6 5.37083 12.5042 5.37083 13.4958C5.37083 14.4875 5.08403 15.3917 4.51042 16.2083C3.93681 17.025 3.18333 17.6083 2.25 17.9583V21.75Z" fill="#737373"/>
</svg>
