<svg width="24" height="24" viewBox="0 0 24 24" fill="none" xmlns="http://www.w3.org/2000/svg">
    <path d="M11.9705 20.3705C12.1844 20.3705 12.3691 20.2879 12.5247 20.1226C12.6802 19.9573 12.758 19.7677 12.758 19.5538V18.8538C13.9247 18.7177 14.8434 18.324 15.5143 17.6726C16.1851 17.0212 16.5205 16.19 16.5205 15.1788C16.5205 14.1677 16.2434 13.3608 15.6893 12.758C15.1351 12.1552 14.1775 11.6302 12.8163 11.183C11.5913 10.7747 10.7504 10.3712 10.2934 9.97259C9.83648 9.57398 9.60801 9.05384 9.60801 8.41218C9.60801 7.8094 9.82676 7.33787 10.2643 6.99759C10.7018 6.65731 11.2997 6.48717 12.058 6.48717C12.5247 6.48717 12.9427 6.57468 13.3122 6.74967C13.6816 6.92467 14.0025 7.18718 14.2747 7.53718C14.4108 7.69273 14.5761 7.79967 14.7705 7.85801C14.965 7.91634 15.1497 7.8969 15.3247 7.79967C15.5386 7.70245 15.6795 7.5469 15.7476 7.33301C15.8156 7.11912 15.7816 6.92467 15.6455 6.74967C15.315 6.28301 14.9115 5.91356 14.4351 5.64134C13.9587 5.36912 13.4191 5.20384 12.8163 5.14551V4.44551C12.8163 4.23162 12.7386 4.0469 12.583 3.89134C12.4275 3.73579 12.2427 3.65801 12.0288 3.65801C11.815 3.65801 11.6254 3.73579 11.4601 3.89134C11.2948 4.0469 11.2122 4.23162 11.2122 4.44551V5.14551C10.2205 5.28162 9.43787 5.64134 8.86426 6.22468C8.29065 6.80801 8.00384 7.53718 8.00384 8.41218C8.00384 9.36495 8.25176 10.1233 8.74759 10.6872C9.24342 11.2511 10.1622 11.7858 11.5038 12.2913C12.8844 12.8163 13.7983 13.2733 14.2455 13.6622C14.6927 14.0511 14.9163 14.5566 14.9163 15.1788C14.9163 15.8205 14.6538 16.3601 14.1288 16.7976C13.6038 17.2351 12.9622 17.4538 12.2038 17.4538C11.5622 17.4538 10.974 17.2983 10.4393 16.9872C9.90454 16.6761 9.49134 16.2386 9.19968 15.6747C9.10245 15.5191 8.9712 15.3976 8.80592 15.3101C8.64065 15.2226 8.47051 15.208 8.29551 15.2663C8.04273 15.3636 7.87259 15.5143 7.78509 15.7184C7.69759 15.9226 7.7219 16.1316 7.85801 16.3455C8.2469 16.9872 8.7087 17.5073 9.24342 17.9059C9.77815 18.3045 10.415 18.6011 11.1538 18.7955V19.583C11.1538 19.7969 11.2365 19.9816 11.4018 20.1372C11.567 20.2927 11.7566 20.3705 11.9705 20.3705ZM11.9997 23.6663C10.3469 23.6663 8.81079 23.3698 7.39134 22.7768C5.9719 22.1837 4.73717 21.3622 3.68717 20.3122C2.63717 19.2622 1.81565 18.0275 1.22259 16.608C0.629536 15.1886 0.333008 13.6525 0.333008 11.9997C0.333008 10.3663 0.629536 8.83995 1.22259 7.42051C1.81565 6.00106 2.63717 4.76634 3.68717 3.71634C4.73717 2.66634 5.9719 1.83995 7.39134 1.23717C8.81079 0.634397 10.3469 0.333008 11.9997 0.333008C13.633 0.333008 15.1594 0.634397 16.5788 1.23717C17.9983 1.83995 19.233 2.66634 20.283 3.71634C21.333 4.76634 22.1594 6.00106 22.7622 7.42051C23.365 8.83995 23.6663 10.3663 23.6663 11.9997C23.6663 13.6525 23.365 15.1886 22.7622 16.608C22.1594 18.0275 21.333 19.2622 20.283 20.3122C19.233 21.3622 17.9983 22.1837 16.5788 22.7768C15.1594 23.3698 13.633 23.6663 11.9997 23.6663ZM11.9997 21.9163C14.8191 21.9163 17.1768 20.9684 19.0726 19.0726C20.9684 17.1768 21.9163 14.8191 21.9163 11.9997C21.9163 9.18023 20.9684 6.82259 19.0726 4.92676C17.1768 3.03092 14.8191 2.08301 11.9997 2.08301C9.18023 2.08301 6.82259 3.03092 4.92676 4.92676C3.03092 6.82259 2.08301 9.18023 2.08301 11.9997C2.08301 14.8191 3.03092 17.1768 4.92676 19.0726C6.82259 20.9684 9.18023 21.9163 11.9997 21.9163Z" fill="#737373"/>
</svg>
