<svg width="24" height="24" viewBox="0 0 24 24" fill="none" xmlns="http://www.w3.org/2000/svg">
    <path d="M12.0872 17.833C12.34 17.833 12.549 17.7504 12.7143 17.5851C12.8795 17.4198 12.9622 17.2108 12.9622 16.958V12.9913H16.9872C17.2205 12.9913 17.4198 12.9087 17.5851 12.7434C17.7504 12.5781 17.833 12.3691 17.833 12.1163C17.833 11.8636 17.7504 11.6545 17.5851 11.4893C17.4198 11.324 17.2108 11.2413 16.958 11.2413H12.9622V7.01217C12.9622 6.77884 12.8795 6.57954 12.7143 6.41426C12.549 6.24898 12.34 6.16634 12.0872 6.16634C11.8344 6.16634 11.6254 6.24898 11.4601 6.41426C11.2948 6.57954 11.2122 6.78856 11.2122 7.04134V11.2413H7.01217C6.77884 11.2413 6.57954 11.324 6.41426 11.4893C6.24898 11.6545 6.16634 11.8636 6.16634 12.1163C6.16634 12.3691 6.24898 12.5781 6.41426 12.7434C6.57954 12.9087 6.78856 12.9913 7.04134 12.9913H11.2122V16.9872C11.2122 17.2205 11.2948 17.4198 11.4601 17.5851C11.6254 17.7504 11.8344 17.833 12.0872 17.833ZM11.9997 23.6663C10.3469 23.6663 8.81079 23.3698 7.39134 22.7768C5.9719 22.1837 4.73717 21.3622 3.68717 20.3122C2.63717 19.2622 1.81565 18.0275 1.22259 16.608C0.629536 15.1886 0.333008 13.6525 0.333008 11.9997C0.333008 10.3663 0.629536 8.83995 1.22259 7.42051C1.81565 6.00106 2.63717 4.76634 3.68717 3.71634C4.73717 2.66634 5.9719 1.83995 7.39134 1.23717C8.81079 0.634397 10.3469 0.333008 11.9997 0.333008C13.633 0.333008 15.1594 0.634397 16.5788 1.23717C17.9983 1.83995 19.233 2.66634 20.283 3.71634C21.333 4.76634 22.1594 6.00106 22.7622 7.42051C23.365 8.83995 23.6663 10.3663 23.6663 11.9997C23.6663 13.6525 23.365 15.1886 22.7622 16.608C22.1594 18.0275 21.333 19.2622 20.283 20.3122C19.233 21.3622 17.9983 22.1837 16.5788 22.7768C15.1594 23.3698 13.633 23.6663 11.9997 23.6663ZM11.9997 21.9163C14.7219 21.9163 17.0552 20.9441 18.9997 18.9997C20.9441 17.0552 21.9163 14.7219 21.9163 11.9997C21.9163 9.27745 20.9441 6.94412 18.9997 4.99967C17.0552 3.05523 14.7219 2.08301 11.9997 2.08301C9.27745 2.08301 6.94412 3.05523 4.99967 4.99967C3.05523 6.94412 2.08301 9.27745 2.08301 11.9997C2.08301 14.7219 3.05523 17.0552 4.99967 18.9997C6.94412 20.9441 9.27745 21.9163 11.9997 21.9163Z" fill="#737373"/>
</svg>
