<svg width="36" height="36" viewBox="0 0 36 36" fill="none" xmlns="http://www.w3.org/2000/svg">
    <path d="M32.25 18C32.25 19.95 31.875 21.7937 31.125 23.5312C30.375 25.2687 29.3562 26.7812 28.0687 28.0687C26.7812 29.3562 25.2687 30.375 23.5312 31.125C21.7938 31.875 19.95 32.25 18 32.25C16.025 32.25 14.1688 31.875 12.4313 31.125C10.6938 30.375 9.1875 29.3563 7.9125 28.0688C6.6375 26.7812 5.625 25.2688 4.875 23.5312C4.125 21.7937 3.75 19.95 3.75 18C3.75 16.025 4.125 14.1688 4.875 12.4313C5.625 10.6938 6.6375 9.1875 7.9125 7.9125C9.1875 6.6375 10.6937 5.625 12.4312 4.875C14.1687 4.125 16.025 3.75 18 3.75C19.95 3.75 21.7937 4.125 23.5312 4.875C25.2687 5.625 26.7812 6.6375 28.0687 7.9125C29.3562 9.1875 30.375 10.6937 31.125 12.4313C31.875 14.1687 32.25 16.025 32.25 18ZM30.5625 18C30.5625 14.5 29.3375 11.5312 26.8875 9.09375C24.4375 6.65625 21.475 5.4375 18 5.4375C14.5 5.4375 11.5312 6.65625 9.09375 9.09375C6.65625 11.5312 5.4375 14.5 5.4375 18C5.4375 21.475 6.65625 24.4375 9.09375 26.8875C11.5312 29.3375 14.5 30.5625 18 30.5625C21.475 30.5625 24.4375 29.3375 26.8875 26.8875C29.3375 24.4375 30.5625 21.475 30.5625 18Z" fill="#4D4D4D"/>
    <path d="M21.2256 18.7495L17.2506 22.7245C16.9006 23.0745 16.5068 23.1558 16.0693 22.9683C15.6318 22.7808 15.4131 22.4495 15.4131 21.9745L15.4131 13.987C15.4131 13.512 15.6318 13.187 16.0693 13.012C16.5068 12.837 16.9006 12.912 17.2506 13.237L21.2256 17.212C21.3506 17.337 21.4381 17.462 21.4881 17.587C21.5381 17.712 21.5631 17.8495 21.5631 17.9995C21.5631 18.1495 21.5381 18.2808 21.4881 18.3933C21.4381 18.5058 21.3506 18.6245 21.2256 18.7495Z" fill="#4D4D4D"/>
</svg>
