<svg width="40" height="41" viewBox="0 0 40 41" fill="none" xmlns="http://www.w3.org/2000/svg">
    <rect y="0.480469" width="40" height="40" rx="10" fill="#2876F8"/>
    <path d="M16.9 29.4805H12.5C12.1 29.4805 11.75 29.3305 11.45 29.0305C11.15 28.7305 11 28.3805 11 27.9805V23.5805C11.7333 23.4971 12.3625 23.2096 12.8875 22.718C13.4125 22.2263 13.675 21.6221 13.675 20.9055C13.675 20.1888 13.4125 19.5846 12.8875 19.093C12.3625 18.6013 11.7333 18.3138 11 18.2305V13.8305C11 13.4305 11.15 13.0805 11.45 12.7805C11.75 12.4805 12.1 12.3305 12.5 12.3305H16.925C17.1083 11.6638 17.4375 11.1055 17.9125 10.6555C18.3875 10.2055 18.9583 9.98047 19.625 9.98047C20.2917 9.98047 20.8625 10.2055 21.3375 10.6555C21.8125 11.1055 22.1417 11.6638 22.325 12.3305H26.65C27.05 12.3305 27.4 12.4805 27.7 12.7805C28 13.0805 28.15 13.4305 28.15 13.8305V18.1555C28.8167 18.3388 29.3625 18.6846 29.7875 19.193C30.2125 19.7013 30.425 20.2888 30.425 20.9555C30.425 21.6221 30.2125 22.1805 29.7875 22.6305C29.3625 23.0805 28.8167 23.3971 28.15 23.5805V27.9805C28.15 28.3805 28 28.7305 27.7 29.0305C27.4 29.3305 27.05 29.4805 26.65 29.4805H22.25C22.1667 28.6805 21.8708 28.0346 21.3625 27.543C20.8542 27.0513 20.2583 26.8055 19.575 26.8055C18.8917 26.8055 18.2958 27.0513 17.7875 27.543C17.2792 28.0346 16.9833 28.6805 16.9 29.4805ZM12.5 27.9805H15.75C16.1667 26.9638 16.75 26.2638 17.5 25.8805C18.25 25.4971 18.9417 25.3055 19.575 25.3055C20.2083 25.3055 20.9 25.4971 21.65 25.8805C22.4 26.2638 22.9833 26.9638 23.4 27.9805H26.65V22.1055H27.775C28.1083 22.1055 28.3833 21.9971 28.6 21.7805C28.8167 21.5638 28.925 21.2888 28.925 20.9555C28.925 20.6221 28.8167 20.3471 28.6 20.1305C28.3833 19.9138 28.1083 19.8055 27.775 19.8055H26.65V13.8305H20.775V12.6305C20.775 12.2971 20.6667 12.0221 20.45 11.8055C20.2333 11.5888 19.9583 11.4805 19.625 11.4805C19.2917 11.4805 19.0167 11.5888 18.8 11.8055C18.5833 12.0221 18.475 12.2971 18.475 12.6305V13.8305H12.5V17.0805C13.3 17.3805 13.9458 17.8805 14.4375 18.5805C14.9292 19.2805 15.175 20.0555 15.175 20.9055C15.175 21.7555 14.9292 22.5305 14.4375 23.2305C13.9458 23.9305 13.3 24.4305 12.5 24.7305V27.9805Z" fill="white"/>
</svg>
