<svg width="22" height="22" viewBox="0 0 22 22" fill="none" xmlns="http://www.w3.org/2000/svg">
    <path d="M1.375 19.1083C1.12222 19.1083 0.913195 19.0257 0.747917 18.8604C0.582639 18.6951 0.5 18.4861 0.5 18.2333C0.5 17.9806 0.582639 17.7715 0.747917 17.6063C0.913195 17.441 1.12222 17.3583 1.375 17.3583H6.82917C7.08194 17.3583 7.29097 17.441 7.45625 17.6063C7.62153 17.7715 7.70417 17.9806 7.70417 18.2333C7.70417 18.4861 7.62153 18.6951 7.45625 18.8604C7.29097 19.0257 7.08194 19.1083 6.82917 19.1083H1.375ZM1.375 4.64167C1.12222 4.64167 0.913195 4.55903 0.747917 4.39375C0.582639 4.22847 0.5 4.01944 0.5 3.76667C0.5 3.51389 0.582639 3.30486 0.747917 3.13958C0.913195 2.97431 1.12222 2.89167 1.375 2.89167H11.6708C11.9236 2.89167 12.1326 2.97431 12.2979 3.13958C12.4632 3.30486 12.5458 3.51389 12.5458 3.76667C12.5458 4.01944 12.4632 4.22847 12.2979 4.39375C12.1326 4.55903 11.9236 4.64167 11.6708 4.64167H1.375ZM10.3292 21.5C10.0764 21.5 9.86736 21.4174 9.70208 21.2521C9.53681 21.0868 9.45417 20.8778 9.45417 20.625V15.8125C9.45417 15.5597 9.53681 15.3507 9.70208 15.1854C9.86736 15.0201 10.0764 14.9375 10.3292 14.9375C10.5819 14.9375 10.791 15.0201 10.9562 15.1854C11.1215 15.3507 11.2042 15.5597 11.2042 15.8125V17.3583H20.625C20.8778 17.3583 21.0868 17.441 21.2521 17.6063C21.4174 17.7715 21.5 17.9806 21.5 18.2333C21.5 18.4861 21.4174 18.6951 21.2521 18.8604C21.0868 19.0257 20.8778 19.1083 20.625 19.1083H11.2042V20.625C11.2042 20.8778 11.1215 21.0868 10.9562 21.2521C10.791 21.4174 10.5819 21.5 10.3292 21.5ZM6.82917 14.2667C6.57639 14.2667 6.36736 14.184 6.20208 14.0187C6.03681 13.8535 5.95417 13.6444 5.95417 13.3917V11.875H1.375C1.12222 11.875 0.913195 11.7924 0.747917 11.6271C0.582639 11.4618 0.5 11.2528 0.5 11C0.5 10.7472 0.582639 10.5382 0.747917 10.3729C0.913195 10.2076 1.12222 10.125 1.375 10.125H5.95417V8.55C5.95417 8.29722 6.03681 8.08819 6.20208 7.92292C6.36736 7.75764 6.57639 7.675 6.82917 7.675C7.08194 7.675 7.29097 7.75764 7.45625 7.92292C7.62153 8.08819 7.70417 8.29722 7.70417 8.55V13.3917C7.70417 13.6444 7.62153 13.8535 7.45625 14.0187C7.29097 14.184 7.08194 14.2667 6.82917 14.2667ZM10.3292 11.875C10.0764 11.875 9.86736 11.7924 9.70208 11.6271C9.53681 11.4618 9.45417 11.2528 9.45417 11C9.45417 10.7472 9.53681 10.5382 9.70208 10.3729C9.86736 10.2076 10.0764 10.125 10.3292 10.125H20.625C20.8778 10.125 21.0868 10.2076 21.2521 10.3729C21.4174 10.5382 21.5 10.7472 21.5 11C21.5 11.2528 21.4174 11.4618 21.2521 11.6271C21.0868 11.7924 20.8778 11.875 20.625 11.875H10.3292ZM15.1708 7.0625C14.9181 7.0625 14.709 6.97986 14.5437 6.81458C14.3785 6.64931 14.2958 6.44028 14.2958 6.1875V1.375C14.2958 1.12222 14.3785 0.913195 14.5437 0.747917C14.709 0.582639 14.9181 0.5 15.1708 0.5C15.4236 0.5 15.6326 0.582639 15.7979 0.747917C15.9632 0.913195 16.0458 1.12222 16.0458 1.375V2.89167H20.625C20.8778 2.89167 21.0868 2.97431 21.2521 3.13958C21.4174 3.30486 21.5 3.51389 21.5 3.76667C21.5 4.01944 21.4174 4.22847 21.2521 4.39375C21.0868 4.55903 20.8778 4.64167 20.625 4.64167H16.0458V6.1875C16.0458 6.44028 15.9632 6.64931 15.7979 6.81458C15.6326 6.97986 15.4236 7.0625 15.1708 7.0625Z" fill="#737373"/>
</svg>
