<svg width="24" height="24" viewBox="0 0 24 24" fill="none" xmlns="http://www.w3.org/2000/svg">
    <path d="M9.17051 8.64551V15.3538C9.17051 15.7038 9.3212 15.9663 9.62259 16.1413C9.92398 16.3163 10.2205 16.3066 10.5122 16.1122L15.7913 12.7288C16.0636 12.5538 16.1997 12.3108 16.1997 11.9997C16.1997 11.6886 16.0636 11.4455 15.7913 11.2705L10.5122 7.88718C10.2205 7.69273 9.92398 7.68301 9.62259 7.85801C9.3212 8.03301 9.17051 8.29551 9.17051 8.64551ZM11.9997 23.6663C10.4052 23.6663 8.89829 23.3601 7.47884 22.7476C6.0594 22.1351 4.81981 21.299 3.76009 20.2393C2.70037 19.1795 1.86426 17.94 1.25176 16.5205C0.639258 15.1011 0.333008 13.5941 0.333008 11.9997C0.333008 10.4052 0.639258 8.89829 1.25176 7.47884C1.86426 6.0594 2.70037 4.81981 3.76009 3.76009C4.81981 2.70037 6.0594 1.86426 7.47884 1.25176C8.89829 0.639258 10.4052 0.333008 11.9997 0.333008C13.5941 0.333008 15.1011 0.639258 16.5205 1.25176C17.94 1.86426 19.1795 2.70037 20.2393 3.76009C21.299 4.81981 22.1351 6.0594 22.7476 7.47884C23.3601 8.89829 23.6663 10.4052 23.6663 11.9997C23.6663 13.5941 23.3601 15.1011 22.7476 16.5205C22.1351 17.94 21.299 19.1795 20.2393 20.2393C19.1795 21.299 17.94 22.1351 16.5205 22.7476C15.1011 23.3601 13.5941 23.6663 11.9997 23.6663ZM11.9997 21.9163C14.7219 21.9163 17.0552 20.9441 18.9997 18.9997C20.9441 17.0552 21.9163 14.7219 21.9163 11.9997C21.9163 9.27745 20.9441 6.94412 18.9997 4.99967C17.0552 3.05523 14.7219 2.08301 11.9997 2.08301C9.27745 2.08301 6.94412 3.05523 4.99967 4.99967C3.05523 6.94412 2.08301 9.27745 2.08301 11.9997C2.08301 14.7219 3.05523 17.0552 4.99967 18.9997C6.94412 20.9441 9.27745 21.9163 11.9997 21.9163Z" fill="#2876F8"/>
</svg>
