<svg width="21" height="21" viewBox="0 0 21 21" fill="none" xmlns="http://www.w3.org/2000/svg">
    <path d="M10.593 0.5C4.93106 0.5 0.339844 5.09041 0.339844 10.7531C0.339844 15.2833 3.27768 19.1266 7.35159 20.4824C7.86399 20.5773 8.05215 20.26 8.05215 19.9891C8.05215 19.7447 8.04259 18.9369 8.03824 18.0802C5.18573 18.7004 4.58383 16.8704 4.58383 16.8704C4.11744 15.6853 3.44542 15.3703 3.44542 15.3703C2.51519 14.7339 3.51554 14.7469 3.51554 14.7469C4.54516 14.8193 5.0873 15.8035 5.0873 15.8035C6.00177 17.371 7.48588 16.9178 8.07097 16.6559C8.16296 15.9931 8.42873 15.5409 8.72192 15.2849C6.44461 15.0255 4.05053 14.1464 4.05053 10.2177C4.05053 9.09831 4.45107 8.1836 5.10701 7.46559C5.00054 7.2073 4.64961 6.1645 5.20632 4.75219C5.20632 4.75219 6.06731 4.47662 8.02666 5.8032C8.84447 5.57595 9.72162 5.46208 10.593 5.45823C11.4643 5.46208 12.3421 5.57595 13.1616 5.8032C15.1186 4.47662 15.9784 4.75219 15.9784 4.75219C16.5364 6.1645 16.1854 7.2073 16.0789 7.46559C16.7363 8.1836 17.1341 9.09823 17.1341 10.2177C17.1341 14.1557 14.7355 15.0229 12.4524 15.2767C12.8201 15.5948 13.1478 16.2189 13.1478 17.1754C13.1478 18.5472 13.1359 19.6514 13.1359 19.9891C13.1359 20.262 13.3205 20.5817 13.8402 20.481C17.9119 19.1237 20.846 15.2818 20.846 10.7531C20.846 5.09041 16.2555 0.5 10.593 0.5Z" fill="#D1D1D6"/>
</svg>
