<svg width="40" height="41" viewBox="0 0 40 41" fill="none" xmlns="http://www.w3.org/2000/svg">
    <rect y="0.722656" width="40" height="40" rx="10" fill="#2876F8"/>
    <path d="M19.9998 31.6734C19.7831 31.6734 19.604 31.6026 19.4623 31.4609C19.3206 31.3193 19.2498 31.1401 19.2498 30.9234V29.7984C16.9665 29.5651 15.0665 28.6901 13.5498 27.1734C12.0331 25.6568 11.1581 23.7568 10.9248 21.4734H9.7998C9.58314 21.4734 9.40397 21.4026 9.2623 21.2609C9.12064 21.1193 9.0498 20.9401 9.0498 20.7234C9.0498 20.5068 9.12064 20.3276 9.2623 20.1859C9.40397 20.0443 9.58314 19.9734 9.7998 19.9734H10.9248C11.1581 17.6901 12.0331 15.7901 13.5498 14.2734C15.0665 12.7568 16.9665 11.8818 19.2498 11.6484V10.5234C19.2498 10.3068 19.3206 10.1276 19.4623 9.98594C19.604 9.84427 19.7831 9.77344 19.9998 9.77344C20.2165 9.77344 20.3956 9.84427 20.5373 9.98594C20.679 10.1276 20.7498 10.3068 20.7498 10.5234V11.6484C23.0331 11.8818 24.9331 12.7568 26.4498 14.2734C27.9665 15.7901 28.8415 17.6901 29.0748 19.9734H30.1998C30.4165 19.9734 30.5956 20.0443 30.7373 20.1859C30.879 20.3276 30.9498 20.5068 30.9498 20.7234C30.9498 20.9401 30.879 21.1193 30.7373 21.2609C30.5956 21.4026 30.4165 21.4734 30.1998 21.4734H29.0748C28.8415 23.7568 27.9665 25.6568 26.4498 27.1734C24.9331 28.6901 23.0331 29.5651 20.7498 29.7984V30.9234C20.7498 31.1401 20.679 31.3193 20.5373 31.4609C20.3956 31.6026 20.2165 31.6734 19.9998 31.6734ZM19.9998 28.3234C22.0831 28.3234 23.8706 27.5776 25.3623 26.0859C26.854 24.5943 27.5998 22.8068 27.5998 20.7234C27.5998 18.6401 26.854 16.8526 25.3623 15.3609C23.8706 13.8693 22.0831 13.1234 19.9998 13.1234C17.9165 13.1234 16.129 13.8693 14.6373 15.3609C13.1456 16.8526 12.3998 18.6401 12.3998 20.7234C12.3998 22.8068 13.1456 24.5943 14.6373 26.0859C16.129 27.5776 17.9165 28.3234 19.9998 28.3234V28.3234ZM19.9998 24.4734C18.9498 24.4734 18.0623 24.1109 17.3373 23.3859C16.6123 22.6609 16.2498 21.7734 16.2498 20.7234C16.2498 19.6734 16.6123 18.7859 17.3373 18.0609C18.0623 17.3359 18.9498 16.9734 19.9998 16.9734C21.0498 16.9734 21.9373 17.3359 22.6623 18.0609C23.3873 18.7859 23.7498 19.6734 23.7498 20.7234C23.7498 21.7734 23.3873 22.6609 22.6623 23.3859C21.9373 24.1109 21.0498 24.4734 19.9998 24.4734V24.4734ZM19.9998 22.9734C20.6331 22.9734 21.1665 22.7568 21.5998 22.3234C22.0331 21.8901 22.2498 21.3568 22.2498 20.7234C22.2498 20.0901 22.0331 19.5568 21.5998 19.1234C21.1665 18.6901 20.6331 18.4734 19.9998 18.4734C19.3665 18.4734 18.8331 18.6901 18.3998 19.1234C17.9665 19.5568 17.7498 20.0901 17.7498 20.7234C17.7498 21.3568 17.9665 21.8901 18.3998 22.3234C18.8331 22.7568 19.3665 22.9734 19.9998 22.9734Z" fill="white"/>
</svg>
