<svg width="22" height="21" viewBox="0 0 22 21" fill="none" xmlns="http://www.w3.org/2000/svg">
    <path d="M6.42064 18.0211L10.9998 15.2794L15.579 18.0503L14.354 12.8586L18.379 9.35859L13.0706 8.89193L10.9998 3.99193L8.92897 8.86276L3.62064 9.32943L7.64564 12.8294L6.42064 18.0211ZM10.9998 17.3211L5.5748 20.5878C5.41925 20.685 5.25397 20.7287 5.07897 20.719C4.90397 20.7093 4.74842 20.6558 4.6123 20.5586C4.47619 20.4614 4.37411 20.335 4.30605 20.1794C4.238 20.0239 4.22342 19.8489 4.2623 19.6544L5.69147 13.4711L0.908138 9.30026C0.752582 9.16415 0.660221 9.01345 0.631055 8.84818C0.601888 8.6829 0.606749 8.52248 0.645638 8.36693C0.684527 8.21137 0.772027 8.08012 0.908138 7.97318C1.04425 7.86623 1.20953 7.80304 1.40397 7.78359L7.73314 7.22943L10.1831 1.39609C10.2609 1.22109 10.3776 1.08984 10.5331 1.00234C10.6887 0.914843 10.8442 0.871094 10.9998 0.871094C11.1554 0.871094 11.3109 0.914843 11.4665 1.00234C11.622 1.08984 11.7387 1.22109 11.8165 1.39609L14.2665 7.22943L20.5956 7.78359C20.7901 7.80304 20.9554 7.86623 21.0915 7.97318C21.2276 8.08012 21.3151 8.21137 21.354 8.36693C21.3929 8.52248 21.3977 8.6829 21.3686 8.84818C21.3394 9.01345 21.247 9.16415 21.0915 9.30026L16.3081 13.4711L17.7373 19.6544C17.7762 19.8489 17.7616 20.0239 17.6936 20.1794C17.6255 20.335 17.5234 20.4614 17.3873 20.5586C17.2512 20.6558 17.0956 20.7093 16.9206 20.719C16.7456 20.7287 16.5804 20.685 16.4248 20.5878L10.9998 17.3211Z" fill="#737373"/>
</svg>
