<svg width="80" height="80" viewBox="0 0 80 80" fill="none" xmlns="http://www.w3.org/2000/svg">
<g clip-path="url(#clip0_519_1997)">
<path d="M19.7919 35.5295L61.2273 10.1362C61.4163 10.0173 61.6416 9.96972 61.8625 10.0021C62.0834 10.0345 62.2855 10.1446 62.4324 10.3127C62.5794 10.4809 62.6615 10.6959 62.664 10.9192C62.6665 11.1425 62.5892 11.3593 62.446 11.5306L45.3375 34.428L60.2196 42.8182L59.7743 43.6384L60.243 42.8182C60.3879 42.9023 60.5075 43.0238 60.5895 43.1699C60.6715 43.3159 60.7129 43.4813 60.7093 43.6488C60.7057 43.8163 60.6573 43.9798 60.5691 44.1222C60.4809 44.2646 60.3562 44.3808 60.2079 44.4587L18.7724 69.852C18.5845 69.9642 18.3633 70.007 18.1471 69.9732C17.9309 69.9394 17.7333 69.831 17.5887 69.6669C17.444 69.5027 17.3613 69.2931 17.3549 69.0744C17.3485 68.8557 17.4188 68.6416 17.5537 68.4693L34.6622 45.5719L19.7684 37.1817L20.2254 36.3615L19.7567 37.1817C19.6119 37.0976 19.4922 36.9761 19.4102 36.83C19.3282 36.684 19.2869 36.5186 19.2905 36.3511C19.294 36.1836 19.3424 36.0201 19.4306 35.8777C19.5188 35.7353 19.6436 35.6191 19.7919 35.5412V35.5295ZM58.0517 14.2961L22.0769 36.3263L36.4668 44.4353C36.5912 44.4957 36.7006 44.5829 36.7873 44.6906C36.874 44.7983 36.9358 44.9238 36.9683 45.0582C37.0008 45.1926 37.0032 45.3325 36.9752 45.468C36.9473 45.6034 36.8897 45.7309 36.8067 45.8415L21.948 65.7155L57.9228 43.6619L43.5329 35.5529C43.4085 35.4925 43.2991 35.4053 43.2124 35.2976C43.1257 35.1899 43.0639 35.0643 43.0314 34.9299C42.9989 34.7955 42.9966 34.6556 43.0245 34.5202C43.0525 34.3848 43.11 34.2573 43.1931 34.1467L58.0517 14.2961Z" fill="#151515"/>
</g>
<defs>
<clipPath id="clip0_519_1997">
<rect width="80" height="80" fill="white"/>
</clipPath>
</defs>
</svg>
