<svg width="20" height="24" viewBox="0 0 20 24" fill="none" xmlns="http://www.w3.org/2000/svg">
    <path d="M8.80449 13.3709L6.50033 11.0667C6.32533 10.8917 6.11144 10.8042 5.85866 10.8042C5.60588 10.8042 5.39199 10.8917 5.21699 11.0667C5.04199 11.2417 4.95449 11.4556 4.95449 11.7084C4.95449 11.9612 5.04199 12.1751 5.21699 12.3501L8.10449 15.2376C8.27949 15.4126 8.48852 15.5001 8.73158 15.5001C8.97463 15.5001 9.18366 15.4126 9.35866 15.2376L14.7545 9.84173C14.91 9.68618 14.9878 9.48201 14.9878 9.22923C14.9878 8.97645 14.91 8.77229 14.7545 8.61673C14.5989 8.46118 14.3996 8.3834 14.1566 8.3834C13.9135 8.3834 13.7142 8.46118 13.5587 8.61673L8.80449 13.3709ZM10.0003 23.5792C9.92255 23.5792 9.84963 23.5744 9.78158 23.5646C9.71352 23.5549 9.65032 23.5403 9.59199 23.5209C6.98644 22.7431 4.84755 21.1438 3.17533 18.723C1.5031 16.3021 0.666992 13.6431 0.666992 10.7459V5.02923C0.666992 4.65979 0.773937 4.32437 0.987826 4.02298C1.20171 3.72159 1.47394 3.50284 1.80449 3.36673L9.38783 0.537565C9.60171 0.459787 9.80588 0.420898 10.0003 0.420898C10.1948 0.420898 10.3989 0.459787 10.6128 0.537565L18.1962 3.36673C18.5267 3.50284 18.7989 3.72159 19.0128 4.02298C19.2267 4.32437 19.3337 4.65979 19.3337 5.02923V10.7459C19.3337 13.6431 18.4975 16.3021 16.8253 18.723C15.1531 21.1438 13.0142 22.7431 10.4087 23.5209L10.0003 23.5792ZM10.0003 21.8292C12.2364 21.0903 14.0594 19.6952 15.4691 17.6438C16.8788 15.5924 17.5837 13.2931 17.5837 10.7459V5.02923L10.0003 2.1709L2.41699 5.02923V10.7459C2.41699 13.2931 3.12185 15.5924 4.53158 17.6438C5.9413 19.6952 7.76421 21.0903 10.0003 21.8292Z" fill="#737373"/>
</svg>
