<svg width="22" height="22" viewBox="0 0 22 22" fill="none" xmlns="http://www.w3.org/2000/svg">
    <path d="M2.25 10.125C1.76389 10.125 1.35069 9.95486 1.01042 9.61458C0.670139 9.27431 0.5 8.86111 0.5 8.375V2.25C0.5 1.76389 0.670139 1.35069 1.01042 1.01042C1.35069 0.670139 1.76389 0.5 2.25 0.5H8.375C8.86111 0.5 9.27431 0.670139 9.61458 1.01042C9.95486 1.35069 10.125 1.76389 10.125 2.25V8.375C10.125 8.86111 9.95486 9.27431 9.61458 9.61458C9.27431 9.95486 8.86111 10.125 8.375 10.125H2.25ZM2.25 21.5C1.76389 21.5 1.35069 21.3299 1.01042 20.9896C0.670139 20.6493 0.5 20.2361 0.5 19.75V13.625C0.5 13.1389 0.670139 12.7257 1.01042 12.3854C1.35069 12.0451 1.76389 11.875 2.25 11.875H8.375C8.86111 11.875 9.27431 12.0451 9.61458 12.3854C9.95486 12.7257 10.125 13.1389 10.125 13.625V19.75C10.125 20.2361 9.95486 20.6493 9.61458 20.9896C9.27431 21.3299 8.86111 21.5 8.375 21.5H2.25ZM13.625 10.125C13.1389 10.125 12.7257 9.95486 12.3854 9.61458C12.0451 9.27431 11.875 8.86111 11.875 8.375V2.25C11.875 1.76389 12.0451 1.35069 12.3854 1.01042C12.7257 0.670139 13.1389 0.5 13.625 0.5H19.75C20.2361 0.5 20.6493 0.670139 20.9896 1.01042C21.3299 1.35069 21.5 1.76389 21.5 2.25V8.375C21.5 8.86111 21.3299 9.27431 20.9896 9.61458C20.6493 9.95486 20.2361 10.125 19.75 10.125H13.625ZM13.625 21.5C13.1389 21.5 12.7257 21.3299 12.3854 20.9896C12.0451 20.6493 11.875 20.2361 11.875 19.75V13.625C11.875 13.1389 12.0451 12.7257 12.3854 12.3854C12.7257 12.0451 13.1389 11.875 13.625 11.875H19.75C20.2361 11.875 20.6493 12.0451 20.9896 12.3854C21.3299 12.7257 21.5 13.1389 21.5 13.625V19.75C21.5 20.2361 21.3299 20.6493 20.9896 20.9896C20.6493 21.3299 20.2361 21.5 19.75 21.5H13.625ZM2.25 8.375H8.375V2.25H2.25V8.375ZM13.625 8.375H19.75V2.25H13.625V8.375ZM13.625 19.75H19.75V13.625H13.625V19.75ZM2.25 19.75H8.375V13.625H2.25V19.75Z" fill="#737373"/>
</svg>
