<svg width="22" height="22" viewBox="0 0 22 22" fill="none" xmlns="http://www.w3.org/2000/svg">
    <path d="M19.575 20.829L12.5458 13.7999C11.9625 14.3054 11.2819 14.6992 10.5042 14.9811C9.72639 15.2631 8.9 15.404 8.025 15.404C5.925 15.404 4.14583 14.6749 2.6875 13.2165C1.22917 11.7582 0.5 9.99848 0.5 7.93737C0.5 5.87626 1.22917 4.11654 2.6875 2.6582C4.14583 1.19987 5.91528 0.470703 7.99583 0.470703C10.0569 0.470703 11.8118 1.19987 13.2604 2.6582C14.709 4.11654 15.4333 5.87626 15.4333 7.93737C15.4333 8.77348 15.2972 9.58043 15.025 10.3582C14.7528 11.136 14.3444 11.8651 13.8 12.5457L20.8875 19.5749C21.0625 19.7304 21.15 19.9297 21.15 20.1728C21.15 20.4158 21.0528 20.6346 20.8583 20.829C20.6833 21.004 20.4694 21.0915 20.2167 21.0915C19.9639 21.0915 19.75 21.004 19.575 20.829ZM7.99583 13.654C9.57083 13.654 10.9125 13.095 12.0208 11.977C13.1292 10.8589 13.6833 9.51237 13.6833 7.93737C13.6833 6.36237 13.1292 5.01584 12.0208 3.89779C10.9125 2.77973 9.57083 2.2207 7.99583 2.2207C6.40139 2.2207 5.04514 2.77973 3.92708 3.89779C2.80903 5.01584 2.25 6.36237 2.25 7.93737C2.25 9.51237 2.80903 10.8589 3.92708 11.977C5.04514 13.095 6.40139 13.654 7.99583 13.654Z" fill="#737373"/>
</svg>
