<svg width="22" height="22" viewBox="0 0 22 22" fill="none" xmlns="http://www.w3.org/2000/svg">
    <path d="M11.9333 10.5917L15.2875 13.8875C15.4625 14.0625 15.55 14.2715 15.55 14.5146C15.55 14.7576 15.4625 14.9667 15.2875 15.1417C15.1125 15.3167 14.9083 15.4042 14.675 15.4042C14.4416 15.4042 14.2375 15.3167 14.0625 15.1417L10.4458 11.5833C10.3486 11.4861 10.2805 11.384 10.2416 11.2771C10.2028 11.1701 10.1833 11.0583 10.1833 10.9417V5.95417C10.1833 5.70139 10.2659 5.49236 10.4312 5.32708C10.5965 5.16181 10.8055 5.07917 11.0583 5.07917C11.3111 5.07917 11.5201 5.16181 11.6854 5.32708C11.8507 5.49236 11.9333 5.70139 11.9333 5.95417V10.5917ZM10.9125 21.5C8.19025 21.5 5.88123 20.625 3.98539 18.875C2.08956 17.125 0.95692 14.9375 0.587476 12.3125C0.548587 12.0403 0.602059 11.8069 0.747893 11.6125C0.893726 11.4181 1.10275 11.3111 1.37498 11.2917C1.60831 11.2722 1.81248 11.3451 1.98748 11.5104C2.16248 11.6757 2.26942 11.875 2.30831 12.1083C2.63886 14.2861 3.59164 16.1042 5.16664 17.5625C6.74164 19.0208 8.65692 19.75 10.9125 19.75C13.3819 19.75 15.4722 18.8847 17.1833 17.1542C18.8944 15.4236 19.75 13.3236 19.75 10.8542C19.75 8.44306 18.8847 6.40625 17.1541 4.74375C15.4236 3.08125 13.343 2.25 10.9125 2.25C9.59025 2.25 8.35067 2.55139 7.19373 3.15417C6.03678 3.75694 5.03053 4.55417 4.17498 5.54583H6.36248C6.61525 5.54583 6.82428 5.62847 6.98956 5.79375C7.15484 5.95903 7.23748 6.16806 7.23748 6.42083C7.23748 6.67361 7.15484 6.88264 6.98956 7.04792C6.82428 7.21319 6.61525 7.29583 6.36248 7.29583H2.01664C1.76386 7.29583 1.55484 7.21319 1.38956 7.04792C1.22428 6.88264 1.14164 6.67361 1.14164 6.42083V2.10417C1.14164 1.85139 1.22428 1.64236 1.38956 1.47708C1.55484 1.31181 1.76386 1.22917 2.01664 1.22917C2.26942 1.22917 2.47845 1.31181 2.64373 1.47708C2.809 1.64236 2.89164 1.85139 2.89164 2.10417V4.32083C3.90275 3.13472 5.10345 2.20139 6.49373 1.52083C7.884 0.840278 9.35692 0.5 10.9125 0.5C12.3708 0.5 13.7416 0.772222 15.025 1.31667C16.3083 1.86111 17.4312 2.60486 18.3937 3.54792C19.3562 4.49097 20.1146 5.59444 20.6687 6.85833C21.2229 8.12222 21.5 9.48333 21.5 10.9417C21.5 12.4 21.2229 13.7708 20.6687 15.0542C20.1146 16.3375 19.3562 17.4556 18.3937 18.4083C17.4312 19.3611 16.3083 20.1146 15.025 20.6687C13.7416 21.2229 12.3708 21.5 10.9125 21.5Z" fill="#737373"/>
</svg>
