<svg width="40" height="41" viewBox="0 0 40 41" fill="none" xmlns="http://www.w3.org/2000/svg">
    <rect y="0.552734" width="40" height="40" rx="10" fill="#2876F8"/>
    <path d="M16.0753 27.4285L20.0003 25.0785L23.9253 27.4535L22.8753 23.0035L26.3253 20.0035L21.7753 19.6035L20.0003 15.4035L18.2253 19.5785L13.6753 19.9785L17.1253 22.9785L16.0753 27.4285ZM20.0003 26.8285L15.3503 29.6285C15.2169 29.7119 15.0753 29.7493 14.9253 29.741C14.7753 29.7327 14.6419 29.6868 14.5253 29.6035C14.4086 29.5202 14.3211 29.4118 14.2628 29.2785C14.2044 29.1452 14.1919 28.9952 14.2253 28.8285L15.4503 23.5285L11.3503 19.9535C11.2169 19.8368 11.1378 19.7077 11.1128 19.566C11.0878 19.4243 11.0919 19.2868 11.1253 19.1535C11.1586 19.0202 11.2336 18.9077 11.3503 18.816C11.4669 18.7243 11.6086 18.6702 11.7753 18.6535L17.2003 18.1785L19.3003 13.1785C19.3669 13.0285 19.4669 12.916 19.6003 12.841C19.7336 12.766 19.8669 12.7285 20.0003 12.7285C20.1336 12.7285 20.2669 12.766 20.4003 12.841C20.5336 12.916 20.6336 13.0285 20.7003 13.1785L22.8003 18.1785L28.2253 18.6535C28.3919 18.6702 28.5336 18.7243 28.6503 18.816C28.7669 18.9077 28.8419 19.0202 28.8753 19.1535C28.9086 19.2868 28.9128 19.4243 28.8878 19.566C28.8628 19.7077 28.7836 19.8368 28.6503 19.9535L24.5503 23.5285L25.7753 28.8285C25.8086 28.9952 25.7961 29.1452 25.7378 29.2785C25.6794 29.4118 25.5919 29.5202 25.4753 29.6035C25.3586 29.6868 25.2253 29.7327 25.0753 29.741C24.9253 29.7493 24.7836 29.7119 24.6503 29.6285L20.0003 26.8285Z" fill="white"/>
</svg>
