<svg width="24" height="21" viewBox="0 0 24 21" fill="none" xmlns="http://www.w3.org/2000/svg">
    <path d="M7.59614 20.009C16.4241 20.009 21.2518 12.6927 21.2518 6.3482C21.2518 6.14042 21.2476 5.93359 21.2382 5.72761C22.1776 5.04766 22.9883 4.20576 23.6323 3.24139C22.7723 3.62386 21.8469 3.88127 20.8761 3.99734C21.867 3.40295 22.6277 2.46262 22.9867 1.34175C22.0445 1.90085 21.0138 2.29499 19.939 2.50717C19.0632 1.57392 17.8163 0.990234 16.4357 0.990234C13.7852 0.990234 11.6359 3.1404 11.6359 5.7908C11.6359 6.16761 11.6781 6.53401 11.7604 6.88557C7.77149 6.68478 4.23438 4.77425 1.86717 1.86919C1.44081 2.6019 1.21655 3.43465 1.2173 4.28238C1.2173 5.94814 2.06458 7.41862 3.3531 8.27893C2.59093 8.25565 1.84548 8.0497 1.17945 7.67842C1.17874 7.69858 1.17874 7.71821 1.17874 7.73975C1.17874 10.0649 2.83308 12.0063 5.02918 12.4462C4.61672 12.5586 4.19111 12.6154 3.76362 12.6152C3.4549 12.6152 3.15402 12.5848 2.86161 12.5286C3.47264 14.4363 5.24442 15.8245 7.34509 15.8633C5.70239 17.1513 3.63311 17.9185 1.38409 17.9185C1.00151 17.9188 0.619232 17.8966 0.239258 17.852C2.36337 19.214 4.88554 20.0087 7.59637 20.0087" fill="#4D4D4D"/>
</svg>
