<svg width="80" height="80" viewBox="0 0 80 80" fill="none" xmlns="http://www.w3.org/2000/svg">
<path d="M22.167 31.1667H50.2503V24.0833C50.2503 21.25 49.2503 18.8333 47.2503 16.8333C45.2503 14.8333 42.8337 13.8333 40.0003 13.8333C37.167 13.8333 34.7503 14.8333 32.7503 16.8333C30.7503 18.8333 29.7503 21.25 29.7503 24.0833H27.917C27.917 20.6944 29.0837 17.8333 31.417 15.5C33.7503 13.1667 36.6114 12 40.0003 12C43.3892 12 46.2503 13.1667 48.5837 15.5C50.917 17.8333 52.0837 20.6944 52.0837 24.0833V31.1667H57.8337C59.0559 31.1667 60.1114 31.5972 61.0003 32.4583C61.8892 33.3194 62.3337 34.3889 62.3337 35.6667V64.5C62.3337 65.7222 61.8892 66.7778 61.0003 67.6667C60.1114 68.5555 59.0559 69 57.8337 69H22.167C20.9448 69 19.8892 68.5555 19.0003 67.6667C18.1114 66.7778 17.667 65.7222 17.667 64.5V35.6667C17.667 34.3889 18.1114 33.3194 19.0003 32.4583C19.8892 31.5972 20.9448 31.1667 22.167 31.1667ZM22.167 67.1667H57.8337C58.6114 67.1667 59.2503 66.9167 59.7503 66.4167C60.2503 65.9167 60.5003 65.2778 60.5003 64.5V35.6667C60.5003 34.8889 60.2503 34.25 59.7503 33.75C59.2503 33.25 58.6114 33 57.8337 33H22.167C21.3892 33 20.7503 33.25 20.2503 33.75C19.7503 34.25 19.5003 34.8889 19.5003 35.6667V64.5C19.5003 65.2778 19.7503 65.9167 20.2503 66.4167C20.7503 66.9167 21.3892 67.1667 22.167 67.1667Z" fill="#151515"/>
<path fill-rule="evenodd" clip-rule="evenodd" d="M43.1257 53.2077C42.2645 54.0688 41.2229 54.4993 40.0007 54.4993C38.7784 54.4993 37.7368 54.0688 36.8757 53.2077C36.0145 52.3466 35.584 51.3049 35.584 50.0827C35.584 48.916 36.0145 47.8882 36.8757 46.9993C37.7368 46.1105 38.7784 45.666 40.0007 45.666C41.2229 45.666 42.2645 46.1105 43.1257 46.9993C43.9868 47.8882 44.4173 48.916 44.4173 50.0827C44.4173 51.3049 43.9868 52.3466 43.1257 53.2077ZM41.8277 51.9087C41.3243 52.4121 40.7154 52.6637 40.001 52.6637C39.2865 52.6637 38.6777 52.4121 38.1743 51.9087C37.6709 51.4054 37.4193 50.7965 37.4193 50.082C37.4193 49.4001 37.6709 48.7993 38.1743 48.2797C38.6777 47.7601 39.2865 47.5003 40.001 47.5003C40.7154 47.5003 41.3243 47.7601 41.8277 48.2797C42.331 48.7993 42.5827 49.4001 42.5827 50.082C42.5827 50.7965 42.331 51.4054 41.8277 51.9087Z" fill="#151515"/>
</svg>
