<svg width="95" height="40" viewBox="0 0 95 40" fill="none" xmlns="http://www.w3.org/2000/svg">
<path d="M34.1413 33.4945C37.7606 29.9657 39.9991 25.0907 39.9991 19.706C39.9991 16.4499 39.1806 13.3803 37.7333 10.682C37.5298 10.3026 37.0087 10.2374 36.6996 10.5415L35.8585 11.3693C34.3067 12.8962 33.9748 15.1881 34.3448 17.3071C34.481 18.0869 34.552 18.8884 34.552 19.706C34.552 23.6242 32.9231 27.1714 30.2896 29.7391C27.656 32.3069 24.0177 33.8951 19.999 33.8951C17.7548 33.8951 15.6292 33.3998 13.731 32.5152C11.2636 31.3654 8.14095 31.2677 6.20716 33.1531C6.01378 33.3417 6.01336 33.6479 6.21144 33.8317C9.79933 37.1618 14.6544 39.206 19.9991 39.206C25.522 39.206 30.522 37.0233 34.1413 33.4945Z" fill="url(#paint0_linear_269_241)"/>
<path d="M19.9999 5.51692C15.9812 5.51692 12.343 7.10505 9.70947 9.67273C7.07586 12.2405 5.44694 15.7878 5.44694 19.706C5.44694 21.131 5.66237 22.5069 6.06322 23.8044C6.86772 26.4086 6.71798 29.4388 4.70559 31.3223C4.46734 31.5453 4.08316 31.5194 3.88728 31.2602C1.44389 28.0264 0 24.0306 0 19.706C0 14.3212 2.23858 9.44621 5.85786 5.91741C9.47715 2.3886 14.4771 0.205994 20 0.205994C24.5408 0.205994 28.7282 1.68143 32.0853 4.16742L28.1838 7.97142C25.8519 6.42243 23.0343 5.51692 19.9999 5.51692Z" fill="url(#paint1_linear_269_241)"/>
<path d="M17.2773 19.706C17.2773 18.9728 17.5822 18.309 18.075 17.8284L32.0863 4.16753C32.8124 4.70516 33.4996 5.29006 34.1431 5.91752C35.2498 6.99655 35.1129 8.72707 34.0062 9.8061L21.9266 21.5837C21.4337 22.0642 20.7528 22.3614 20.0008 22.3614C19.2487 22.3614 18.5679 22.0642 18.075 21.5837C17.5822 21.1031 17.2773 20.4393 17.2773 19.706Z" fill="url(#paint2_linear_269_241)"/>
<path d="M12.1141 12.0174C10.0959 13.9851 8.84766 16.7035 8.84766 19.7061C8.84766 22.7088 10.0959 25.4272 12.1141 27.3949C14.1323 29.3626 16.9203 30.5796 20 30.5796C23.0796 30.5796 25.8677 29.3626 27.8858 27.3949C29.904 25.4272 31.1523 22.7088 31.1523 19.7061C31.1523 18.504 30.9522 17.3474 30.5827 16.2663C30.435 15.8341 29.8783 15.7263 29.5442 16.0449L26.7077 18.7502C26.0666 19.3616 25.7526 20.2118 25.5351 21.0601C25.2806 22.0523 24.7529 22.939 24.0343 23.6396C23.0018 24.6464 21.5753 25.2692 19.9997 25.2692C18.4242 25.2692 16.9978 24.6465 15.9653 23.6399C14.9328 22.6332 14.2942 21.2425 14.2942 19.7063C14.2942 18.17 14.9329 16.7792 15.9655 15.7725C16.998 14.766 18.4243 14.1434 19.9997 14.1434C20.5627 14.1434 21.1067 14.2229 21.6204 14.371L25.7227 10.3714C24.0496 9.39431 22.0921 8.83264 20 8.83264C16.9203 8.83264 14.1323 10.0497 12.1141 12.0174Z" fill="url(#paint3_linear_269_241)"/>
<path d="M61.0916 13.8215C62.276 13.8215 63.1076 12.9861 63.1076 11.905C63.1076 10.8976 62.2508 10.136 61.0916 10.136C59.9324 10.136 59.0756 10.9468 59.0756 11.9787C59.0756 13.0106 59.9324 13.8215 61.0916 13.8215ZM50.2176 15.2465V15.9836H48V18.5389H50.2176V29.104H53.3676V18.5389H59.5712V15.9836H53.2668V15.2957C53.2668 13.8952 53.9472 13.1826 55.2576 13.1826C55.9128 13.1826 56.5176 13.4038 56.9964 13.7232L57.8784 11.4136C57.1728 10.9222 56.1144 10.7011 55.0308 10.7011C51.906 10.7011 50.2176 12.4947 50.2176 15.2465ZM59.504 29.104H62.654V15.9836H59.504V29.104Z" fill="white"/>
<path d="M72.8955 15.8362C70.9299 15.8362 69.2919 16.475 68.2587 17.679V15.9836H65.2599V29.104H68.4099V22.4701C68.4099 19.8411 69.9219 18.5143 72.1647 18.5143C74.1807 18.5143 75.3651 19.6446 75.3651 21.9787V29.104H78.5151V21.5856C78.5151 17.6298 76.1211 15.8362 72.8955 15.8362Z" fill="white"/>
<path d="M91.5298 10.8731V17.6052C90.4714 16.4013 88.9342 15.8362 87.1953 15.8362C83.2893 15.8362 80.3913 18.4652 80.3913 22.5438C80.3913 26.6224 83.2893 29.276 87.1953 29.276C89.035 29.276 90.5974 28.6618 91.6558 27.4087V29.104H94.6798V10.8731H91.5298ZM87.5733 26.647C85.3053 26.647 83.5665 25.05 83.5665 22.5438C83.5665 20.0377 85.3053 18.4406 87.5733 18.4406C89.8414 18.4406 91.5802 20.0377 91.5802 22.5438C91.5802 25.05 89.8414 26.647 87.5733 26.647Z" fill="white"/>
<defs>
<linearGradient id="paint0_linear_269_241" x1="37.6613" y1="10.3496" x2="6.69462" y2="35.9062" gradientUnits="userSpaceOnUse">
<stop stop-color="#2876F8" stop-opacity="0.15"/>
<stop offset="0.88952" stop-color="#00CDAE"/>
</linearGradient>
<linearGradient id="paint1_linear_269_241" x1="32.0853" y1="3.8938" x2="5.20579" y2="32.419" gradientUnits="userSpaceOnUse">
<stop offset="0.151215" stop-color="#2876F8"/>
<stop offset="1" stop-color="#00CDAE" stop-opacity="0.15"/>
</linearGradient>
<linearGradient id="paint2_linear_269_241" x1="33.8414" y1="5.92822" x2="18.2836" y2="22.2357" gradientUnits="userSpaceOnUse">
<stop offset="0.133065" stop-color="#2876F8"/>
<stop offset="0.512706" stop-color="#2284ED"/>
<stop offset="1" stop-color="#13A5D1"/>
</linearGradient>
<linearGradient id="paint3_linear_269_241" x1="20" y1="8.83264" x2="20" y2="30.5796" gradientUnits="userSpaceOnUse">
<stop stop-color="#2876F8"/>
<stop offset="1" stop-color="#00CDAE"/>
<stop offset="1" stop-color="#00CDAE"/>
</linearGradient>
</defs>
</svg>
