<svg width="96" height="40" viewBox="0 0 96 40" fill="none" xmlns="http://www.w3.org/2000/svg">
    <path d="M34.9294 34.1417C38.5487 30.5224 40.7873 25.5224 40.7873 19.9996C40.7873 16.66 39.9688 13.5117 38.5215 10.7442C38.318 10.3551 37.7968 10.2882 37.4878 10.6001L36.6466 11.4491C35.0948 13.0152 34.7629 15.3658 35.133 17.5392C35.2692 18.339 35.3401 19.161 35.3401 19.9996C35.3401 24.0182 33.7112 27.6565 31.0777 30.29C28.4441 32.9236 24.8059 34.5526 20.7871 34.5526C18.5429 34.5526 16.4173 34.0446 14.5191 33.1373C12.0517 31.958 8.92904 31.8578 6.99525 33.7916C6.80187 33.9849 6.80145 34.299 6.99953 34.4875C10.5874 37.9031 15.4425 39.9996 20.7873 39.9996C26.3101 39.9996 31.3101 37.761 34.9294 34.1417Z" fill="url(#paint0_linear_639_4057)"/>
    <path d="M20.787 5.44711C16.7684 5.44711 13.1302 7.07597 10.4966 9.70949C7.86298 12.3431 6.23406 15.9813 6.23406 20.0001C6.23406 21.4616 6.44949 22.8727 6.85034 24.2036C7.65484 26.8746 7.5051 29.9824 5.49271 31.9142C5.25445 32.1429 4.87028 32.1164 4.67439 31.8505C2.231 28.5338 0.787109 24.4355 0.787109 20C0.787109 14.4772 3.02569 9.47716 6.64498 5.85787C10.2643 2.23858 15.2643 0 20.7871 0C25.328 0 29.5153 1.51327 32.8725 4.06301L28.9709 7.96455C26.639 6.37584 23.8215 5.44711 20.787 5.44711Z" fill="url(#paint1_linear_639_4057)"/>
    <path d="M18.0635 20.0004C18.0635 19.2484 18.3683 18.5675 18.8612 18.0747L32.8725 4.06348C33.5985 4.6149 34.2857 5.21479 34.9293 5.85834C36.036 6.96504 35.8991 8.73994 34.7924 9.84664L22.7127 21.9262C22.2198 22.4191 21.539 22.7239 20.7869 22.7239C20.0349 22.7239 19.354 22.4191 18.8612 21.9262C18.3683 21.4334 18.0635 20.7525 18.0635 20.0004Z" fill="white"/>
    <path d="M12.9012 12.1141C10.883 14.1323 9.63477 16.9204 9.63477 20C9.63477 23.0796 10.883 25.8677 12.9012 27.8859C14.9194 29.904 17.7075 31.1523 20.7871 31.1523C23.8667 31.1523 26.6548 29.904 28.673 27.8859C30.6911 25.8677 31.9394 23.0796 31.9394 20C31.9394 18.767 31.7393 17.5808 31.3699 16.472C31.2221 16.0286 30.6654 15.9181 30.3314 16.2449L27.4948 19.0195C26.8537 19.6466 26.5397 20.5186 26.3222 21.3886C26.0677 22.4063 25.54 23.3157 24.8214 24.0343C23.7889 25.0669 22.3625 25.7056 20.7868 25.7056C19.2113 25.7056 17.785 25.0671 16.7525 24.0346C15.7199 23.0021 15.0813 21.5757 15.0813 20.0001C15.0813 18.4245 15.72 16.998 16.7526 15.9655C17.7851 14.9331 19.2114 14.2946 20.7868 14.2946C21.3498 14.2946 21.8938 14.3761 22.4076 14.5281L26.5098 10.4259C24.8368 9.42373 22.8792 8.84766 20.7871 8.84766C17.7075 8.84766 14.9194 10.0959 12.9012 12.1141Z" fill="white"/>
    <path d="M61.8787 13.9646C63.0631 13.9646 63.8947 13.1078 63.8947 11.999C63.8947 10.9658 63.0379 10.1846 61.8787 10.1846C60.7195 10.1846 59.8627 11.0162 59.8627 12.0746C59.8627 13.133 60.7195 13.9646 61.8787 13.9646ZM51.0047 15.4262V16.1822H48.7871V18.803H51.0047V29.639H54.1547V18.803H60.3583V16.1822H54.0539V15.4766C54.0539 14.0402 54.7343 13.3094 56.0447 13.3094C56.6999 13.3094 57.3047 13.5362 57.7835 13.8638L58.6655 11.495C57.9599 10.991 56.9015 10.7642 55.8179 10.7642C52.6931 10.7642 51.0047 12.6038 51.0047 15.4262ZM60.2911 29.639H63.4411V16.1822H60.2911V29.639Z" fill="white"/>
    <path d="M73.6827 16.031C71.7171 16.031 70.0791 16.6862 69.0458 17.921V16.1822H66.047V29.639H69.197V22.835C69.197 20.1386 70.7091 18.7778 72.9519 18.7778C74.9679 18.7778 76.1523 19.937 76.1523 22.331V29.639H79.3023V21.9278C79.3023 17.8706 76.9083 16.031 73.6827 16.031Z" fill="white"/>
    <path d="M92.3169 10.9406V17.8454C91.2585 16.6106 89.7213 16.031 87.9825 16.031C84.0765 16.031 81.1785 18.7274 81.1785 22.9106C81.1785 27.0938 84.0765 29.8154 87.9825 29.8154C89.8221 29.8154 91.3845 29.1854 92.4429 27.9002V29.639H95.4669V10.9406H92.3169ZM88.3605 27.119C86.0925 27.119 84.3537 25.481 84.3537 22.9106C84.3537 20.3402 86.0925 18.7022 88.3605 18.7022C90.6285 18.7022 92.3673 20.3402 92.3673 22.9106C92.3673 25.481 90.6285 27.119 88.3605 27.119Z" fill="white"/>
    <defs>
        <linearGradient id="paint0_linear_639_4057" x1="38.4494" y1="10.4033" x2="6.85059" y2="35.8296" gradientUnits="userSpaceOnUse">
            <stop stop-color="white" stop-opacity="0.15"/>
            <stop offset="0.88952" stop-color="white"/>
        </linearGradient>
        <linearGradient id="paint1_linear_639_4057" x1="32.8724" y1="3.78237" x2="5.27105" y2="32.3413" gradientUnits="userSpaceOnUse">
            <stop offset="0.151215" stop-color="white"/>
            <stop offset="1" stop-color="white" stop-opacity="0.15"/>
        </linearGradient>
    </defs>
</svg>
