<svg width="156" height="39" viewBox="0 0 156 39" fill="none" xmlns="http://www.w3.org/2000/svg">
    <path d="M34.0457 33.2894C37.5745 29.7606 39.7571 24.8856 39.7571 19.5008C39.7571 16.2448 38.9591 13.1752 37.548 10.4769C37.3496 10.0975 36.8414 10.0323 36.5401 10.3364L35.72 11.1641C34.207 12.6911 33.8834 14.983 34.2442 17.102C34.377 17.8818 34.4461 18.6833 34.4461 19.5009C34.4461 23.4191 32.858 26.9663 30.2903 29.534C27.7226 32.1018 24.1753 33.69 20.257 33.69C18.0689 33.69 15.9965 33.1947 14.1457 32.3101C11.74 31.1603 8.69543 31.0626 6.80999 32.948C6.62144 33.1366 6.62104 33.4427 6.81416 33.6266C10.3123 36.9567 15.046 39.0008 20.2572 39.0008C25.6419 39.0008 30.5169 36.8182 34.0457 33.2894Z" fill="url(#paint0_linear_573_2820)"/>
    <path d="M20.2567 5.31092C16.3385 5.31092 12.7913 6.89905 10.2236 9.46673C7.6558 12.0345 6.06759 15.5818 6.06759 19.5C6.06759 20.925 6.27764 22.3008 6.66847 23.5984C7.45286 26.2026 7.30686 29.2328 5.34478 31.1163C5.11249 31.3393 4.73792 31.3134 4.54693 31.0541C2.16463 27.8204 0.756836 23.8246 0.756836 19.5C0.756836 14.1152 2.93944 9.24021 6.46825 5.71141C9.99705 2.18261 14.872 0 20.2568 0C24.6841 0 28.7668 1.47543 32.04 3.96142L28.236 7.76542C25.9624 6.21643 23.2153 5.31092 20.2567 5.31092Z" fill="url(#paint1_linear_573_2820)"/>
    <path d="M17.6016 19.4994C17.6016 18.7662 17.8988 18.1023 18.3793 17.6218L32.0403 3.96094C32.7482 4.49857 33.4182 5.08347 34.0457 5.71093C35.1247 6.78996 34.9912 8.52047 33.9122 9.5995L22.1345 21.3771C21.654 21.8576 20.9902 22.1548 20.2569 22.1548C19.5237 22.1548 18.8598 21.8576 18.3793 21.3771C17.8988 20.8965 17.6016 20.2327 17.6016 19.4994Z" fill="url(#paint2_linear_573_2820)"/>
    <path d="M12.5676 11.8117C10.5999 13.7794 9.38281 16.4978 9.38281 19.5004C9.38281 22.5031 10.5999 25.2214 12.5676 27.1892C14.5353 29.1569 17.2537 30.3739 20.2563 30.3739C23.2589 30.3739 25.9773 29.1569 27.945 27.1892C29.9127 25.2214 31.1298 22.5031 31.1298 19.5004C31.1298 18.2983 30.9347 17.1417 30.5745 16.0606C30.4304 15.6284 29.8876 15.5206 29.5619 15.8392L26.7963 18.5445C26.1712 19.1559 25.8651 20.0061 25.653 20.8544C25.4049 21.8466 24.8904 22.7333 24.1898 23.4339C23.1831 24.4407 21.7923 25.0634 20.256 25.0634C18.7199 25.0634 17.3292 24.4408 16.3226 23.4342C15.3158 22.4275 14.6932 21.0368 14.6932 19.5006C14.6932 17.9643 15.3159 16.5735 16.3227 15.5668C17.3294 14.5603 18.72 13.9377 20.256 13.9377C20.805 13.9377 21.3354 14.0172 21.8363 14.1654L25.8359 10.1657C24.2047 9.18862 22.2961 8.62695 20.2563 8.62695C17.2537 8.62695 14.5353 9.84401 12.5676 11.8117Z" fill="url(#paint3_linear_573_2820)"/>
    <path d="M62.0621 14.3769V11.6987H49.5068V28.8977H52.7009V22.313H61.0056V19.6103H52.7009V14.3769H62.0621Z" fill="white"/>
    <path d="M65.1813 13.6152C66.3361 13.6152 67.1469 12.7798 67.1469 11.6987C67.1469 10.6914 66.3116 9.92969 65.1813 9.92969C64.0511 9.92969 63.2157 10.7405 63.2157 11.7724C63.2157 12.8044 64.0511 13.6152 65.1813 13.6152ZM63.6334 28.8977H66.7047V15.7773H63.6334V28.8977Z" fill="white"/>
    <path d="M77.1976 15.6299C75.2811 15.6299 73.6841 16.2687 72.6767 17.4727V15.7773H69.7529V28.8977H72.8241V22.2638C72.8241 19.6348 74.2983 18.3081 76.4851 18.3081C78.4507 18.3081 79.6055 19.4383 79.6055 21.7724V28.8977H82.6767V21.3793C82.6767 17.4235 80.3426 15.6299 77.1976 15.6299Z" fill="white"/>
    <path d="M95.4888 10.6668V17.399C94.4569 16.195 92.9581 15.6299 91.2628 15.6299C87.4544 15.6299 84.6289 18.2589 84.6289 22.3375C84.6289 26.4162 87.4544 29.0697 91.2628 29.0697C93.0564 29.0697 94.5797 28.4555 95.6117 27.2024V28.8977H98.5601V10.6668H95.4888ZM91.6313 26.4407C89.42 26.4407 87.7247 24.8437 87.7247 22.3375C87.7247 19.8314 89.42 18.2343 91.6313 18.2343C93.8426 18.2343 95.538 19.8314 95.538 22.3375C95.538 24.8437 93.8426 26.4407 91.6313 26.4407Z" fill="white"/>
    <path d="M101.89 28.8977H114.077V26.195H105.084V11.6987H101.89V28.8977Z" fill="white"/>
    <path d="M120.453 15.6299C118.34 15.6299 116.301 16.1705 114.9 17.2515L116.104 19.4874C117.087 18.6766 118.61 18.1852 120.084 18.1852C122.271 18.1852 123.352 19.2417 123.352 21.0353V21.2319H119.961C115.981 21.2319 114.507 22.9518 114.507 25.1385C114.507 27.4235 116.399 29.0697 119.396 29.0697C121.362 29.0697 122.787 28.4309 123.524 27.3007V28.8977H126.423V21.2073C126.423 17.4235 124.237 15.6299 120.453 15.6299ZM120.035 26.8339C118.463 26.8339 117.529 26.1213 117.529 25.0157C117.529 24.0574 118.094 23.2712 120.183 23.2712H123.352V24.7945C122.836 26.1459 121.534 26.8339 120.035 26.8339Z" fill="white"/>
    <path d="M136.655 15.6299C134.984 15.6299 133.51 16.195 132.453 17.3744V10.6668H129.382V28.8977H132.306V27.2024C133.338 28.4555 134.861 29.0697 136.655 29.0697C140.488 29.0697 143.313 26.4162 143.313 22.3375C143.313 18.2589 140.488 15.6299 136.655 15.6299ZM136.311 26.4407C134.1 26.4407 132.404 24.8437 132.404 22.3375C132.404 19.8314 134.1 18.2343 136.311 18.2343C138.522 18.2343 140.193 19.8314 140.193 22.3375C140.193 24.8437 138.522 26.4407 136.311 26.4407Z" fill="white"/>
    <path d="M149.297 29.0697C152.983 29.0697 155.243 27.4727 155.243 25.0157C155.243 19.8805 147.135 22.2393 147.135 19.5857C147.135 18.7257 148.02 18.1115 149.887 18.1115C151.14 18.1115 152.393 18.3572 153.646 19.0943L154.826 16.7601C153.646 16.0476 151.656 15.6299 149.912 15.6299C146.373 15.6299 144.138 17.2515 144.138 19.7331C144.138 24.9665 152.246 22.6078 152.246 25.1139C152.246 26.023 151.435 26.5636 149.494 26.5636C147.848 26.5636 146.079 26.023 144.924 25.2614L143.744 27.5955C144.924 28.4309 147.111 29.0697 149.297 29.0697Z" fill="white"/>
    <defs>
        <linearGradient id="paint0_linear_573_2820" x1="37.4778" y1="10.1445" x2="6.66895" y2="34.9351" gradientUnits="userSpaceOnUse">
            <stop stop-color="#2876F8" stop-opacity="0.15"/>
            <stop offset="0.88952" stop-color="#00CDAE"/>
        </linearGradient>
        <linearGradient id="paint1_linear_573_2820" x1="32.0399" y1="3.6878" x2="5.12867" y2="31.5327" gradientUnits="userSpaceOnUse">
            <stop offset="0.151215" stop-color="#2876F8"/>
            <stop offset="1" stop-color="#00CDAE" stop-opacity="0.15"/>
        </linearGradient>
        <linearGradient id="paint2_linear_573_2820" x1="33.7515" y1="5.72162" x2="18.1801" y2="21.6352" gradientUnits="userSpaceOnUse">
            <stop offset="0.133065" stop-color="#2876F8"/>
            <stop offset="0.512706" stop-color="#2284ED"/>
            <stop offset="1" stop-color="#13A5D1"/>
        </linearGradient>
        <linearGradient id="paint3_linear_573_2820" x1="20.2563" y1="8.62695" x2="20.2563" y2="30.3739" gradientUnits="userSpaceOnUse">
            <stop stop-color="#2876F8"/>
            <stop offset="1" stop-color="#00CDAE"/>
            <stop offset="1" stop-color="#00CDAE"/>
        </linearGradient>
    </defs>
</svg>
