<svg width="40" height="40" viewBox="0 0 40 40" fill="none" xmlns="http://www.w3.org/2000/svg">
<path d="M34.1421 34.1421C37.7614 30.5228 40 25.5228 40 20C40 16.6605 39.1815 13.5121 37.7342 10.7446C37.5307 10.3555 37.0095 10.2886 36.7005 10.6005L35.8593 11.4495C34.3076 13.0156 33.9756 15.3662 34.3457 17.5396C34.4819 18.3394 34.5528 19.1614 34.5528 20C34.5528 24.0187 32.924 27.6569 30.2904 30.2904C27.6569 32.924 24.0186 34.5529 19.9999 34.5529C17.7557 34.5529 15.6301 34.045 13.7319 33.1377C11.2644 31.9584 8.1418 31.8582 6.20801 33.792C6.01464 33.9853 6.01422 34.2994 6.21229 34.4879C9.80018 37.9034 14.6553 40 20 40C25.5228 40 30.5228 37.7614 34.1421 34.1421Z" fill="url(#paint0_linear_17_82)"/>
<path d="M19.9999 5.4471C15.9812 5.4471 12.343 7.07596 9.70947 9.70947C7.07586 12.343 5.44694 15.9813 5.44694 20C5.44694 21.4615 5.66237 22.8727 6.06322 24.2035C6.86772 26.8745 6.71798 29.9824 4.70559 31.9142C4.46734 32.1429 4.08316 32.1163 3.88728 31.8504C1.44389 28.5338 0 24.4355 0 20C0 14.4771 2.23858 9.47715 5.85786 5.85786C9.47715 2.23858 14.4771 0 20 0C24.5408 0 28.7282 1.51327 32.0853 4.063L28.1838 7.96454C25.8519 6.37583 23.0343 5.4471 19.9999 5.4471Z" fill="url(#paint1_linear_17_82)"/>
<path d="M17.2764 20.0001C17.2764 19.248 17.5812 18.5671 18.074 18.0743L32.0853 4.06311C32.8114 4.61453 33.4986 5.21442 34.1421 5.85797C35.2488 6.96467 35.112 8.73956 34.0052 9.84626L21.9256 21.9258C21.4327 22.4187 20.7519 22.7235 19.9998 22.7235C19.2478 22.7235 18.5669 22.4187 18.074 21.9258C17.5812 21.433 17.2764 20.7521 17.2764 20.0001Z" fill="url(#paint2_linear_17_82)"/>
<path d="M12.1138 12.1143C10.0956 14.1324 8.84738 16.9205 8.84738 20.0001C8.84738 23.0798 10.0956 25.8678 12.1138 27.886C14.132 29.9042 16.9201 31.1525 19.9997 31.1525C23.0793 31.1525 25.8674 29.9042 27.8856 27.886C29.9037 25.8678 31.152 23.0798 31.152 20.0001C31.152 18.7672 30.9519 17.5809 30.5824 16.4721C30.4347 16.0288 29.878 15.9183 29.5439 16.2451L26.7074 19.0197C26.0663 19.6468 25.7523 20.5188 25.5348 21.3888C25.2803 22.4065 24.7526 23.3159 24.034 24.0345C23.0015 25.0671 21.5751 25.7058 19.9994 25.7058C18.4239 25.7058 16.9976 25.0672 15.9651 24.0348C14.9325 23.0023 14.2939 21.5759 14.2939 20.0003C14.2939 18.4246 14.9326 16.9982 15.9652 15.9657C16.9977 14.9333 18.424 14.2948 19.9994 14.2948C20.5624 14.2948 21.1064 14.3763 21.6202 14.5283L25.7224 10.4261C24.0493 9.42391 22.0918 8.84784 19.9997 8.84784C16.9201 8.84784 14.132 10.0961 12.1138 12.1143Z" fill="url(#paint3_linear_17_82)"/>
<defs>
<linearGradient id="paint0_linear_17_82" x1="37.6622" y1="10.4037" x2="6.06336" y2="35.83" gradientUnits="userSpaceOnUse">
<stop stop-color="#2876F8" stop-opacity="0.15"/>
<stop offset="0.88952" stop-color="#00CDAE"/>
</linearGradient>
<linearGradient id="paint1_linear_17_82" x1="32.0853" y1="3.78237" x2="4.48394" y2="32.3413" gradientUnits="userSpaceOnUse">
<stop offset="0.151215" stop-color="#2876F8"/>
<stop offset="1" stop-color="#00CDAE" stop-opacity="0.15"/>
</linearGradient>
<linearGradient id="paint2_linear_17_82" x1="33.8404" y1="5.86894" x2="17.8698" y2="22.1906" gradientUnits="userSpaceOnUse">
<stop offset="0.133065" stop-color="#2876F8"/>
<stop offset="0.512706" stop-color="#2284ED"/>
<stop offset="1" stop-color="#13A5D1"/>
</linearGradient>
<linearGradient id="paint3_linear_17_82" x1="19.9997" y1="8.84784" x2="19.9997" y2="31.1525" gradientUnits="userSpaceOnUse">
<stop stop-color="#2876F8"/>
<stop offset="1" stop-color="#00CDAE"/>
<stop offset="1" stop-color="#00CDAE"/>
</linearGradient>
</defs>
</svg>
