<svg width="24" height="24" viewBox="0 0 24 24" fill="none" xmlns="http://www.w3.org/2000/svg">
    <path d="M12 22C10.5833 22 9.26667 21.7458 8.05 21.2375C6.83333 20.7292 5.775 20.025 4.875 19.125C3.975 18.225 3.27083 17.1667 2.7625 15.95C2.25417 14.7333 2 13.4167 2 12C2 10.6 2.25417 9.29167 2.7625 8.075C3.27083 6.85833 3.975 5.8 4.875 4.9C5.775 4 6.83333 3.29167 8.05 2.775C9.26667 2.25833 10.5833 2 12 2C13.25 2 14.4167 2.2 15.5 2.6C16.4751 2.96004 17.3625 3.44162 18.162 4.04472C18.3043 4.15206 18.3151 4.35986 18.1891 4.4859L17.6656 5.00944C17.4858 5.18922 17.2006 5.20404 16.9935 5.0566C16.3546 4.6018 15.6568 4.24127 14.9 3.975C14 3.65833 13.0333 3.5 12 3.5C9.58333 3.5 7.5625 4.3125 5.9375 5.9375C4.3125 7.5625 3.5 9.58333 3.5 12C3.5 14.4167 4.3125 16.4375 5.9375 18.0625C7.5625 19.6875 9.58333 20.5 12 20.5C14.4167 20.5 16.4375 19.6875 18.0625 18.0625C19.6875 16.4375 20.5 14.4167 20.5 12C20.5 11.5 20.4625 11.0125 20.3875 10.5375C20.3288 10.1656 20.2471 9.80141 20.1424 9.44486C20.089 9.26315 20.1346 9.06541 20.2685 8.93149L20.8878 8.31223C21.0376 8.16245 21.2908 8.21109 21.3658 8.40921C21.5512 8.89924 21.6959 9.4045 21.8 9.925C21.9333 10.5917 22 11.2833 22 12C22 13.4167 21.7417 14.7333 21.225 15.95C20.7083 17.1667 20 18.225 19.1 19.125C18.2 20.025 17.1417 20.7292 15.925 21.2375C14.7083 21.7458 13.4 22 12 22ZM11.2342 15.8408C10.8429 16.2321 10.2081 16.2312 9.8179 15.8386L6.75142 12.7535C6.55716 12.5581 6.55764 12.2424 6.75249 12.0475L7.17145 11.6286C7.36671 11.4333 7.68329 11.4333 7.87855 11.6286L10.525 14.275L20.5253 4.27469C20.7191 4.08094 21.0326 4.07922 21.2285 4.27083L21.6636 4.69649C21.8626 4.8911 21.8643 5.21068 21.6675 5.40746L11.2342 15.8408Z" fill="#47495D"/>
</svg>
