<svg width="80" height="80" viewBox="0 0 80 80" fill="none" xmlns="http://www.w3.org/2000/svg">
<path d="M20.6667 59.1667C23.7222 57.1111 26.7778 55.4861 29.8333 54.2917C32.8889 53.0972 36.2778 52.5 40 52.5C43.7222 52.5 47.1111 53.0972 50.1667 54.2917C53.2222 55.4861 56.2778 57.1111 59.3333 59.1667C61.7222 56.6667 63.625 53.8056 65.0417 50.5833C66.4583 47.3611 67.1667 43.8333 67.1667 40C67.1667 32.4444 64.5278 26.0278 59.25 20.75C53.9722 15.4722 47.5556 12.8333 40 12.8333C32.4444 12.8333 26.0278 15.4722 20.75 20.75C15.4722 26.0278 12.8333 32.4444 12.8333 40C12.8333 43.8333 13.5417 47.3611 14.9583 50.5833C16.375 53.8056 18.2778 56.6667 20.6667 59.1667ZM40 40.9167C37.3333 40.9167 35.0972 40 33.2917 38.1667C31.4861 36.3333 30.5833 34.1111 30.5833 31.5C30.5833 28.8333 31.5 26.5972 33.3333 24.7917C35.1667 22.9861 37.3889 22.0833 40 22.0833C42.6667 22.0833 44.9028 23 46.7083 24.8333C48.5139 26.6667 49.4167 28.8889 49.4167 31.5C49.4167 34.1667 48.5 36.4028 46.6667 38.2083C44.8333 40.0139 42.6111 40.9167 40 40.9167ZM40 69C35.9444 69 32.1667 68.25 28.6667 66.75C25.1667 65.25 22.0972 63.1806 19.4583 60.5417C16.8194 57.9028 14.75 54.8333 13.25 51.3333C11.75 47.8333 11 44.0556 11 40C11 35.9444 11.75 32.1667 13.25 28.6667C14.75 25.1667 16.8194 22.0972 19.4583 19.4583C22.0972 16.8194 25.1667 14.75 28.6667 13.25C32.1667 11.75 35.9444 11 40 11C44.0556 11 47.8333 11.75 51.3333 13.25C54.8333 14.75 57.9028 16.8194 60.5417 19.4583C63.1806 22.0972 65.25 25.1667 66.75 28.6667C68.25 32.1667 69 35.9444 69 40C69 44.0556 68.25 47.8333 66.75 51.3333C65.25 54.8333 63.1806 57.9028 60.5417 60.5417C57.9028 63.1806 54.8333 65.25 51.3333 66.75C47.8333 68.25 44.0556 69 40 69ZM40 67.1667C43.1667 67.1667 46.3333 66.5972 49.5 65.4583C52.6667 64.3194 55.4444 62.6667 57.8333 60.5C55.4444 58.6111 52.7361 57.1111 49.7083 56C46.6806 54.8889 43.4444 54.3333 40 54.3333C36.5556 54.3333 33.3056 54.875 30.25 55.9583C27.1944 57.0417 24.5278 58.5556 22.25 60.5C24.5833 62.6667 27.3333 64.3194 30.5 65.4583C33.6667 66.5972 36.8333 67.1667 40 67.1667ZM40 39.0833C42.1667 39.0833 43.9722 38.3611 45.4167 36.9167C46.8611 35.4722 47.5833 33.6667 47.5833 31.5C47.5833 29.3333 46.8611 27.5278 45.4167 26.0833C43.9722 24.6389 42.1667 23.9167 40 23.9167C37.8333 23.9167 36.0278 24.6389 34.5833 26.0833C33.1389 27.5278 32.4167 29.3333 32.4167 31.5C32.4167 33.6667 33.1389 35.4722 34.5833 36.9167C36.0278 38.3611 37.8333 39.0833 40 39.0833Z" fill="#151515"/>
</svg>
