<svg width="80" height="80" viewBox="0 0 80 80" fill="none" xmlns="http://www.w3.org/2000/svg">
<path d="M9.33301 70.6673V59.0007H14.333V21.0007H9.33301V9.33398H20.9997V14.334H58.9997V9.33398H70.6663V21.0007H65.6663V59.0007H70.6663V70.6673H58.9997V65.6673H20.9997V70.6673H9.33301ZM20.9997 63.834H58.9997V59.0007H63.833V21.0007H58.9997V16.1673H20.9997V21.0007H16.1663V59.0007H20.9997V63.834ZM27.4997 53.6673L39.583 22.9173H40.333L52.7497 53.6673H50.333L46.4163 44.2507H33.6663L29.7497 53.6673H27.4997ZM34.333 42.2507H45.6663L40.083 28.1673H39.6663L34.333 42.2507ZM11.1663 19.1673H19.1663V11.1673H11.1663V19.1673ZM60.833 19.1673H68.833V11.1673H60.833V19.1673ZM60.833 68.834H68.833V60.834H60.833V68.834ZM11.1663 68.834H19.1663V60.834H11.1663V68.834Z" fill="#151515"/>
</svg>
