<svg width="25" height="19" viewBox="0 0 25 19" fill="none" xmlns="http://www.w3.org/2000/svg">
    <path d="M20.6791 2.09329C23.321 5.97771 24.6258 10.3592 24.138 15.4033C24.136 15.4247 24.1249 15.4443 24.1073 15.4571C22.1067 16.9262 20.1683 17.8178 18.257 18.4091C18.2422 18.4136 18.2262 18.4133 18.2115 18.4083C18.1968 18.4034 18.184 18.3939 18.1749 18.3813C17.7333 17.7669 17.3321 17.1192 16.9807 16.4391C16.9605 16.399 16.9789 16.3508 17.0204 16.335C17.6576 16.0949 18.2635 15.8072 18.8463 15.4665C18.8922 15.4396 18.8951 15.3738 18.8527 15.3422C18.729 15.2504 18.6065 15.1539 18.4892 15.0574C18.4673 15.0396 18.4378 15.0361 18.4129 15.0481C14.6294 16.7952 10.4847 16.7952 6.65644 15.0481C6.63159 15.0369 6.60205 15.0407 6.58071 15.0583C6.46374 15.1548 6.34093 15.2504 6.21841 15.3422C6.17601 15.3738 6.17952 15.4396 6.22572 15.4665C6.8085 15.8007 7.41438 16.0949 8.05067 16.3361C8.0919 16.3519 8.11149 16.399 8.09102 16.4391C7.74714 17.1201 7.34595 17.7678 6.89622 18.3822C6.87663 18.407 6.84446 18.4184 6.81405 18.4091C4.91191 17.8178 2.9735 16.9262 0.972816 15.4571C0.956148 15.4443 0.944159 15.4238 0.942405 15.4025C0.534781 11.0394 1.36553 6.6216 4.39814 2.09242C4.40545 2.08043 4.41656 2.07107 4.42943 2.06552C5.92161 1.38068 7.52023 0.876858 9.19108 0.589123C9.22149 0.584445 9.2519 0.598481 9.26769 0.625382C9.47413 0.990898 9.71011 1.45964 9.86977 1.8427C11.631 1.57368 13.4197 1.57368 15.2177 1.8427C15.3774 1.46782 15.6052 0.990898 15.8107 0.625382C15.818 0.612037 15.8294 0.601345 15.8431 0.594833C15.8569 0.588322 15.8724 0.586323 15.8873 0.589123C17.5591 0.877735 19.1577 1.38156 20.6487 2.06552C20.6618 2.07107 20.6727 2.08043 20.6791 2.09329V2.09329ZM10.7651 10.389C10.7836 9.09921 9.84316 8.03191 8.66269 8.03191C7.49187 8.03191 6.56053 9.08986 6.56053 10.389C6.56053 11.6879 7.51029 12.7459 8.66269 12.7459C9.8338 12.7459 10.7651 11.6879 10.7651 10.389V10.389ZM18.538 10.389C18.5565 9.09921 17.6161 8.03191 16.4359 8.03191C15.2648 8.03191 14.3334 9.08986 14.3334 10.389C14.3334 11.6879 15.2832 12.7459 16.4359 12.7459C17.6161 12.7459 18.538 11.6879 18.538 10.389V10.389Z" fill="#D1D1D6"/>
</svg>
