<svg width="36" height="36" viewBox="0 0 36 36" fill="none" xmlns="http://www.w3.org/2000/svg">
    <path d="M18 32.25C16.05 32.25 14.2063 31.875 12.4688 31.125C10.7312 30.375 9.21875 29.3562 7.93125 28.0687C6.64375 26.7812 5.625 25.2687 4.875 23.5312C4.125 21.7938 3.75 19.95 3.75 18C3.75 16.025 4.125 14.1688 4.875 12.4313C5.625 10.6938 6.64375 9.1875 7.93125 7.9125C9.21875 6.6375 10.7312 5.625 12.4688 4.875C14.2063 4.125 16.05 3.75 18 3.75C19.975 3.75 21.8312 4.125 23.5687 4.875C25.3062 5.625 26.8125 6.6375 28.0875 7.9125C29.3625 9.1875 30.375 10.6938 31.125 12.4313C31.875 14.1688 32.25 16.025 32.25 18C32.25 19.95 31.875 21.7938 31.125 23.5312C30.375 25.2687 29.3625 26.7812 28.0875 28.0687C26.8125 29.3562 25.3062 30.375 23.5687 31.125C21.8312 31.875 19.975 32.25 18 32.25ZM18 30.5625C21.5 30.5625 24.4688 29.3375 26.9062 26.8875C29.3438 24.4375 30.5625 21.475 30.5625 18C30.5625 14.5 29.3438 11.5312 26.9062 9.09375C24.4688 6.65625 21.5 5.4375 18 5.4375C14.525 5.4375 11.5625 6.65625 9.1125 9.09375C6.6625 11.5312 5.4375 14.5 5.4375 18C5.4375 21.475 6.6625 24.4375 9.1125 26.8875C11.5625 29.3375 14.525 30.5625 18 30.5625Z" fill="#2876F8"/>
    <path d="M17.2505 21.2266L13.2755 17.2516C12.9255 16.9016 12.8442 16.5078 13.0317 16.0703C13.2192 15.6328 13.5505 15.4141 14.0255 15.4141H22.013C22.488 15.4141 22.813 15.6328 22.988 16.0703C23.163 16.5078 23.088 16.9016 22.763 17.2516L18.788 21.2266C18.663 21.3516 18.538 21.4391 18.413 21.4891C18.288 21.5391 18.1505 21.5641 18.0005 21.5641C17.8505 21.5641 17.7192 21.5391 17.6067 21.4891C17.4942 21.4391 17.3755 21.3516 17.2505 21.2266Z" fill="#2876F8"/>
</svg>
