<svg width="24" height="25" viewBox="0 0 24 25" fill="none" xmlns="http://www.w3.org/2000/svg">
<path d="M8.9 21.4805H4.5C4.1 21.4805 3.75 21.3305 3.45 21.0305C3.15 20.7305 3 20.3805 3 19.9805V15.5805C3.73333 15.4971 4.3625 15.2096 4.8875 14.718C5.4125 14.2263 5.675 13.6221 5.675 12.9055C5.675 12.1888 5.4125 11.5846 4.8875 11.093C4.3625 10.6013 3.73333 10.3138 3 10.2305V5.83047C3 5.43047 3.15 5.08047 3.45 4.78047C3.75 4.48047 4.1 4.33047 4.5 4.33047H8.925C9.10833 3.6638 9.4375 3.10547 9.9125 2.65547C10.3875 2.20547 10.9583 1.98047 11.625 1.98047C12.2917 1.98047 12.8625 2.20547 13.3375 2.65547C13.8125 3.10547 14.1417 3.6638 14.325 4.33047H18.65C19.05 4.33047 19.4 4.48047 19.7 4.78047C20 5.08047 20.15 5.43047 20.15 5.83047V10.1555C20.8167 10.3388 21.3625 10.6846 21.7875 11.193C22.2125 11.7013 22.425 12.2888 22.425 12.9555C22.425 13.6221 22.2125 14.1805 21.7875 14.6305C21.3625 15.0805 20.8167 15.3971 20.15 15.5805V19.9805C20.15 20.3805 20 20.7305 19.7 21.0305C19.4 21.3305 19.05 21.4805 18.65 21.4805H14.25C14.1667 20.6805 13.8708 20.0346 13.3625 19.543C12.8542 19.0513 12.2583 18.8055 11.575 18.8055C10.8917 18.8055 10.2958 19.0513 9.7875 19.543C9.27917 20.0346 8.98333 20.6805 8.9 21.4805ZM4.5 19.9805H7.75C8.16667 18.9638 8.75 18.2638 9.5 17.8805C10.25 17.4971 10.9417 17.3055 11.575 17.3055C12.2083 17.3055 12.9 17.4971 13.65 17.8805C14.4 18.2638 14.9833 18.9638 15.4 19.9805H18.65V14.1055H19.775C20.1083 14.1055 20.3833 13.9971 20.6 13.7805C20.8167 13.5638 20.925 13.2888 20.925 12.9555C20.925 12.6221 20.8167 12.3471 20.6 12.1305C20.3833 11.9138 20.1083 11.8055 19.775 11.8055H18.65V5.83047H12.775V4.63047C12.775 4.29714 12.6667 4.02214 12.45 3.80547C12.2333 3.5888 11.9583 3.48047 11.625 3.48047C11.2917 3.48047 11.0167 3.5888 10.8 3.80547C10.5833 4.02214 10.475 4.29714 10.475 4.63047V5.83047H4.5V9.08047C5.3 9.38047 5.94583 9.88047 6.4375 10.5805C6.92917 11.2805 7.175 12.0555 7.175 12.9055C7.175 13.7555 6.92917 14.5305 6.4375 15.2305C5.94583 15.9305 5.3 16.4305 4.5 16.7305V19.9805Z" fill="white"/>
</svg>
