<svg width="24" height="25" viewBox="0 0 24 25" fill="none" xmlns="http://www.w3.org/2000/svg">
<path d="M11.9998 23.6734C11.7831 23.6734 11.604 23.6026 11.4623 23.4609C11.3206 23.3193 11.2498 23.1401 11.2498 22.9234V21.7984C8.96647 21.5651 7.06647 20.6901 5.5498 19.1734C4.03314 17.6568 3.15814 15.7568 2.9248 13.4734H1.7998C1.58314 13.4734 1.40397 13.4026 1.2623 13.2609C1.12064 13.1193 1.0498 12.9401 1.0498 12.7234C1.0498 12.5068 1.12064 12.3276 1.2623 12.1859C1.40397 12.0443 1.58314 11.9734 1.7998 11.9734H2.9248C3.15814 9.6901 4.03314 7.7901 5.5498 6.27344C7.06647 4.75677 8.96647 3.88177 11.2498 3.64844V2.52344C11.2498 2.30677 11.3206 2.1276 11.4623 1.98594C11.604 1.84427 11.7831 1.77344 11.9998 1.77344C12.2165 1.77344 12.3956 1.84427 12.5373 1.98594C12.679 2.1276 12.7498 2.30677 12.7498 2.52344V3.64844C15.0331 3.88177 16.9331 4.75677 18.4498 6.27344C19.9665 7.7901 20.8415 9.6901 21.0748 11.9734H22.1998C22.4165 11.9734 22.5956 12.0443 22.7373 12.1859C22.879 12.3276 22.9498 12.5068 22.9498 12.7234C22.9498 12.9401 22.879 13.1193 22.7373 13.2609C22.5956 13.4026 22.4165 13.4734 22.1998 13.4734H21.0748C20.8415 15.7568 19.9665 17.6568 18.4498 19.1734C16.9331 20.6901 15.0331 21.5651 12.7498 21.7984V22.9234C12.7498 23.1401 12.679 23.3193 12.5373 23.4609C12.3956 23.6026 12.2165 23.6734 11.9998 23.6734ZM11.9998 20.3234C14.0831 20.3234 15.8706 19.5776 17.3623 18.0859C18.854 16.5943 19.5998 14.8068 19.5998 12.7234C19.5998 10.6401 18.854 8.8526 17.3623 7.36094C15.8706 5.86927 14.0831 5.12344 11.9998 5.12344C9.91647 5.12344 8.12897 5.86927 6.6373 7.36094C5.14564 8.8526 4.3998 10.6401 4.3998 12.7234C4.3998 14.8068 5.14564 16.5943 6.6373 18.0859C8.12897 19.5776 9.91647 20.3234 11.9998 20.3234ZM11.9998 16.4734C10.9498 16.4734 10.0623 16.1109 9.3373 15.3859C8.6123 14.6609 8.2498 13.7734 8.2498 12.7234C8.2498 11.6734 8.6123 10.7859 9.3373 10.0609C10.0623 9.33594 10.9498 8.97344 11.9998 8.97344C13.0498 8.97344 13.9373 9.33594 14.6623 10.0609C15.3873 10.7859 15.7498 11.6734 15.7498 12.7234C15.7498 13.7734 15.3873 14.6609 14.6623 15.3859C13.9373 16.1109 13.0498 16.4734 11.9998 16.4734ZM11.9998 14.9734C12.6331 14.9734 13.1665 14.7568 13.5998 14.3234C14.0331 13.8901 14.2498 13.3568 14.2498 12.7234C14.2498 12.0901 14.0331 11.5568 13.5998 11.1234C13.1665 10.6901 12.6331 10.4734 11.9998 10.4734C11.3665 10.4734 10.8331 10.6901 10.3998 11.1234C9.96647 11.5568 9.7498 12.0901 9.7498 12.7234C9.7498 13.3568 9.96647 13.8901 10.3998 14.3234C10.8331 14.7568 11.3665 14.9734 11.9998 14.9734Z" fill="white"/>
</svg>
