<svg width="185" height="81" viewBox="0 0 185 81" fill="none" xmlns="http://www.w3.org/2000/svg">
    <rect x="8.98633" y="8.5" width="168" height="64" rx="16" fill="#2876F8"/>
    <path d="M50.2168 47.5V33.4082H52.4043L59.3965 43.2812H59.4844V33.4082H61.9062V47.5H59.7383L52.7363 37.6172H52.6484V47.5H50.2168ZM68.8789 47.6562C67.3034 47.6562 66.0534 47.1647 65.1289 46.1816C64.2044 45.1986 63.7422 43.8574 63.7422 42.1582C63.7422 40.4785 64.2077 39.1439 65.1387 38.1543C66.0632 37.1712 67.3099 36.6797 68.8789 36.6797C70.4544 36.6797 71.7044 37.1712 72.6289 38.1543C73.5599 39.1374 74.0254 40.472 74.0254 42.1582C74.0254 43.8574 73.5632 45.1986 72.6387 46.1816C71.7142 47.1647 70.4609 47.6562 68.8789 47.6562ZM68.8789 45.7129C69.7188 45.7129 70.3763 45.4004 70.8516 44.7754C71.3203 44.1569 71.5547 43.2878 71.5547 42.168C71.5547 41.0547 71.3171 40.1855 70.8418 39.5605C70.373 38.9355 69.7188 38.623 68.8789 38.623C68.0456 38.623 67.3945 38.9355 66.9258 39.5605C66.4505 40.1855 66.2129 41.0547 66.2129 42.168C66.2129 43.2812 66.4505 44.1504 66.9258 44.7754C67.3945 45.4004 68.0456 45.7129 68.8789 45.7129ZM78.7715 34.4434V36.8262H80.793V38.7109H78.7715V44.3359C78.7715 45.2018 79.2012 45.6348 80.0605 45.6348C80.2819 45.6348 80.5228 45.6185 80.7832 45.5859V47.4512C80.4902 47.5163 80.0638 47.5488 79.5039 47.5488C78.3711 47.5488 77.5605 47.3275 77.0723 46.8848C76.584 46.4355 76.3398 45.6966 76.3398 44.668V38.7109H74.8848V36.8262H76.3398V34.4434H78.7715ZM82.5801 36.8262H85.0117V47.5H82.5801V36.8262ZM83.791 35.4688C83.4134 35.4688 83.0911 35.3385 82.8242 35.0781C82.5573 34.8177 82.4238 34.502 82.4238 34.1309C82.4238 33.7533 82.5573 33.4342 82.8242 33.1738C83.0911 32.9199 83.4134 32.793 83.791 32.793C84.1751 32.793 84.4974 32.9199 84.7578 33.1738C85.0247 33.4342 85.1582 33.7533 85.1582 34.1309C85.1582 34.5085 85.0247 34.8242 84.7578 35.0781C84.4974 35.3385 84.1751 35.4688 83.791 35.4688ZM87.8438 38.7109H86.3887V36.8262H87.8438V35.8691C87.8438 34.8535 88.0944 34.1211 88.5957 33.6719C89.1035 33.2161 89.9303 32.9883 91.0762 32.9883C91.5189 32.9883 91.9128 33.0208 92.2578 33.0859V34.8535C92.0299 34.8014 91.7695 34.7754 91.4766 34.7754C91.0404 34.7754 90.7279 34.8698 90.5391 35.0586C90.3438 35.2474 90.2461 35.5534 90.2461 35.9766V36.8262H92.2676V38.7109H90.2754V47.5H87.8438V38.7109ZM95.1484 51.3867C94.6732 51.3867 94.3542 51.3704 94.1914 51.3379V49.4043C94.3151 49.4303 94.5365 49.4434 94.8555 49.4434C95.8516 49.4434 96.4896 48.9746 96.7695 48.0371L96.9062 47.5391L93.0879 36.8262H95.7344L98.293 45.4004H98.3418L100.891 36.8262H103.459L99.5918 47.8711C99.1361 49.1797 98.5827 50.0944 97.9316 50.6152C97.2741 51.1296 96.3464 51.3867 95.1484 51.3867ZM109.133 36.8262H111.467V38.7012H111.516C111.75 38.0827 112.141 37.5944 112.688 37.2363C113.228 36.8783 113.85 36.6992 114.553 36.6992C115.308 36.6992 115.943 36.8815 116.457 37.2461C116.978 37.6172 117.339 38.1413 117.541 38.8184H117.59C117.85 38.1673 118.28 37.6497 118.879 37.2656C119.471 36.888 120.152 36.6992 120.92 36.6992C121.968 36.6992 122.811 37.0215 123.449 37.666C124.087 38.3105 124.406 39.1667 124.406 40.2344V47.5H121.975V40.8301C121.975 40.166 121.805 39.6517 121.467 39.2871C121.128 38.929 120.646 38.75 120.021 38.75C119.41 38.75 118.911 38.9551 118.527 39.3652C118.143 39.7754 117.951 40.306 117.951 40.957V47.5H115.588V40.6934C115.588 40.0944 115.415 39.6191 115.07 39.2676C114.725 38.9225 114.257 38.75 113.664 38.75C113.052 38.75 112.548 38.9616 112.15 39.3848C111.76 39.8145 111.564 40.3581 111.564 41.0156V47.5H109.133V36.8262ZM131.008 38.5742C130.298 38.5742 129.706 38.8086 129.23 39.2773C128.755 39.7526 128.492 40.3711 128.439 41.1328H133.498C133.472 40.3646 133.231 39.7461 132.775 39.2773C132.32 38.8086 131.73 38.5742 131.008 38.5742ZM135.793 44.3262C135.637 45.3158 135.126 46.1165 134.26 46.7285C133.394 47.347 132.339 47.6562 131.096 47.6562C129.52 47.6562 128.273 47.168 127.355 46.1914C126.444 45.2148 125.988 43.8867 125.988 42.207C125.988 40.5273 126.444 39.1862 127.355 38.1836C128.26 37.181 129.478 36.6797 131.008 36.6797C132.505 36.6797 133.693 37.1549 134.572 38.1055C135.451 39.056 135.891 40.3385 135.891 41.9531V42.7539H128.42V42.9004C128.42 43.7598 128.671 44.4499 129.172 44.9707C129.673 45.498 130.331 45.7617 131.145 45.7617C131.73 45.7617 132.235 45.6315 132.658 45.3711C133.081 45.1172 133.365 44.7689 133.508 44.3262H135.793Z" fill="white"/>
    <rect x="4.98633" y="4.5" width="176" height="72" rx="20" stroke="#2876F8" stroke-opacity="0.2" stroke-width="8"/>
</svg>
