<svg width="80" height="80" viewBox="0 0 80 80" fill="none" xmlns="http://www.w3.org/2000/svg">
<path d="M36.417 48.583L52.3337 32.7497L51.0837 31.4163L36.5003 45.9997L28.917 38.4163L27.5837 39.7497L36.417 48.583ZM40.0003 68.833C33.6114 66.7775 28.292 62.7913 24.042 56.8747C19.792 50.958 17.667 44.2775 17.667 36.833V19.6663L40.0003 11.333L62.3337 19.6663V36.833C62.3337 44.2775 60.2087 50.958 55.9587 56.8747C51.7087 62.7913 46.3892 66.7775 40.0003 68.833ZM40.0003 66.833C45.9448 64.9441 50.8475 61.1941 54.7087 55.583C58.5698 49.9719 60.5003 43.7219 60.5003 36.833V20.9163L40.0003 13.2497L19.5003 20.9163V36.833C19.5003 43.7219 21.4309 49.9719 25.292 55.583C29.1531 61.1941 34.0559 64.9441 40.0003 66.833Z" fill="#151515"/>
</svg>
