<svg width="24" height="25" viewBox="0 0 24 25" fill="none" xmlns="http://www.w3.org/2000/svg">
<path d="M8.07525 19.4285L12.0003 17.0785L15.9253 19.4535L14.8753 15.0035L18.3253 12.0035L13.7753 11.6035L12.0003 7.40352L10.2253 11.5785L5.67525 11.9785L9.12525 14.9785L8.07525 19.4285ZM12.0003 18.8285L7.35025 21.6285C7.21692 21.7119 7.07525 21.7493 6.92525 21.741C6.77525 21.7327 6.64192 21.6868 6.52525 21.6035C6.40858 21.5202 6.32108 21.4118 6.26275 21.2785C6.20442 21.1452 6.19192 20.9952 6.22525 20.8285L7.45025 15.5285L3.35025 11.9535C3.21692 11.8368 3.13775 11.7077 3.11275 11.566C3.08775 11.4243 3.09192 11.2868 3.12525 11.1535C3.15858 11.0202 3.23358 10.9077 3.35025 10.816C3.46692 10.7243 3.60858 10.6702 3.77525 10.6535L9.20025 10.1785L11.3003 5.17852C11.3669 5.02852 11.4669 4.91602 11.6003 4.84102C11.7336 4.76602 11.8669 4.72852 12.0003 4.72852C12.1336 4.72852 12.2669 4.76602 12.4003 4.84102C12.5336 4.91602 12.6336 5.02852 12.7003 5.17852L14.8003 10.1785L20.2253 10.6535C20.3919 10.6702 20.5336 10.7243 20.6503 10.816C20.7669 10.9077 20.8419 11.0202 20.8753 11.1535C20.9086 11.2868 20.9128 11.4243 20.8878 11.566C20.8628 11.7077 20.7836 11.8368 20.6503 11.9535L16.5503 15.5285L17.7753 20.8285C17.8086 20.9952 17.7961 21.1452 17.7378 21.2785C17.6794 21.4118 17.5919 21.5202 17.4753 21.6035C17.3586 21.6868 17.2253 21.7327 17.0753 21.741C16.9253 21.7493 16.7836 21.7119 16.6503 21.6285L12.0003 18.8285Z" fill="white"/>
</svg>
