<svg width="80" height="80" viewBox="0 0 80 80" fill="none" xmlns="http://www.w3.org/2000/svg">
<path d="M40 69C36 69 32.2361 68.2361 28.7083 66.7083C25.1806 65.1806 22.1111 63.1111 19.5 60.5C16.8889 57.8889 14.8194 54.8194 13.2917 51.2917C11.7639 47.7639 11 44 11 40C11 36 11.7639 32.2361 13.2917 28.7083C14.8194 25.1806 16.8889 22.1111 19.5 19.5C22.1111 16.8889 25.1806 14.8194 28.7083 13.2917C32.2361 11.7639 36 11 40 11C44 11 47.7639 11.7639 51.2917 13.2917C54.8194 14.8194 57.8889 16.8889 60.5 19.5C63.1111 22.1111 65.1806 25.1806 66.7083 28.7083C68.2361 32.2361 69 36 69 40C69 44 68.2361 47.7639 66.7083 51.2917C65.1806 54.8194 63.1111 57.8889 60.5 60.5C57.8889 63.1111 54.8194 65.1806 51.2917 66.7083C47.7639 68.2361 44 69 40 69ZM40 67.1667C43.6111 67.1667 47 66.5139 50.1667 65.2083C53.3333 63.9028 56.1389 62.1111 58.5833 59.8333L50.4167 51.75C49.0278 52.9722 47.4444 53.9306 45.6667 54.625C43.8889 55.3194 42 55.6667 40 55.6667C35.6667 55.6667 31.9722 54.1389 28.9167 51.0833C25.8611 48.0278 24.3333 44.3333 24.3333 40C24.3333 35.6667 25.8611 31.9722 28.9167 28.9167C31.9722 25.8611 35.6667 24.3333 40 24.3333C44.3333 24.3333 48.0278 25.8611 51.0833 28.9167C54.1389 31.9722 55.6667 35.6667 55.6667 40C55.6667 42 55.3194 43.8889 54.625 45.6667C53.9306 47.4444 53 49.0278 51.8333 50.4167L59.9167 58.5C62.1944 56.0555 63.9722 53.2639 65.25 50.125C66.5278 46.9861 67.1667 43.6111 67.1667 40C67.1667 32.4444 64.5278 26.0278 59.25 20.75C53.9722 15.4722 47.5556 12.8333 40 12.8333C32.4444 12.8333 26.0278 15.4722 20.75 20.75C15.4722 26.0278 12.8333 32.4444 12.8333 40C12.8333 47.5556 15.4722 53.9722 20.75 59.25C26.0278 64.5278 32.4444 67.1667 40 67.1667ZM40 53.8333C41.7778 53.8333 43.4444 53.5417 45 52.9583C46.5556 52.375 47.9444 51.5556 49.1667 50.5L40.8333 42.1667C40.7222 42.2222 40.5833 42.2639 40.4167 42.2917C40.25 42.3194 40.1111 42.3333 40 42.3333C39.3889 42.3333 38.8472 42.0972 38.375 41.625C37.9028 41.1528 37.6667 40.6111 37.6667 40C37.6667 39.3889 37.9028 38.8472 38.375 38.375C38.8472 37.9028 39.3889 37.6667 40 37.6667C40.6111 37.6667 41.1528 37.9028 41.625 38.375C42.0972 38.8472 42.3333 39.3889 42.3333 40C42.3333 40.1111 42.3194 40.25 42.2917 40.4167C42.2639 40.5833 42.2222 40.7222 42.1667 40.8333L50.5 49.1667C51.5556 47.8889 52.375 46.4722 52.9583 44.9167C53.5417 43.3611 53.8333 41.7222 53.8333 40C53.8333 36.1667 52.4861 32.9028 49.7917 30.2083C47.0972 27.5139 43.8333 26.1667 40 26.1667C36.1667 26.1667 32.9028 27.5139 30.2083 30.2083C27.5139 32.9028 26.1667 36.1667 26.1667 40C26.1667 43.8333 27.5139 47.0972 30.2083 49.7917C32.9028 52.4861 36.1667 53.8333 40 53.8333Z" fill="#151515"/>
</svg>
