<svg width="21" height="21" viewBox="0 0 21 21" fill="none" xmlns="http://www.w3.org/2000/svg">
<path d="M8.37504 15.2083C8.27782 15.2083 8.19101 15.191 8.11462 15.1562C8.03824 15.1215 7.95837 15.0694 7.87504 15L4.10421 11.2292C3.96532 11.0903 3.89587 10.9167 3.89587 10.7083C3.89587 10.5 3.96532 10.3264 4.10421 10.1875C4.2431 10.0486 4.40976 9.97917 4.60421 9.97917C4.79865 9.97917 4.96532 10.0486 5.10421 10.1875L8.37504 13.4583L15.875 5.95833C16.0139 5.81944 16.1806 5.75 16.375 5.75C16.5695 5.75 16.7431 5.81944 16.8959 5.95833C17.0348 6.09722 17.1042 6.26736 17.1042 6.46875C17.1042 6.67014 17.0348 6.84028 16.8959 6.97917L8.87504 15C8.79171 15.0694 8.71185 15.1215 8.63546 15.1562C8.55907 15.191 8.47226 15.2083 8.37504 15.2083Z" fill="white"/>
</svg>
