<svg width="21" height="20" viewBox="0 0 21 20" fill="none" xmlns="http://www.w3.org/2000/svg">
<path d="M8.37498 14.8333C8.26387 14.8333 8.1597 14.8125 8.06248 14.7708C7.96526 14.7292 7.87498 14.6667 7.79165 14.5833L4.02081 10.8125C3.85415 10.6458 3.77081 10.4444 3.77081 10.2083C3.77081 9.97222 3.85415 9.77083 4.02081 9.60417C4.18748 9.4375 4.3854 9.35417 4.61456 9.35417C4.84373 9.35417 5.04165 9.4375 5.20831 9.60417L8.37498 12.7708L15.7916 5.375C15.9444 5.20833 16.1354 5.125 16.3646 5.125C16.5937 5.125 16.7916 5.20833 16.9583 5.375C17.125 5.54167 17.2083 5.74306 17.2083 5.97917C17.2083 6.21528 17.125 6.40972 16.9583 6.5625L8.95831 14.5833C8.87498 14.6667 8.7847 14.7292 8.68748 14.7708C8.59026 14.8125 8.48609 14.8333 8.37498 14.8333Z" fill="#151515"/>
</svg>
