<svg width="23" height="23" viewBox="0 0 23 23" fill="none" xmlns="http://www.w3.org/2000/svg">
<path d="M11.4997 13.5604C12.0906 13.5604 12.5938 13.3568 13.009 12.9495C13.4243 12.5422 13.632 12.0351 13.632 11.4281C13.632 10.8372 13.4243 10.334 13.009 9.91876C12.5938 9.50348 12.0906 9.29585 11.4997 9.29585C10.9087 9.29585 10.4056 9.50348 9.9903 9.91876C9.57502 10.334 9.36738 10.8372 9.36738 11.4281C9.36738 12.0351 9.57502 12.5422 9.9903 12.9495C10.4056 13.3568 10.9087 13.5604 11.4997 13.5604ZM11.4997 19.5979C12.2504 19.3424 13.017 18.9391 13.7997 18.388C14.5823 17.837 15.2132 17.2101 15.6924 16.5073L13.4882 14.399C13.1847 14.5747 12.8653 14.7184 12.5299 14.8302C12.1945 14.942 11.8511 14.9979 11.4997 14.9979C10.5094 14.9979 9.66686 14.6545 8.97207 13.9677C8.27728 13.2809 7.92988 12.4344 7.92988 11.4281C7.92988 10.4379 8.27728 9.59532 8.97207 8.90053C9.66686 8.20574 10.5094 7.85835 11.4997 7.85835C12.49 7.85835 13.3325 8.20574 14.0273 8.90053C14.7221 9.59532 15.0695 10.4458 15.0695 11.4521C15.0695 11.7875 15.0215 12.1229 14.9257 12.4583C14.8299 12.7938 14.6781 13.0972 14.4705 13.3688L16.483 15.2854C16.8663 14.5986 17.1698 13.8439 17.3934 13.0214C17.617 12.1988 17.7288 11.3563 17.7288 10.4938V5.75001L11.4997 3.47397L5.27051 5.75001V10.4938C5.27051 12.5861 5.8495 14.4748 7.00749 16.1599C8.16547 17.845 9.66287 18.991 11.4997 19.5979ZM11.4997 21.0354C11.4358 21.0354 11.3799 21.0314 11.332 21.0234C11.284 21.0155 11.2361 21.0035 11.1882 20.9875C9.04794 20.3486 7.287 19.0349 5.9054 17.0464C4.52381 15.0578 3.83301 12.8736 3.83301 10.4938V5.79793C3.83301 5.49446 3.92086 5.21894 4.09655 4.97137C4.27224 4.7238 4.49585 4.54411 4.76738 4.4323L10.9965 2.10835C11.1722 2.04446 11.34 2.01251 11.4997 2.01251C11.6594 2.01251 11.8271 2.04446 12.0028 2.10835L18.232 4.4323C18.5035 4.54411 18.7271 4.7238 18.9028 4.97137C19.0785 5.21894 19.1663 5.49446 19.1663 5.79793V10.4938C19.1663 12.8736 18.4755 15.0578 17.0939 17.0464C15.7123 19.0349 13.9514 20.3486 11.8111 20.9875C11.7632 21.0035 11.7153 21.0155 11.6674 21.0234C11.6195 21.0314 11.5636 21.0354 11.4997 21.0354Z" fill="#757685"/>
</svg>
