<svg width="21" height="20" viewBox="0 0 21 20" fill="none" xmlns="http://www.w3.org/2000/svg">
<path d="M10.5003 1.66667C5.90033 1.66667 2.16699 5.40001 2.16699 10C2.16699 14.6 5.90033 18.3333 10.5003 18.3333C15.1003 18.3333 18.8337 14.6 18.8337 10C18.8337 5.40001 15.1003 1.66667 10.5003 1.66667ZM10.5003 10.8333C10.042 10.8333 9.66699 10.4583 9.66699 10V6.66667C9.66699 6.20834 10.042 5.83334 10.5003 5.83334C10.9587 5.83334 11.3337 6.20834 11.3337 6.66667V10C11.3337 10.4583 10.9587 10.8333 10.5003 10.8333ZM11.3337 14.1667H9.66699V12.5H11.3337V14.1667Z" fill="#FA6153"/>
</svg>
