<svg width="18" height="19" viewBox="0 0 18 19" fill="none" xmlns="http://www.w3.org/2000/svg">
<path d="M9 7.25C9.59674 7.25 10.169 7.48705 10.591 7.90901C11.0129 8.33097 11.25 8.90326 11.25 9.5C11.25 10.0967 11.0129 10.669 10.591 11.091C10.169 11.5129 9.59674 11.75 9 11.75C8.40326 11.75 7.83097 11.5129 7.40901 11.091C6.98705 10.669 6.75 10.0967 6.75 9.5C6.75 8.90326 6.98705 8.33097 7.40901 7.90901C7.83097 7.48705 8.40326 7.25 9 7.25ZM9 3.875C12.75 3.875 15.9525 6.2075 17.25 9.5C15.9525 12.7925 12.75 15.125 9 15.125C5.25 15.125 2.0475 12.7925 0.75 9.5C2.0475 6.2075 5.25 3.875 9 3.875ZM2.385 9.5C3.6225 12.02 6.18 13.625 9 13.625C11.82 13.625 14.3775 12.02 15.615 9.5C14.3775 6.98 11.82 5.375 9 5.375C6.18 5.375 3.6225 6.98 2.385 9.5Z" fill="#A3A4AE"/>
</svg>
