<svg width="20" height="20" viewBox="0 0 20 20" fill="none" xmlns="http://www.w3.org/2000/svg">
<g clip-path="url(#clip0_489_308)">
<path d="M19.7614 10.1871C19.7614 9.36773 19.6949 8.7698 19.551 8.14972H10.1943V11.848H15.6865C15.5758 12.7671 14.9778 14.1512 13.6491 15.0813L13.6304 15.2051L16.5888 17.497L16.7938 17.5174C18.6762 15.779 19.7614 13.2211 19.7614 10.1871Z" fill="white"/>
<path d="M10.1947 19.9313C12.8854 19.9313 15.1442 19.0454 16.7941 17.5174L13.6494 15.0813C12.8079 15.6682 11.6784 16.0779 10.1947 16.0779C7.55932 16.0779 5.3226 14.3395 4.52528 11.9366L4.40841 11.9466L1.33222 14.3273L1.29199 14.4391C2.93077 17.6945 6.29695 19.9313 10.1947 19.9313Z" fill="white"/>
<path d="M4.52478 11.9366C4.31439 11.3166 4.19264 10.6521 4.19264 9.96565C4.19264 9.27908 4.31439 8.61473 4.51371 7.99466L4.50813 7.8626L1.3934 5.44366L1.29149 5.49214C0.616073 6.84305 0.228516 8.36008 0.228516 9.96565C0.228516 11.5712 0.616073 13.0882 1.29149 14.4391L4.52478 11.9366Z" fill="white"/>
<path d="M10.1947 3.85336C12.066 3.85336 13.3283 4.66168 14.048 5.33718L16.8605 2.59107C15.1332 0.985496 12.8854 0 10.1947 0C6.29695 0 2.93077 2.23672 1.29199 5.49214L4.51421 7.99466C5.3226 5.59183 7.55932 3.85336 10.1947 3.85336Z" fill="white"/>
</g>
<defs>
<clipPath id="clip0_489_308">
<rect width="19.544" height="20" fill="white" transform="translate(0.227539)"/>
</clipPath>
</defs>
</svg>
