<svg width="14" height="17" viewBox="0 0 14 17" fill="none" xmlns="http://www.w3.org/2000/svg">
<path d="M6.41634 0.383307L1.41634 2.25831C0.766341 2.50831 0.333008 3.12497 0.333008 3.82497V7.74164C0.333008 11.95 3.17467 15.875 6.99967 16.8333C10.8247 15.875 13.6663 11.95 13.6663 7.74164V3.82497C13.6663 3.13331 13.233 2.50831 12.583 2.26664L7.58301 0.39164C7.20801 0.24164 6.79134 0.24164 6.41634 0.383307ZM6.99967 11.8333C6.54134 11.8333 6.16634 11.4583 6.16634 11C6.16634 10.5416 6.54134 10.1666 6.99967 10.1666C7.45801 10.1666 7.83301 10.5416 7.83301 11C7.83301 11.4583 7.45801 11.8333 6.99967 11.8333ZM6.99967 8.49997C6.54134 8.49997 6.16634 8.12497 6.16634 7.66664V5.16664C6.16634 4.70831 6.54134 4.33331 6.99967 4.33331C7.45801 4.33331 7.83301 4.70831 7.83301 5.16664V7.66664C7.83301 8.12497 7.45801 8.49997 6.99967 8.49997Z" fill="#757685"/>
</svg>
