<svg width="20" height="21" viewBox="0 0 20 21" fill="none" xmlns="http://www.w3.org/2000/svg">
<path d="M10.5417 8.83335C9.75 6.59169 7.41667 5.08335 4.80833 5.60002C2.9 5.98335 1.35 7.50835 0.950001 9.41669C0.266667 12.6417 2.71667 15.5 5.83333 15.5C8.00833 15.5 9.85833 14.1084 10.5417 12.1667H14.1667V13.8334C14.1667 14.75 14.9167 15.5 15.8333 15.5C16.75 15.5 17.5 14.75 17.5 13.8334V12.1667C18.4167 12.1667 19.1667 11.4167 19.1667 10.5C19.1667 9.58335 18.4167 8.83335 17.5 8.83335H10.5417ZM5.83333 12.1667C4.91667 12.1667 4.16667 11.4167 4.16667 10.5C4.16667 9.58335 4.91667 8.83335 5.83333 8.83335C6.75 8.83335 7.5 9.58335 7.5 10.5C7.5 11.4167 6.75 12.1667 5.83333 12.1667Z" fill="#757685"/>
</svg>
