<svg width="19" height="18" viewBox="0 0 19 18" fill="none" xmlns="http://www.w3.org/2000/svg">
<path d="M14 6H13.25V4.5C13.25 2.43 11.57 0.75 9.5 0.75C7.43 0.75 5.75 2.43 5.75 4.5V6H5C4.175 6 3.5 6.675 3.5 7.5V15C3.5 15.825 4.175 16.5 5 16.5H14C14.825 16.5 15.5 15.825 15.5 15V7.5C15.5 6.675 14.825 6 14 6ZM9.5 12.75C8.675 12.75 8 12.075 8 11.25C8 10.425 8.675 9.75 9.5 9.75C10.325 9.75 11 10.425 11 11.25C11 12.075 10.325 12.75 9.5 12.75ZM7.25 6V4.5C7.25 3.255 8.255 2.25 9.5 2.25C10.745 2.25 11.75 3.255 11.75 4.5V6H7.25Z" fill="#757685"/>
</svg>
