<svg width="22" height="22" viewBox="0 0 22 22" fill="none" xmlns="http://www.w3.org/2000/svg">
<path d="M16.9857 11.1815V4.31887C16.9857 4.21264 16.961 4.10786 16.9137 4.01276C16.8664 3.91766 16.7976 3.83482 16.7129 3.77074C16.6282 3.70666 16.5298 3.66308 16.4254 3.64344C16.321 3.62379 16.2134 3.6286 16.1112 3.6575L3.35121 7.26C3.20715 7.30072 3.08033 7.38734 2.98999 7.50671C2.89966 7.62608 2.85075 7.77167 2.85071 7.92137V11.462C2.8506 11.6118 2.89944 11.7576 2.98978 11.8771C3.08013 11.9966 3.20704 12.0833 3.35121 12.1241L4.38246 12.4156V16.8898C4.38246 17.2545 4.52732 17.6042 4.78519 17.8621C5.04305 18.1199 5.39279 18.2648 5.75746 18.2648H7.50715C7.69756 18.2651 7.88596 18.2258 8.06041 18.1495C8.23486 18.0732 8.39155 17.9614 8.52055 17.8214C8.64956 17.6813 8.74807 17.516 8.80984 17.3359C8.87161 17.1557 8.8953 16.9647 8.8794 16.775L8.61746 13.6125L11.6012 14.4547C11.6012 14.5007 11.5943 14.5461 11.5943 14.5922C11.5935 15.2685 11.7742 15.9327 12.1178 16.5154C12.4613 17.098 12.955 17.5777 13.5472 17.9044C14.1394 18.231 14.8085 18.3927 15.4846 18.3724C16.1607 18.3522 16.8189 18.1507 17.3905 17.7892C17.9621 17.4276 18.4262 16.9192 18.7342 16.3171C19.0422 15.7149 19.1829 15.0411 19.1415 14.366C19.1001 13.6909 18.8783 13.0393 18.4991 12.4793C18.1198 11.9192 17.5972 11.4712 16.9857 11.1822V11.1815ZM7.50852 16.8877H5.75883V12.804L7.20258 13.2117L7.50852 16.8877ZM8.07777 12.0271L8.05096 12.0196L4.22571 10.9402V8.44181L15.6107 5.225V10.8233C15.531 10.8185 15.4519 10.8109 15.3715 10.8109C14.6315 10.8116 13.908 11.0294 13.2906 11.4374C12.6732 11.8453 12.1891 12.4254 11.8982 13.1058L8.07777 12.0271ZM15.3715 16.9916C14.8962 16.9917 14.4315 16.8509 14.0363 16.5869C13.641 16.3229 13.3329 15.9477 13.151 15.5086C12.969 15.0695 12.9214 14.5863 13.0141 14.1202C13.1068 13.654 13.3356 13.2258 13.6717 12.8897C14.0078 12.5536 14.436 12.3248 14.9022 12.2321C15.3683 12.1394 15.8515 12.187 16.2906 12.369C16.7297 12.5509 17.1049 12.859 17.3689 13.2542C17.6329 13.6495 17.7737 14.1141 17.7736 14.5894C17.773 15.2265 17.5198 15.8374 17.0695 16.2881C16.6192 16.7388 16.0086 16.9925 15.3715 16.9936V16.9916ZM16.6921 14.2416L16.3436 14.5901L16.6921 14.9387C16.7578 15.0021 16.8102 15.078 16.8462 15.1618C16.8822 15.2457 16.9012 15.3359 16.902 15.4272C16.9028 15.5185 16.8854 15.609 16.8508 15.6935C16.8163 15.778 16.7652 15.8548 16.7007 15.9193C16.6361 15.9839 16.5594 16.0349 16.4749 16.0695C16.3904 16.1041 16.2998 16.1215 16.2086 16.1207C16.1173 16.1199 16.0271 16.1009 15.9432 16.0649C15.8593 16.0288 15.7834 15.9765 15.72 15.9108L15.3715 15.5622L15.0229 15.9108C14.9595 15.9765 14.8836 16.0288 14.7997 16.0649C14.7159 16.1009 14.6256 16.1199 14.5344 16.1207C14.4431 16.1215 14.3525 16.1041 14.2681 16.0695C14.1836 16.0349 14.1068 15.9839 14.0422 15.9193C13.9777 15.8548 13.9266 15.778 13.8921 15.6935C13.8575 15.609 13.8401 15.5185 13.8409 15.4272C13.8417 15.3359 13.8607 15.2457 13.8967 15.1618C13.9327 15.078 13.9851 15.0021 14.0508 14.9387L14.3993 14.5901L14.0508 14.2416C13.9869 14.1777 13.9362 14.1019 13.9016 14.0185C13.867 13.9351 13.8492 13.8457 13.8492 13.7554C13.8492 13.6651 13.8669 13.5757 13.9014 13.4922C13.936 13.4088 13.9866 13.333 14.0504 13.2691C14.1143 13.2052 14.19 13.1545 14.2735 13.12C14.3569 13.0854 14.4463 13.0675 14.5366 13.0675C14.6269 13.0675 14.7163 13.0852 14.7998 13.1198C14.8832 13.1543 14.959 13.2049 15.0229 13.2687L15.3715 13.6173L15.72 13.2687C15.7834 13.2031 15.8593 13.1507 15.9432 13.1147C16.0271 13.0786 16.1173 13.0597 16.2086 13.0589C16.2998 13.0581 16.3904 13.0755 16.4749 13.1101C16.5594 13.1446 16.6361 13.1957 16.7007 13.2602C16.7652 13.3248 16.8163 13.4015 16.8508 13.486C16.8854 13.5705 16.9028 13.661 16.902 13.7523C16.9012 13.8436 16.8822 13.9338 16.8462 14.0177C16.8102 14.1016 16.7578 14.1775 16.6921 14.2409V14.2416Z" fill="#757685"/>
</svg>
