<svg width="22" height="22" viewBox="0 0 22 22" fill="none" xmlns="http://www.w3.org/2000/svg">
<path d="M10.9997 20.1667C9.73162 20.1667 8.53995 19.926 7.42467 19.4448C6.3094 18.9635 5.33926 18.3104 4.51426 17.4854C3.68926 16.6604 3.03613 15.6903 2.55488 14.575C2.07363 13.4597 1.83301 12.2681 1.83301 11C1.83301 9.73194 2.07363 8.54028 2.55488 7.425C3.03613 6.30972 3.68926 5.33958 4.51426 4.51458C5.33926 3.68958 6.3094 3.03646 7.42467 2.55521C8.53995 2.07396 9.73162 1.83333 10.9997 1.83333C12.2677 1.83333 13.4594 2.07396 14.5747 2.55521C15.69 3.03646 16.6601 3.68958 17.4851 4.51458C18.3101 5.33958 18.9632 6.30972 19.4445 7.425C19.9257 8.54028 20.1663 9.73194 20.1663 11C20.1663 12.2681 19.9257 13.4597 19.4445 14.575C18.9632 15.6903 18.3101 16.6604 17.4851 17.4854C16.6601 18.3104 15.69 18.9635 14.5747 19.4448C13.4594 19.926 12.2677 20.1667 10.9997 20.1667ZM10.9997 18.7917C11.9622 18.7917 12.8674 18.6351 13.7153 18.3219C14.5632 18.0087 15.3309 17.5618 16.0184 16.9812L14.3684 15.3542C13.8948 15.7056 13.3754 15.9844 12.8101 16.1906C12.2448 16.3969 11.6413 16.5 10.9997 16.5C9.4719 16.5 8.17329 15.9653 7.10384 14.8958C6.0344 13.8264 5.49967 12.5278 5.49967 11C5.49967 9.47222 6.0344 8.17361 7.10384 7.10417C8.17329 6.03472 9.4719 5.5 10.9997 5.5C12.5275 5.5 13.8261 6.03472 14.8955 7.10417C15.965 8.17361 16.4997 9.47222 16.4997 11C16.4997 11.6417 16.3966 12.2451 16.1903 12.8104C15.9841 13.3757 15.7052 13.8951 15.3538 14.3687L16.9809 15.9958C17.5462 15.3083 17.9893 14.5444 18.3101 13.7042C18.6309 12.8639 18.7913 11.9625 18.7913 11C18.7913 8.83055 18.0351 6.98958 16.5226 5.47708C15.0101 3.96458 13.1691 3.20833 10.9997 3.20833C8.83023 3.20833 6.98926 3.96458 5.47676 5.47708C3.96426 6.98958 3.20801 8.83055 3.20801 11C3.20801 13.1694 3.96426 15.0104 5.47676 16.5229C6.98926 18.0354 8.83023 18.7917 10.9997 18.7917ZM10.9997 15.125C11.4427 15.125 11.8667 15.0601 12.2715 14.9302C12.6764 14.8003 13.0469 14.6132 13.383 14.3687L11.6872 12.6958C11.5802 12.7417 11.4695 12.776 11.3549 12.799C11.2403 12.8219 11.1219 12.8333 10.9997 12.8333C10.4955 12.8333 10.0639 12.6538 9.70488 12.2948C9.34585 11.9358 9.16634 11.5042 9.16634 11C9.16634 10.4958 9.34585 10.0642 9.70488 9.70521C10.0639 9.34618 10.4955 9.16667 10.9997 9.16667C11.5038 9.16667 11.9354 9.34618 12.2945 9.70521C12.6535 10.0642 12.833 10.4958 12.833 11C12.833 11.1222 12.8177 11.2444 12.7872 11.3667C12.7566 11.4889 12.7184 11.6111 12.6726 11.7333L14.3684 13.3833C14.6129 13.0472 14.8 12.6767 14.9299 12.2719C15.0597 11.867 15.1247 11.4431 15.1247 11C15.1247 9.85417 14.7236 8.88021 13.9215 8.07812C13.1195 7.27604 12.1455 6.875 10.9997 6.875C9.85384 6.875 8.87988 7.27604 8.0778 8.07812C7.27572 8.88021 6.87467 9.85417 6.87467 11C6.87467 12.1458 7.27572 13.1198 8.0778 13.9219C8.87988 14.724 9.85384 15.125 10.9997 15.125Z" fill="#757685"/>
</svg>
