<svg width="22" height="22" viewBox="0 0 22 22" fill="none" xmlns="http://www.w3.org/2000/svg">
<path d="M3.41421 17.5083C3.20032 17.5083 3.02081 17.4319 2.87567 17.2792C2.73053 17.1264 2.65796 16.9507 2.65796 16.7521C2.65796 16.5382 2.73053 16.3587 2.87567 16.2135C3.02081 16.0684 3.20032 15.9958 3.41421 15.9958H7.69963C7.89824 15.9958 8.07011 16.0684 8.21525 16.2135C8.36039 16.3587 8.43296 16.5382 8.43296 16.7521C8.43296 16.966 8.36039 17.1455 8.21525 17.2906C8.07011 17.4358 7.89824 17.5083 7.69963 17.5083H3.41421ZM3.41421 6.00417C3.20032 6.00417 3.02081 5.9316 2.87567 5.78646C2.73053 5.64132 2.65796 5.46181 2.65796 5.24792C2.65796 5.03403 2.73053 4.85452 2.87567 4.70938C3.02081 4.56424 3.20032 4.49167 3.41421 4.49167H11.5038C11.7024 4.49167 11.8743 4.56806 12.0194 4.72084C12.1646 4.87361 12.2371 5.04931 12.2371 5.24792C12.2371 5.46181 12.1646 5.64132 12.0194 5.78646C11.8743 5.9316 11.7024 6.00417 11.5038 6.00417H3.41421ZM10.4955 19.3875C10.2816 19.3875 10.1059 19.3149 9.96838 19.1698C9.83088 19.0247 9.76213 18.8451 9.76213 18.6313V14.85C9.76213 14.6361 9.83469 14.4566 9.97983 14.3115C10.125 14.1663 10.3045 14.0938 10.5184 14.0938C10.717 14.0938 10.8889 14.1663 11.034 14.3115C11.1791 14.4566 11.2517 14.6361 11.2517 14.85V15.9958H18.585C18.7989 15.9958 18.9784 16.0684 19.1236 16.2135C19.2687 16.3587 19.3413 16.5382 19.3413 16.7521C19.3413 16.966 19.2687 17.1455 19.1236 17.2906C18.9784 17.4358 18.7989 17.5083 18.585 17.5083H11.2517V18.6313C11.2517 18.8451 11.1791 19.0247 11.034 19.1698C10.8889 19.3149 10.7093 19.3875 10.4955 19.3875ZM7.67671 13.6354C7.4781 13.6354 7.30622 13.5629 7.16108 13.4177C7.01594 13.2726 6.94338 13.0931 6.94338 12.8792V11.7563H3.41421C3.20032 11.7563 3.02081 11.6837 2.87567 11.5385C2.73053 11.3934 2.65796 11.2139 2.65796 11C2.65796 10.7861 2.73053 10.6066 2.87567 10.4615C3.02081 10.3163 3.20032 10.2438 3.41421 10.2438H6.94338V9.075C6.94338 8.86111 7.01594 8.6816 7.16108 8.53646C7.30622 8.39132 7.48574 8.31875 7.69963 8.31875C7.91351 8.31875 8.08921 8.39132 8.22671 8.53646C8.36421 8.6816 8.43296 8.86111 8.43296 9.075V12.8792C8.43296 13.0931 8.36039 13.2726 8.21525 13.4177C8.07011 13.5629 7.8906 13.6354 7.67671 13.6354ZM10.4955 11.7563C10.2968 11.7563 10.125 11.6837 9.97983 11.5385C9.83469 11.3934 9.76213 11.2139 9.76213 11C9.76213 10.7861 9.83469 10.6066 9.97983 10.4615C10.125 10.3163 10.2968 10.2438 10.4955 10.2438H18.585C18.7989 10.2438 18.9784 10.3163 19.1236 10.4615C19.2687 10.6066 19.3413 10.7861 19.3413 11C19.3413 11.2139 19.2687 11.3934 19.1236 11.5385C18.9784 11.6837 18.7989 11.7563 18.585 11.7563H10.4955ZM14.2996 7.90625C14.0857 7.90625 13.91 7.83368 13.7725 7.68854C13.635 7.54341 13.5663 7.36389 13.5663 7.15V3.36875C13.5663 3.15486 13.6389 2.97535 13.784 2.83021C13.9291 2.68507 14.1087 2.6125 14.3225 2.6125C14.5212 2.6125 14.693 2.68507 14.8382 2.83021C14.9833 2.97535 15.0559 3.15486 15.0559 3.36875V4.49167H18.585C18.7989 4.49167 18.9784 4.56806 19.1236 4.72084C19.2687 4.87361 19.3413 5.04931 19.3413 5.24792C19.3413 5.46181 19.2687 5.64132 19.1236 5.78646C18.9784 5.9316 18.7989 6.00417 18.585 6.00417H15.0559V7.15C15.0559 7.36389 14.9833 7.54341 14.8382 7.68854C14.693 7.83368 14.5135 7.90625 14.2996 7.90625Z" fill="#757685"/>
</svg>
