<svg width="22" height="22" viewBox="0 0 22 22" fill="none" xmlns="http://www.w3.org/2000/svg">
<path d="M5.11862 20.5C4.74163 20.5 4.4212 20.3681 4.15731 20.1042C3.89342 19.8403 3.76147 19.5198 3.76147 19.1429V9.32619C3.76147 8.94921 3.89342 8.62877 4.15731 8.36488C4.4212 8.10099 4.74163 7.96905 5.11862 7.96905H13.94V5.79762C13.94 4.98333 13.6535 4.28968 13.0805 3.71667C12.5075 3.14365 11.8139 2.85714 10.9996 2.85714C10.2908 2.85714 9.67259 3.06825 9.14481 3.49048C8.61703 3.9127 8.27774 4.45556 8.12695 5.11905C8.08171 5.31508 7.99124 5.47718 7.85552 5.60536C7.71981 5.73353 7.56147 5.79762 7.38052 5.79762C7.18449 5.79762 7.02239 5.72976 6.89421 5.59405C6.76604 5.45833 6.71703 5.3 6.74719 5.11905C6.91306 4.07857 7.39183 3.21528 8.1835 2.52917C8.97516 1.84306 9.91386 1.5 10.9996 1.5C12.1908 1.5 13.2049 1.91845 14.0418 2.75536C14.8787 3.59226 15.2972 4.60635 15.2972 5.79762V7.96905H16.8805C17.2575 7.96905 17.5779 8.10099 17.8418 8.36488C18.1057 8.62877 18.2377 8.94921 18.2377 9.32619V19.1429C18.2377 19.5198 18.1057 19.8403 17.8418 20.1042C17.5779 20.3681 17.2575 20.5 16.8805 20.5H5.11862ZM5.11862 19.1429H16.8805V9.32619H5.11862V19.1429ZM10.9996 15.9762C11.4821 15.9762 11.893 15.8103 12.2323 15.4786C12.5716 15.1468 12.7412 14.7472 12.7412 14.2798C12.7412 13.8274 12.5716 13.4165 12.2323 13.047C11.893 12.6776 11.4821 12.4929 10.9996 12.4929C10.517 12.4929 10.1061 12.6776 9.76683 13.047C9.42755 13.4165 9.2579 13.8274 9.2579 14.2798C9.2579 14.7472 9.42755 15.1468 9.76683 15.4786C10.1061 15.8103 10.517 15.9762 10.9996 15.9762ZM5.11862 9.32619V19.1429V9.32619Z" fill="#757685"/>
</svg>
