<svg width="212" height="212" viewBox="0 0 212 212" fill="none" xmlns="http://www.w3.org/2000/svg">
    <g opacity="0.3" filter="url(#filter0_f_519_1986)">
        <circle cx="106" cy="106" r="46" fill="#2876F8"/>
        <circle cx="106" cy="106" r="46" fill="url(#paint0_radial_519_1986)"/>
    </g>
    <path d="M115.083 128.833V126.999H121.25C122.861 126.999 124.222 126.444 125.333 125.333C126.444 124.222 127 122.86 127 121.249V113.416C127 111.638 127.541 110.069 128.625 108.708C129.708 107.347 131.111 106.472 132.833 106.083V105.916C131.111 105.527 129.708 104.652 128.625 103.291C127.541 101.93 127 100.36 127 98.5827V90.7493C127 89.1382 126.444 87.7771 125.333 86.666C124.222 85.5549 122.861 84.9993 121.25 84.9993H115.083V83.166H121.25C123.361 83.166 125.152 83.9021 126.625 85.3743C128.097 86.8466 128.833 88.6382 128.833 90.7493V98.5827C128.833 100.249 129.43 101.652 130.625 102.791C131.819 103.93 133.25 104.499 134.916 104.499H134.666V107.499H134.916C133.25 107.499 131.819 108.069 130.625 109.208C129.43 110.347 128.833 111.749 128.833 113.416V121.249C128.833 123.36 128.097 125.152 126.625 126.624C125.152 128.097 123.361 128.833 121.25 128.833H115.083ZM90.7497 128.833C88.6386 128.833 86.8469 128.097 85.3747 126.624C83.9025 125.152 83.1663 123.36 83.1663 121.249V113.416C83.1663 111.749 82.5691 110.347 81.3747 109.208C80.1802 108.069 78.7497 107.499 77.083 107.499H77.333V104.499H77.083C78.7497 104.499 80.1802 103.93 81.3747 102.791C82.5691 101.652 83.1663 100.249 83.1663 98.5827V90.7493C83.1663 88.6382 83.9025 86.8466 85.3747 85.3743C86.8469 83.9021 88.6386 83.166 90.7497 83.166H96.9163V84.9993H90.7497C89.1386 84.9993 87.7775 85.5549 86.6663 86.666C85.5552 87.7771 84.9997 89.1382 84.9997 90.7493V98.5827C84.9997 100.36 84.458 101.93 83.3747 103.291C82.2913 104.652 80.8886 105.527 79.1663 105.916V106.083C80.8886 106.472 82.2913 107.347 83.3747 108.708C84.458 110.069 84.9997 111.638 84.9997 113.416V121.249C84.9997 122.86 85.5552 124.222 86.6663 125.333C87.7775 126.444 89.1386 126.999 90.7497 126.999H96.9163V128.833H90.7497Z" fill="#151515"/>
    <defs>
        <filter id="filter0_f_519_1986" x="0" y="0" width="212" height="212" filterUnits="userSpaceOnUse" color-interpolation-filters="sRGB">
            <feFlood flood-opacity="0" result="BackgroundImageFix"/>
            <feBlend mode="normal" in="SourceGraphic" in2="BackgroundImageFix" result="shape"/>
            <feGaussianBlur stdDeviation="30" result="effect1_foregroundBlur_519_1986"/>
        </filter>
        <radialGradient id="paint0_radial_519_1986" cx="0" cy="0" r="1" gradientUnits="userSpaceOnUse" gradientTransform="translate(124.86 84.84) rotate(105.686) scale(69.7579 109.218)">
            <stop stop-color="#01CDAE"/>
            <stop offset="1" stop-color="#01CDAE" stop-opacity="0"/>
        </radialGradient>
    </defs>
</svg>
