<svg width="751" height="126" viewBox="0 0 751 126" fill="none" xmlns="http://www.w3.org/2000/svg">
    <mask id="mask0_651_4251" style="mask-type:alpha" maskUnits="userSpaceOnUse" x="4" y="12" width="742" height="114">
        <path d="M44.5625 103.465C65.3047 103.465 79.7773 91.5117 81.7695 72.6445H64.543C62.668 82.6641 55.1094 88.8164 44.6211 88.8164C31.0859 88.8164 22.5898 77.6836 22.5898 59.6367C22.5898 41.8242 31.2031 30.6328 44.5625 30.6328C54.875 30.6328 62.8438 37.4297 64.4844 47.8008H81.7109C80.3633 28.875 64.8945 15.9844 44.5625 15.9844C20.0703 15.9844 4.54297 32.4492 4.54297 59.6953C4.54297 87 19.9531 103.465 44.5625 103.465ZM120.91 103.113C140.48 103.113 152.727 90.6328 152.727 69.7148C152.727 49.0312 140.363 36.375 120.91 36.375C101.516 36.375 89.0938 49.0898 89.0938 69.7148C89.0938 90.5742 101.34 103.113 120.91 103.113ZM120.91 89.9297C111.887 89.9297 106.438 82.5469 106.438 69.7148C106.438 57.0586 111.887 49.5 120.91 49.5C129.875 49.5 135.324 57 135.324 69.7148C135.324 82.5469 129.934 89.9297 120.91 89.9297ZM161.926 102H179.035V63.2109C179.035 55.8867 183.723 50.7305 190.461 50.7305C197.082 50.7305 201.066 54.8906 201.066 61.8047V102H217.59V62.9766C217.59 55.6523 222.102 50.7305 228.84 50.7305C235.812 50.7305 239.621 54.8906 239.621 62.4492V102H256.73V58.1719C256.73 45.1641 248.234 36.5508 235.578 36.5508C226.203 36.5508 218.469 41.6484 215.539 49.7344H215.188C213.02 41.2969 206.457 36.5508 197.199 36.5508C188.586 36.5508 181.555 41.4141 178.801 49.207H178.449V37.4883H161.926V102ZM268.391 102H285.5V37.4883H268.391V102ZM276.945 30.457C282.043 30.457 286.203 26.5898 286.203 21.4922C286.203 16.3945 282.043 12.5859 276.945 12.5859C271.906 12.5859 267.746 16.3945 267.746 21.4922C267.746 26.5898 271.906 30.457 276.945 30.457ZM297.395 102H314.504V65.2031C314.504 56.6484 320.012 50.7891 328.215 50.7891C336.301 50.7891 340.871 55.6523 340.871 64.207V102H357.98V60.6328C357.98 45.5742 349.309 36.5508 335.012 36.5508C325.109 36.5508 317.961 40.8867 314.27 49.0312H313.918V37.4883H297.395V102ZM398.938 88.3477C390.031 88.3477 384.465 81.3164 384.465 69.5977C384.465 57.9375 390.09 50.5547 398.938 50.5547C407.844 50.5547 413.586 58.0547 413.586 69.6562C413.586 81.1992 407.844 88.3477 398.938 88.3477ZM398.762 125.613C418.156 125.613 430.637 115.887 430.637 100.535V37.4883H413.762V48.5039H413.469C410.07 41.3555 402.746 36.7266 393.488 36.7266C377.141 36.7266 366.945 49.3242 366.945 69.5391C366.945 89.4023 377.492 101.59 393.195 101.59C402.512 101.59 410.07 97.1953 413.176 90.2812H413.527V101.824C413.527 109.09 407.844 113.543 399.172 113.543C392.434 113.543 387.043 110.848 385.93 106.57H369.055C369.934 118.172 381.828 125.613 398.762 125.613ZM466.086 77.918C466.613 93.7969 479.562 103.465 499.895 103.465C520.871 103.465 534.172 93.0938 534.172 76.6875C534.172 63.7969 526.789 56.5312 509.855 52.8984L499.602 50.7305C489.875 48.5039 485.773 45.5742 485.773 40.3594C485.773 34.0898 491.633 29.9297 500.363 29.9297C509.211 29.9297 515.48 34.2656 516.066 41.4141H532.648C532.355 26.1211 519.992 15.9844 500.305 15.9844C481.438 15.9844 467.961 26.2969 467.961 41.8828C467.961 54.2461 475.637 62.1562 491.223 65.4961L502.238 67.8984C512.434 70.1836 516.477 73.2305 516.477 78.7383C516.477 84.9492 510.031 89.4609 500.598 89.4609C491.223 89.4609 483.957 84.8906 483.137 77.918H466.086ZM573.254 103.113C592.824 103.113 605.07 90.6328 605.07 69.7148C605.07 49.0312 592.707 36.375 573.254 36.375C553.859 36.375 541.438 49.0898 541.438 69.7148C541.438 90.5742 553.684 103.113 573.254 103.113ZM573.254 89.9297C564.23 89.9297 558.781 82.5469 558.781 69.7148C558.781 57.0586 564.23 49.5 573.254 49.5C582.219 49.5 587.668 57 587.668 69.7148C587.668 82.5469 582.277 89.9297 573.254 89.9297ZM643.684 103.113C663.254 103.113 675.5 90.6328 675.5 69.7148C675.5 49.0312 663.137 36.375 643.684 36.375C624.289 36.375 611.867 49.0898 611.867 69.7148C611.867 90.5742 624.113 103.113 643.684 103.113ZM643.684 89.9297C634.66 89.9297 629.211 82.5469 629.211 69.7148C629.211 57.0586 634.66 49.5 643.684 49.5C652.648 49.5 658.098 57 658.098 69.7148C658.098 82.5469 652.707 89.9297 643.684 89.9297ZM684.699 102H701.809V65.2031C701.809 56.6484 707.316 50.7891 715.52 50.7891C723.605 50.7891 728.176 55.6523 728.176 64.207V102H745.285V60.6328C745.285 45.5742 736.613 36.5508 722.316 36.5508C712.414 36.5508 705.266 40.8867 701.574 49.0312H701.223V37.4883H684.699V102Z" fill="#151515"/>
    </mask>
    <g mask="url(#mask0_651_4251)">
        <g filter="url(#filter0_f_651_4251)">
            <path fill-rule="evenodd" clip-rule="evenodd" d="M171.94 70.4295C17.8733 105.02 -159.258 166.115 -278.254 62.2184C-394.257 -39.0661 -350.659 -219.83 -336.116 -373.163C-324.223 -498.547 -299.218 -623.773 -205.242 -707.543C-106.198 -795.83 26.087 -828.671 157.891 -813.516C310.941 -795.918 470.114 -750.649 552.553 -620.412C644.323 -475.433 671.753 -282.735 588.975 -132.486C510.464 10.0174 330.632 34.801 171.94 70.4295Z" fill="#00CDAE"/>
        </g>
        <g filter="url(#filter1_f_651_4251)">
            <path fill-rule="evenodd" clip-rule="evenodd" d="M514.608 -85.9652C364.245 -145.968 150.837 -150.496 109.32 -306.975C67.7309 -463.726 247.437 -576.523 351.439 -700.959C445.066 -812.983 520.624 -963.131 666.264 -973.351C816.348 -983.882 946.661 -872.778 1031.75 -748.697C1106.92 -639.084 1097.27 -504.115 1078.26 -372.571C1057.18 -226.777 1052.37 -49.8147 921.062 16.954C789.992 83.6009 651.177 -31.4668 514.608 -85.9652Z" fill="#2876F8"/>
        </g>
    </g>
    <defs>
        <filter id="filter0_f_651_4251" x="-734.312" y="-1195.1" width="1750.71" height="1693.13" filterUnits="userSpaceOnUse" color-interpolation-filters="sRGB">
            <feFlood flood-opacity="0" result="BackgroundImageFix"/>
            <feBlend mode="normal" in="SourceGraphic" in2="BackgroundImageFix" result="shape"/>
            <feGaussianBlur stdDeviation="189.011" result="effect1_foregroundBlur_651_4251"/>
        </filter>
        <filter id="filter1_f_651_4251" x="-274.836" y="-1352.07" width="1744.61" height="1767.24" filterUnits="userSpaceOnUse" color-interpolation-filters="sRGB">
            <feFlood flood-opacity="0" result="BackgroundImageFix"/>
            <feBlend mode="normal" in="SourceGraphic" in2="BackgroundImageFix" result="shape"/>
            <feGaussianBlur stdDeviation="189.011" result="effect1_foregroundBlur_651_4251"/>
        </filter>
    </defs>
</svg>
