<svg width="877" height="148" viewBox="0 0 877 148" fill="none" xmlns="http://www.w3.org/2000/svg">
    <mask id="mask0_639_3576" style="mask-type:alpha" maskUnits="userSpaceOnUse" x="6" y="15" width="865" height="133">
        <path d="M52.8926 121.209C77.0918 121.209 93.9766 107.264 96.3008 85.252H76.2031C74.0156 96.9414 65.1973 104.119 52.9609 104.119C37.1699 104.119 27.2578 91.1309 27.2578 70.0762C27.2578 49.2949 37.3066 36.2383 52.8926 36.2383C64.9238 36.2383 74.2207 44.168 76.1348 56.2676H96.2324C94.6602 34.1875 76.6133 19.1484 52.8926 19.1484C24.3184 19.1484 6.20312 38.3574 6.20312 70.1445C6.20312 102 24.1816 121.209 52.8926 121.209ZM141.965 120.799C164.797 120.799 179.084 106.238 179.084 81.834C179.084 57.7031 164.66 42.9375 141.965 42.9375C119.338 42.9375 104.846 57.7715 104.846 81.834C104.846 106.17 119.133 120.799 141.965 120.799ZM141.965 105.418C131.438 105.418 125.08 96.8047 125.08 81.834C125.08 67.0684 131.438 58.25 141.965 58.25C152.424 58.25 158.781 67 158.781 81.834C158.781 96.8047 152.492 105.418 141.965 105.418ZM189.816 119.5H209.777V74.2461C209.777 65.7012 215.246 59.6855 223.107 59.6855C230.832 59.6855 235.48 64.5391 235.48 72.6055V119.5H254.758V73.9727C254.758 65.4277 260.021 59.6855 267.883 59.6855C276.018 59.6855 280.461 64.5391 280.461 73.3574V119.5H300.422V68.3672C300.422 53.1914 290.51 43.1426 275.744 43.1426C264.807 43.1426 255.783 49.0898 252.365 58.5234H251.955C249.426 48.6797 241.77 43.1426 230.969 43.1426C220.92 43.1426 212.717 48.8164 209.504 57.9082H209.094V44.2363H189.816V119.5ZM314.025 119.5H333.986V44.2363H314.025V119.5ZM324.006 36.0332C329.953 36.0332 334.807 31.5215 334.807 25.5742C334.807 19.627 329.953 15.1836 324.006 15.1836C318.127 15.1836 313.273 19.627 313.273 25.5742C313.273 31.5215 318.127 36.0332 324.006 36.0332ZM347.863 119.5H367.824V76.5703C367.824 66.5898 374.25 59.7539 383.82 59.7539C393.254 59.7539 398.586 65.4277 398.586 75.4082V119.5H418.547V71.2383C418.547 53.6699 408.43 43.1426 391.75 43.1426C380.197 43.1426 371.857 48.2012 367.551 57.7031H367.141V44.2363H347.863V119.5ZM466.33 103.572C455.939 103.572 449.445 95.3691 449.445 81.6973C449.445 68.0938 456.008 59.4805 466.33 59.4805C476.721 59.4805 483.42 68.2305 483.42 81.7656C483.42 95.2324 476.721 103.572 466.33 103.572ZM466.125 147.049C488.752 147.049 503.312 135.701 503.312 117.791V44.2363H483.625V57.0879H483.283C479.318 48.748 470.773 43.3477 459.973 43.3477C440.9 43.3477 429.006 58.0449 429.006 81.6289C429.006 104.803 441.311 119.021 459.631 119.021C470.5 119.021 479.318 113.895 482.941 105.828H483.352V119.295C483.352 127.771 476.721 132.967 466.604 132.967C458.742 132.967 452.453 129.822 451.154 124.832H431.467C432.492 138.367 446.369 147.049 466.125 147.049ZM544.67 91.4043C545.285 109.93 560.393 121.209 584.113 121.209C608.586 121.209 624.104 109.109 624.104 89.9688C624.104 74.9297 615.49 66.4531 595.734 62.2148L583.771 59.6855C572.424 57.0879 567.639 53.6699 567.639 47.5859C567.639 40.2715 574.475 35.418 584.66 35.418C594.982 35.418 602.297 40.4766 602.98 48.8164H622.326C621.984 30.9746 607.561 19.1484 584.592 19.1484C562.58 19.1484 546.857 31.1797 546.857 49.3633C546.857 63.7871 555.812 73.0156 573.996 76.9121L586.848 79.7148C598.742 82.3809 603.459 85.9355 603.459 92.3613C603.459 99.6074 595.939 104.871 584.934 104.871C573.996 104.871 565.52 99.5391 564.562 91.4043H544.67ZM669.699 120.799C692.531 120.799 706.818 106.238 706.818 81.834C706.818 57.7031 692.395 42.9375 669.699 42.9375C647.072 42.9375 632.58 57.7715 632.58 81.834C632.58 106.17 646.867 120.799 669.699 120.799ZM669.699 105.418C659.172 105.418 652.814 96.8047 652.814 81.834C652.814 67.0684 659.172 58.25 669.699 58.25C680.158 58.25 686.516 67 686.516 81.834C686.516 96.8047 680.227 105.418 669.699 105.418ZM751.867 120.799C774.699 120.799 788.986 106.238 788.986 81.834C788.986 57.7031 774.562 42.9375 751.867 42.9375C729.24 42.9375 714.748 57.7715 714.748 81.834C714.748 106.17 729.035 120.799 751.867 120.799ZM751.867 105.418C741.34 105.418 734.982 96.8047 734.982 81.834C734.982 67.0684 741.34 58.25 751.867 58.25C762.326 58.25 768.684 67 768.684 81.834C768.684 96.8047 762.395 105.418 751.867 105.418ZM799.719 119.5H819.68V76.5703C819.68 66.5898 826.105 59.7539 835.676 59.7539C845.109 59.7539 850.441 65.4277 850.441 75.4082V119.5H870.402V71.2383C870.402 53.6699 860.285 43.1426 843.605 43.1426C832.053 43.1426 823.713 48.2012 819.406 57.7031H818.996V44.2363H799.719V119.5Z" fill="#151515"/>
    </mask>
    <g mask="url(#mask0_639_3576)">
        <g filter="url(#filter0_f_639_3576)">
            <path fill-rule="evenodd" clip-rule="evenodd" d="M165 158.179C-6.53547 196.691 -203.751 264.714 -336.238 149.037C-465.395 36.2681 -416.854 -164.992 -400.661 -335.71C-387.42 -475.31 -359.58 -614.736 -254.949 -708.003C-144.675 -806.3 2.60959 -842.865 149.358 -825.992C319.761 -806.399 496.983 -755.997 588.768 -610.993C690.943 -449.576 721.484 -235.029 629.32 -67.7442C541.907 90.9168 341.685 118.511 165 158.179Z" fill="#00CDAE"/>
        </g>
        <g filter="url(#filter1_f_639_3576)">
            <path fill-rule="evenodd" clip-rule="evenodd" d="M546.522 -15.9487C379.11 -82.7553 141.504 -87.7958 95.2801 -262.018C48.9753 -436.542 249.058 -562.128 364.851 -700.673C469.095 -825.399 553.219 -992.571 715.373 -1003.95C882.474 -1015.68 1027.56 -891.973 1122.3 -753.824C1205.99 -631.782 1195.25 -481.51 1174.08 -335.051C1150.61 -172.726 1145.26 24.3007 999.06 98.64C853.129 172.844 698.575 44.729 546.522 -15.9487Z" fill="#2876F8"/>
        </g>
    </g>
    <defs>
        <filter id="filter0_f_639_3576" x="-729.714" y="-1136.55" width="1720.63" height="1656.52" filterUnits="userSpaceOnUse" color-interpolation-filters="sRGB">
            <feFlood flood-opacity="0" result="BackgroundImageFix"/>
            <feBlend mode="normal" in="SourceGraphic" in2="BackgroundImageFix" result="shape"/>
            <feGaussianBlur stdDeviation="153.296" result="effect1_foregroundBlur_639_3576"/>
        </filter>
        <filter id="filter1_f_639_3576" x="-218.142" y="-1311.31" width="1713.84" height="1739.03" filterUnits="userSpaceOnUse" color-interpolation-filters="sRGB">
            <feFlood flood-opacity="0" result="BackgroundImageFix"/>
            <feBlend mode="normal" in="SourceGraphic" in2="BackgroundImageFix" result="shape"/>
            <feGaussianBlur stdDeviation="153.296" result="effect1_foregroundBlur_639_3576"/>
        </filter>
    </defs>
</svg>
