<svg width="944" height="1286" viewBox="0 0 944 1286" fill="none" xmlns="http://www.w3.org/2000/svg">
    <mask id="mask0_651_4056" style="mask-type:alpha" maskUnits="userSpaceOnUse" x="0" y="0" width="944" height="1286">
        <rect width="944" height="1286" rx="20" fill="#F8F9FD"/>
    </mask>
    <g mask="url(#mask0_651_4056)">
        <rect x="-448" y="-31" width="1840" height="1317" rx="20" fill="#F8F9FD"/>
        <mask id="mask1_651_4056" style="mask-type:alpha" maskUnits="userSpaceOnUse" x="-354" y="-15" width="1652" height="1326">
            <rect x="-354" y="-15" width="1652" height="1326" fill="url(#paint0_linear_651_4056)"/>
        </mask>
        <g mask="url(#mask1_651_4056)">
            <g filter="url(#filter0_f_651_4056)">
                <path fill-rule="evenodd" clip-rule="evenodd" d="M269.94 587.429C115.873 622.019 -61.2582 683.115 -180.254 579.218C-296.257 477.934 -252.659 297.17 -238.116 143.837C-226.223 18.4534 -201.218 -106.773 -107.242 -190.543C-8.19819 -278.83 124.087 -311.671 255.891 -296.516C408.941 -278.919 568.114 -233.649 650.553 -103.412C742.323 41.5665 769.753 234.265 686.975 384.514C608.464 527.017 428.632 551.801 269.94 587.429Z" fill="#00CDAE"/>
            </g>
            <g filter="url(#filter1_f_651_4056)">
                <path fill-rule="evenodd" clip-rule="evenodd" d="M612.608 431.035C462.245 371.032 248.837 366.504 207.32 210.025C165.731 53.2736 345.437 -59.5227 449.439 -183.959C543.066 -295.983 618.624 -446.131 764.264 -456.351C914.348 -466.882 1044.66 -355.778 1129.75 -231.697C1204.92 -122.084 1195.27 12.8851 1176.26 144.429C1155.18 290.223 1150.37 467.185 1019.06 533.954C887.992 600.601 749.177 485.533 612.608 431.035Z" fill="#2876F8"/>
            </g>
            <g filter="url(#filter2_d_651_4056)">
                <mask id="mask2_651_4056" style="mask-type:alpha" maskUnits="userSpaceOnUse" x="-501" y="-11" width="1946" height="1226">
                    <rect x="-501" y="-11" width="1946" height="1226" rx="613" fill="#D9D9D9"/>
                </mask>
                <g mask="url(#mask2_651_4056)">
                    <rect x="-501" y="-11" width="1946" height="1226" rx="613" fill="#F8F9FD"/>
                    <g filter="url(#filter3_f_651_4056)">
                        <path fill-rule="evenodd" clip-rule="evenodd" d="M269.94 587.429C115.873 622.019 -61.2582 683.115 -180.254 579.218C-296.257 477.934 -252.659 297.17 -238.116 143.837C-226.223 18.4534 -201.218 -106.773 -107.242 -190.543C-8.19819 -278.83 124.087 -311.671 255.891 -296.516C408.941 -278.919 568.114 -233.649 650.553 -103.412C742.323 41.5665 769.753 234.265 686.975 384.514C608.464 527.017 428.632 551.801 269.94 587.429Z" fill="#00CDAE"/>
                    </g>
                    <g filter="url(#filter4_f_651_4056)">
                        <path fill-rule="evenodd" clip-rule="evenodd" d="M612.608 431.035C462.245 371.032 248.837 366.504 207.32 210.025C165.731 53.2736 345.437 -59.5227 449.439 -183.959C543.066 -295.983 618.624 -446.131 764.264 -456.351C914.348 -466.882 1044.66 -355.778 1129.75 -231.697C1204.92 -122.084 1195.27 12.8851 1176.26 144.429C1155.18 290.223 1150.37 467.185 1019.06 533.954C887.992 600.601 749.177 485.533 612.608 431.035Z" fill="#2876F8"/>
                    </g>
                    <rect x="-499.554" y="-9.5537" width="1943.11" height="1223.11" rx="611.554" stroke="url(#paint1_linear_651_4056)" stroke-opacity="0.2" stroke-width="2.8926"/>
                </g>
            </g>
            <g filter="url(#filter5_d_651_4056)">
                <mask id="mask3_651_4056" style="mask-type:alpha" maskUnits="userSpaceOnUse" x="-391" y="79" width="1726" height="1046">
                    <rect x="-390.236" y="79.4373" width="1724.47" height="1045.46" rx="522.731" fill="#D9D9D9"/>
                </mask>
                <g mask="url(#mask3_651_4056)">
                    <rect x="-390.236" y="79.4373" width="1724.47" height="1045.46" rx="522.731" fill="#F8F9FD"/>
                    <g filter="url(#filter6_f_651_4056)">
                        <path fill-rule="evenodd" clip-rule="evenodd" d="M269.94 587.429C115.873 622.02 -61.2582 683.115 -180.254 579.218C-296.257 477.934 -252.659 297.17 -238.116 143.837C-226.223 18.4534 -201.218 -106.773 -107.242 -190.543C-8.19819 -278.83 124.087 -311.671 255.891 -296.516C408.941 -278.918 568.114 -233.649 650.553 -103.412C742.323 41.5665 769.753 234.265 686.975 384.514C608.464 527.017 428.632 551.801 269.94 587.429Z" fill="#00CDAE"/>
                    </g>
                    <g filter="url(#filter7_f_651_4056)">
                        <path fill-rule="evenodd" clip-rule="evenodd" d="M612.608 431.035C462.245 371.032 248.837 366.504 207.32 210.025C165.731 53.2736 345.437 -59.5227 449.439 -183.959C543.066 -295.983 618.624 -446.131 764.264 -456.351C914.348 -466.882 1044.66 -355.778 1129.75 -231.697C1204.92 -122.084 1195.27 12.8851 1176.26 144.429C1155.18 290.223 1150.37 467.185 1019.06 533.954C887.992 600.601 749.177 485.533 612.608 431.035Z" fill="#2876F8"/>
                    </g>
                    <rect x="-389.003" y="80.6702" width="1722.01" height="1043" rx="521.498" stroke="url(#paint2_linear_651_4056)" stroke-opacity="0.2" stroke-width="2.46596"/>
                </g>
            </g>
            <g filter="url(#filter8_d_651_4056)">
                <mask id="mask4_651_4056" style="mask-type:alpha" maskUnits="userSpaceOnUse" x="-301" y="169" width="1546" height="867">
                    <rect x="-300.42" y="169.253" width="1544.84" height="865.829" rx="432.914" fill="#D9D9D9"/>
                </mask>
                <g mask="url(#mask4_651_4056)">
                    <rect x="-300.42" y="169.253" width="1544.84" height="865.829" rx="432.914" fill="#F8F9FD"/>
                    <g filter="url(#filter9_f_651_4056)">
                        <path fill-rule="evenodd" clip-rule="evenodd" d="M269.94 587.429C115.873 622.02 -61.2582 683.115 -180.254 579.218C-296.257 477.934 -252.659 297.17 -238.116 143.837C-226.223 18.4534 -201.218 -106.773 -107.242 -190.543C-8.19819 -278.83 124.087 -311.671 255.891 -296.516C408.941 -278.918 568.114 -233.649 650.553 -103.412C742.323 41.5665 769.753 234.265 686.975 384.514C608.464 527.017 428.632 551.801 269.94 587.429Z" fill="#00CDAE"/>
                    </g>
                    <g filter="url(#filter10_f_651_4056)">
                        <path fill-rule="evenodd" clip-rule="evenodd" d="M612.608 431.035C462.245 371.032 248.837 366.504 207.32 210.025C165.731 53.2736 345.437 -59.5227 449.439 -183.959C543.066 -295.983 618.624 -446.131 764.264 -456.351C914.348 -466.882 1044.66 -355.778 1129.75 -231.697C1204.92 -122.084 1195.27 12.8851 1176.26 144.429C1155.18 290.223 1150.37 467.185 1019.06 533.954C887.992 600.601 749.177 485.533 612.608 431.035Z" fill="#2876F8"/>
                    </g>
                    <rect x="-299.187" y="170.486" width="1542.37" height="863.363" rx="431.681" stroke="url(#paint3_linear_651_4056)" stroke-opacity="0.2" stroke-width="2.46596"/>
                </g>
            </g>
            <g filter="url(#filter11_d_651_4056)">
                <mask id="mask5_651_4056" style="mask-type:alpha" maskUnits="userSpaceOnUse" x="-211" y="259" width="1366" height="687">
                    <rect x="-210.604" y="259.07" width="1365.21" height="686.196" rx="343.098" fill="#D9D9D9"/>
                </mask>
                <g mask="url(#mask5_651_4056)">
                    <rect x="-210.604" y="259.07" width="1365.21" height="686.196" rx="343.098" fill="#F8F9FD"/>
                    <g filter="url(#filter12_f_651_4056)">
                        <path fill-rule="evenodd" clip-rule="evenodd" d="M269.94 587.429C115.873 622.02 -61.2582 683.115 -180.254 579.218C-296.257 477.934 -252.659 297.17 -238.116 143.837C-226.223 18.4534 -201.218 -106.773 -107.242 -190.543C-8.19819 -278.83 124.087 -311.671 255.891 -296.516C408.941 -278.918 568.114 -233.649 650.553 -103.412C742.323 41.5665 769.753 234.265 686.975 384.514C608.464 527.017 428.632 551.801 269.94 587.429Z" fill="#00CDAE"/>
                    </g>
                    <g filter="url(#filter13_f_651_4056)">
                        <path fill-rule="evenodd" clip-rule="evenodd" d="M612.608 431.035C462.245 371.032 248.837 366.504 207.32 210.025C165.731 53.2736 345.437 -59.5227 449.439 -183.959C543.066 -295.983 618.624 -446.131 764.264 -456.351C914.348 -466.882 1044.66 -355.778 1129.75 -231.697C1204.92 -122.084 1195.27 12.8851 1176.26 144.429C1155.18 290.223 1150.37 467.185 1019.06 533.954C887.992 600.601 749.177 485.533 612.608 431.035Z" fill="#2876F8"/>
                    </g>
                    <rect x="-209.371" y="260.303" width="1362.74" height="683.73" rx="341.865" stroke="url(#paint4_linear_651_4056)" stroke-opacity="0.2" stroke-width="2.46596"/>
                </g>
            </g>
            <g filter="url(#filter14_d_651_4056)">
                <mask id="mask6_651_4056" style="mask-type:alpha" maskUnits="userSpaceOnUse" x="-121" y="348" width="1186" height="508">
                    <rect x="-120.787" y="348.886" width="1185.57" height="506.564" rx="253.282" fill="#D9D9D9"/>
                </mask>
                <g mask="url(#mask6_651_4056)">
                    <rect x="-120.787" y="348.886" width="1185.57" height="506.564" rx="253.282" fill="#F8F9FD"/>
                    <g filter="url(#filter15_f_651_4056)">
                        <path fill-rule="evenodd" clip-rule="evenodd" d="M269.94 587.429C115.873 622.02 -61.2582 683.115 -180.254 579.218C-296.257 477.934 -252.659 297.17 -238.116 143.837C-226.223 18.4534 -201.218 -106.773 -107.242 -190.543C-8.19819 -278.83 124.087 -311.671 255.891 -296.516C408.941 -278.918 568.114 -233.649 650.553 -103.412C742.323 41.5665 769.753 234.265 686.975 384.514C608.464 527.017 428.632 551.801 269.94 587.429Z" fill="#00CDAE"/>
                    </g>
                    <g filter="url(#filter16_f_651_4056)">
                        <path fill-rule="evenodd" clip-rule="evenodd" d="M612.608 431.035C462.245 371.032 248.837 366.504 207.32 210.025C165.731 53.2736 345.437 -59.5227 449.439 -183.959C543.066 -295.983 618.624 -446.131 764.264 -456.351C914.348 -466.882 1044.66 -355.778 1129.75 -231.697C1204.92 -122.084 1195.27 12.8851 1176.26 144.429C1155.18 290.223 1150.37 467.185 1019.06 533.954C887.992 600.601 749.177 485.533 612.608 431.035Z" fill="#2876F8"/>
                    </g>
                    <rect x="-119.554" y="350.119" width="1183.11" height="504.098" rx="252.049" stroke="url(#paint5_linear_651_4056)" stroke-opacity="0.2" stroke-width="2.46596"/>
                </g>
            </g>
            <g filter="url(#filter17_d_651_4056)">
                <mask id="mask7_651_4056" style="mask-type:alpha" maskUnits="userSpaceOnUse" x="-35" y="438" width="1014" height="328">
                    <rect x="-34.564" y="438.702" width="1013.13" height="326.931" rx="163.466" fill="#D9D9D9"/>
                </mask>
                <g mask="url(#mask7_651_4056)">
                    <rect x="-34.564" y="438.702" width="1013.13" height="326.931" rx="163.466" fill="#F8F9FD"/>
                    <g filter="url(#filter18_f_651_4056)">
                        <path fill-rule="evenodd" clip-rule="evenodd" d="M269.94 587.429C115.873 622.02 -61.2582 683.115 -180.254 579.218C-296.257 477.934 -252.659 297.17 -238.116 143.837C-226.223 18.4534 -201.218 -106.773 -107.242 -190.543C-8.19819 -278.83 124.087 -311.671 255.891 -296.516C408.941 -278.918 568.114 -233.649 650.553 -103.412C742.323 41.5665 769.753 234.265 686.975 384.514C608.464 527.017 428.632 551.801 269.94 587.429Z" fill="#00CDAE"/>
                    </g>
                    <g filter="url(#filter19_f_651_4056)">
                        <path fill-rule="evenodd" clip-rule="evenodd" d="M612.608 431.035C462.245 371.032 248.837 366.504 207.32 210.025C165.731 53.2736 345.437 -59.5227 449.439 -183.959C543.066 -295.983 618.624 -446.131 764.264 -456.351C914.348 -466.882 1044.66 -355.778 1129.75 -231.697C1204.92 -122.084 1195.27 12.8851 1176.26 144.429C1155.18 290.223 1150.37 467.185 1019.06 533.954C887.992 600.601 749.177 485.533 612.608 431.035Z" fill="#2876F8"/>
                    </g>
                    <rect x="-33.331" y="439.935" width="1010.66" height="324.465" rx="162.233" stroke="url(#paint6_linear_651_4056)" stroke-opacity="0.2" stroke-width="2.46596"/>
                </g>
            </g>
        </g>
    </g>
    <defs>
        <filter id="filter0_f_651_4056" x="-636.312" y="-678.098" width="1750.71" height="1693.13" filterUnits="userSpaceOnUse" color-interpolation-filters="sRGB">
            <feFlood flood-opacity="0" result="BackgroundImageFix"/>
            <feBlend mode="normal" in="SourceGraphic" in2="BackgroundImageFix" result="shape"/>
            <feGaussianBlur stdDeviation="189.011" result="effect1_foregroundBlur_651_4056"/>
        </filter>
        <filter id="filter1_f_651_4056" x="-176.836" y="-835.065" width="1744.61" height="1767.24" filterUnits="userSpaceOnUse" color-interpolation-filters="sRGB">
            <feFlood flood-opacity="0" result="BackgroundImageFix"/>
            <feBlend mode="normal" in="SourceGraphic" in2="BackgroundImageFix" result="shape"/>
            <feGaussianBlur stdDeviation="189.011" result="effect1_foregroundBlur_651_4056"/>
        </filter>
        <filter id="filter2_d_651_4056" x="-790.26" y="-300.26" width="2524.52" height="1804.52" filterUnits="userSpaceOnUse" color-interpolation-filters="sRGB">
            <feFlood flood-opacity="0" result="BackgroundImageFix"/>
            <feColorMatrix in="SourceAlpha" type="matrix" values="0 0 0 0 0 0 0 0 0 0 0 0 0 0 0 0 0 0 127 0" result="hardAlpha"/>
            <feOffset/>
            <feGaussianBlur stdDeviation="144.63"/>
            <feComposite in2="hardAlpha" operator="out"/>
            <feColorMatrix type="matrix" values="0 0 0 0 0 0 0 0 0 0 0 0 0 0 0 0 0 0 0.08 0"/>
            <feBlend mode="normal" in2="BackgroundImageFix" result="effect1_dropShadow_651_4056"/>
            <feBlend mode="normal" in="SourceGraphic" in2="effect1_dropShadow_651_4056" result="shape"/>
        </filter>
        <filter id="filter3_f_651_4056" x="-636.312" y="-678.098" width="1750.71" height="1693.13" filterUnits="userSpaceOnUse" color-interpolation-filters="sRGB">
            <feFlood flood-opacity="0" result="BackgroundImageFix"/>
            <feBlend mode="normal" in="SourceGraphic" in2="BackgroundImageFix" result="shape"/>
            <feGaussianBlur stdDeviation="189.011" result="effect1_foregroundBlur_651_4056"/>
        </filter>
        <filter id="filter4_f_651_4056" x="-176.836" y="-835.065" width="1744.61" height="1767.24" filterUnits="userSpaceOnUse" color-interpolation-filters="sRGB">
            <feFlood flood-opacity="0" result="BackgroundImageFix"/>
            <feBlend mode="normal" in="SourceGraphic" in2="BackgroundImageFix" result="shape"/>
            <feGaussianBlur stdDeviation="189.011" result="effect1_foregroundBlur_651_4056"/>
        </filter>
        <filter id="filter5_d_651_4056" x="-636.832" y="-167.159" width="2217.66" height="1538.65" filterUnits="userSpaceOnUse" color-interpolation-filters="sRGB">
            <feFlood flood-opacity="0" result="BackgroundImageFix"/>
            <feColorMatrix in="SourceAlpha" type="matrix" values="0 0 0 0 0 0 0 0 0 0 0 0 0 0 0 0 0 0 127 0" result="hardAlpha"/>
            <feOffset/>
            <feGaussianBlur stdDeviation="123.298"/>
            <feComposite in2="hardAlpha" operator="out"/>
            <feColorMatrix type="matrix" values="0 0 0 0 0 0 0 0 0 0 0 0 0 0 0 0 0 0 0.08 0"/>
            <feBlend mode="normal" in2="BackgroundImageFix" result="effect1_dropShadow_651_4056"/>
            <feBlend mode="normal" in="SourceGraphic" in2="effect1_dropShadow_651_4056" result="shape"/>
        </filter>
        <filter id="filter6_f_651_4056" x="-636.312" y="-678.098" width="1750.71" height="1693.13" filterUnits="userSpaceOnUse" color-interpolation-filters="sRGB">
            <feFlood flood-opacity="0" result="BackgroundImageFix"/>
            <feBlend mode="normal" in="SourceGraphic" in2="BackgroundImageFix" result="shape"/>
            <feGaussianBlur stdDeviation="189.011" result="effect1_foregroundBlur_651_4056"/>
        </filter>
        <filter id="filter7_f_651_4056" x="-176.836" y="-835.065" width="1744.61" height="1767.24" filterUnits="userSpaceOnUse" color-interpolation-filters="sRGB">
            <feFlood flood-opacity="0" result="BackgroundImageFix"/>
            <feBlend mode="normal" in="SourceGraphic" in2="BackgroundImageFix" result="shape"/>
            <feGaussianBlur stdDeviation="189.011" result="effect1_foregroundBlur_651_4056"/>
        </filter>
        <filter id="filter8_d_651_4056" x="-547.016" y="-77.3431" width="2038.03" height="1359.02" filterUnits="userSpaceOnUse" color-interpolation-filters="sRGB">
            <feFlood flood-opacity="0" result="BackgroundImageFix"/>
            <feColorMatrix in="SourceAlpha" type="matrix" values="0 0 0 0 0 0 0 0 0 0 0 0 0 0 0 0 0 0 127 0" result="hardAlpha"/>
            <feOffset/>
            <feGaussianBlur stdDeviation="123.298"/>
            <feComposite in2="hardAlpha" operator="out"/>
            <feColorMatrix type="matrix" values="0 0 0 0 0 0 0 0 0 0 0 0 0 0 0 0 0 0 0.08 0"/>
            <feBlend mode="normal" in2="BackgroundImageFix" result="effect1_dropShadow_651_4056"/>
            <feBlend mode="normal" in="SourceGraphic" in2="effect1_dropShadow_651_4056" result="shape"/>
        </filter>
        <filter id="filter9_f_651_4056" x="-636.312" y="-678.098" width="1750.71" height="1693.13" filterUnits="userSpaceOnUse" color-interpolation-filters="sRGB">
            <feFlood flood-opacity="0" result="BackgroundImageFix"/>
            <feBlend mode="normal" in="SourceGraphic" in2="BackgroundImageFix" result="shape"/>
            <feGaussianBlur stdDeviation="189.011" result="effect1_foregroundBlur_651_4056"/>
        </filter>
        <filter id="filter10_f_651_4056" x="-176.836" y="-835.065" width="1744.61" height="1767.24" filterUnits="userSpaceOnUse" color-interpolation-filters="sRGB">
            <feFlood flood-opacity="0" result="BackgroundImageFix"/>
            <feBlend mode="normal" in="SourceGraphic" in2="BackgroundImageFix" result="shape"/>
            <feGaussianBlur stdDeviation="189.011" result="effect1_foregroundBlur_651_4056"/>
        </filter>
        <filter id="filter11_d_651_4056" x="-457.2" y="12.4734" width="1858.4" height="1179.39" filterUnits="userSpaceOnUse" color-interpolation-filters="sRGB">
            <feFlood flood-opacity="0" result="BackgroundImageFix"/>
            <feColorMatrix in="SourceAlpha" type="matrix" values="0 0 0 0 0 0 0 0 0 0 0 0 0 0 0 0 0 0 127 0" result="hardAlpha"/>
            <feOffset/>
            <feGaussianBlur stdDeviation="123.298"/>
            <feComposite in2="hardAlpha" operator="out"/>
            <feColorMatrix type="matrix" values="0 0 0 0 0 0 0 0 0 0 0 0 0 0 0 0 0 0 0.08 0"/>
            <feBlend mode="normal" in2="BackgroundImageFix" result="effect1_dropShadow_651_4056"/>
            <feBlend mode="normal" in="SourceGraphic" in2="effect1_dropShadow_651_4056" result="shape"/>
        </filter>
        <filter id="filter12_f_651_4056" x="-636.312" y="-678.098" width="1750.71" height="1693.13" filterUnits="userSpaceOnUse" color-interpolation-filters="sRGB">
            <feFlood flood-opacity="0" result="BackgroundImageFix"/>
            <feBlend mode="normal" in="SourceGraphic" in2="BackgroundImageFix" result="shape"/>
            <feGaussianBlur stdDeviation="189.011" result="effect1_foregroundBlur_651_4056"/>
        </filter>
        <filter id="filter13_f_651_4056" x="-176.836" y="-835.065" width="1744.61" height="1767.24" filterUnits="userSpaceOnUse" color-interpolation-filters="sRGB">
            <feFlood flood-opacity="0" result="BackgroundImageFix"/>
            <feBlend mode="normal" in="SourceGraphic" in2="BackgroundImageFix" result="shape"/>
            <feGaussianBlur stdDeviation="189.011" result="effect1_foregroundBlur_651_4056"/>
        </filter>
        <filter id="filter14_d_651_4056" x="-367.383" y="102.29" width="1678.77" height="999.756" filterUnits="userSpaceOnUse" color-interpolation-filters="sRGB">
            <feFlood flood-opacity="0" result="BackgroundImageFix"/>
            <feColorMatrix in="SourceAlpha" type="matrix" values="0 0 0 0 0 0 0 0 0 0 0 0 0 0 0 0 0 0 127 0" result="hardAlpha"/>
            <feOffset/>
            <feGaussianBlur stdDeviation="123.298"/>
            <feComposite in2="hardAlpha" operator="out"/>
            <feColorMatrix type="matrix" values="0 0 0 0 0 0 0 0 0 0 0 0 0 0 0 0 0 0 0.08 0"/>
            <feBlend mode="normal" in2="BackgroundImageFix" result="effect1_dropShadow_651_4056"/>
            <feBlend mode="normal" in="SourceGraphic" in2="effect1_dropShadow_651_4056" result="shape"/>
        </filter>
        <filter id="filter15_f_651_4056" x="-636.312" y="-678.098" width="1750.71" height="1693.13" filterUnits="userSpaceOnUse" color-interpolation-filters="sRGB">
            <feFlood flood-opacity="0" result="BackgroundImageFix"/>
            <feBlend mode="normal" in="SourceGraphic" in2="BackgroundImageFix" result="shape"/>
            <feGaussianBlur stdDeviation="189.011" result="effect1_foregroundBlur_651_4056"/>
        </filter>
        <filter id="filter16_f_651_4056" x="-176.836" y="-835.065" width="1744.61" height="1767.24" filterUnits="userSpaceOnUse" color-interpolation-filters="sRGB">
            <feFlood flood-opacity="0" result="BackgroundImageFix"/>
            <feBlend mode="normal" in="SourceGraphic" in2="BackgroundImageFix" result="shape"/>
            <feGaussianBlur stdDeviation="189.011" result="effect1_foregroundBlur_651_4056"/>
        </filter>
        <filter id="filter17_d_651_4056" x="-281.16" y="192.106" width="1506.32" height="820.124" filterUnits="userSpaceOnUse" color-interpolation-filters="sRGB">
            <feFlood flood-opacity="0" result="BackgroundImageFix"/>
            <feColorMatrix in="SourceAlpha" type="matrix" values="0 0 0 0 0 0 0 0 0 0 0 0 0 0 0 0 0 0 127 0" result="hardAlpha"/>
            <feOffset/>
            <feGaussianBlur stdDeviation="123.298"/>
            <feComposite in2="hardAlpha" operator="out"/>
            <feColorMatrix type="matrix" values="0 0 0 0 0 0 0 0 0 0 0 0 0 0 0 0 0 0 0.08 0"/>
            <feBlend mode="normal" in2="BackgroundImageFix" result="effect1_dropShadow_651_4056"/>
            <feBlend mode="normal" in="SourceGraphic" in2="effect1_dropShadow_651_4056" result="shape"/>
        </filter>
        <filter id="filter18_f_651_4056" x="-636.312" y="-678.098" width="1750.71" height="1693.13" filterUnits="userSpaceOnUse" color-interpolation-filters="sRGB">
            <feFlood flood-opacity="0" result="BackgroundImageFix"/>
            <feBlend mode="normal" in="SourceGraphic" in2="BackgroundImageFix" result="shape"/>
            <feGaussianBlur stdDeviation="189.011" result="effect1_foregroundBlur_651_4056"/>
        </filter>
        <filter id="filter19_f_651_4056" x="-176.836" y="-835.065" width="1744.61" height="1767.24" filterUnits="userSpaceOnUse" color-interpolation-filters="sRGB">
            <feFlood flood-opacity="0" result="BackgroundImageFix"/>
            <feBlend mode="normal" in="SourceGraphic" in2="BackgroundImageFix" result="shape"/>
            <feGaussianBlur stdDeviation="189.011" result="effect1_foregroundBlur_651_4056"/>
        </filter>
        <linearGradient id="paint0_linear_651_4056" x1="472" y1="-15" x2="472" y2="1311" gradientUnits="userSpaceOnUse">
            <stop stop-color="#D9D9D9"/>
            <stop offset="0.651646" stop-color="#D9D9D9" stop-opacity="0"/>
        </linearGradient>
        <linearGradient id="paint1_linear_651_4056" x1="472" y1="-11" x2="472" y2="1215" gradientUnits="userSpaceOnUse">
            <stop stop-color="white"/>
            <stop offset="0.460289" stop-color="white" stop-opacity="0"/>
        </linearGradient>
        <linearGradient id="paint2_linear_651_4056" x1="472" y1="79.4373" x2="472" y2="1124.9" gradientUnits="userSpaceOnUse">
            <stop stop-color="white"/>
            <stop offset="0.460289" stop-color="white" stop-opacity="0"/>
        </linearGradient>
        <linearGradient id="paint3_linear_651_4056" x1="472" y1="169.253" x2="472" y2="1035.08" gradientUnits="userSpaceOnUse">
            <stop stop-color="white"/>
            <stop offset="0.460289" stop-color="white" stop-opacity="0"/>
        </linearGradient>
        <linearGradient id="paint4_linear_651_4056" x1="472" y1="259.07" x2="472" y2="945.266" gradientUnits="userSpaceOnUse">
            <stop stop-color="white"/>
            <stop offset="0.460289" stop-color="white" stop-opacity="0"/>
        </linearGradient>
        <linearGradient id="paint5_linear_651_4056" x1="472" y1="348.886" x2="472" y2="855.45" gradientUnits="userSpaceOnUse">
            <stop stop-color="white"/>
            <stop offset="0.460289" stop-color="white" stop-opacity="0"/>
        </linearGradient>
        <linearGradient id="paint6_linear_651_4056" x1="472" y1="438.702" x2="472" y2="765.633" gradientUnits="userSpaceOnUse">
            <stop stop-color="white"/>
            <stop offset="0.460289" stop-color="white" stop-opacity="0"/>
        </linearGradient>
    </defs>
</svg>
