<svg width="212" height="212" viewBox="0 0 212 212" fill="none" xmlns="http://www.w3.org/2000/svg">
    <g opacity="0.3" filter="url(#filter0_f_519_1960)">
        <circle cx="106" cy="106" r="46" fill="#2876F8"/>
        <circle cx="106" cy="106" r="46" fill="url(#paint0_radial_519_1960)"/>
    </g>
    <path d="M86.6667 125.167C89.7222 123.111 92.7778 121.486 95.8333 120.292C98.8889 119.097 102.278 118.5 106 118.5C109.722 118.5 113.111 119.097 116.167 120.292C119.222 121.486 122.278 123.111 125.333 125.167C127.722 122.667 129.625 119.806 131.042 116.583C132.458 113.361 133.167 109.833 133.167 106C133.167 98.4444 130.528 92.0278 125.25 86.75C119.972 81.4722 113.556 78.8333 106 78.8333C98.4444 78.8333 92.0278 81.4722 86.75 86.75C81.4722 92.0278 78.8333 98.4444 78.8333 106C78.8333 109.833 79.5417 113.361 80.9583 116.583C82.375 119.806 84.2778 122.667 86.6667 125.167ZM106 106.917C103.333 106.917 101.097 106 99.2917 104.167C97.4861 102.333 96.5833 100.111 96.5833 97.5C96.5833 94.8333 97.5 92.5972 99.3333 90.7917C101.167 88.9861 103.389 88.0833 106 88.0833C108.667 88.0833 110.903 89 112.708 90.8333C114.514 92.6667 115.417 94.8889 115.417 97.5C115.417 100.167 114.5 102.403 112.667 104.208C110.833 106.014 108.611 106.917 106 106.917ZM106 135C101.944 135 98.1667 134.25 94.6667 132.75C91.1667 131.25 88.0972 129.181 85.4583 126.542C82.8194 123.903 80.75 120.833 79.25 117.333C77.75 113.833 77 110.056 77 106C77 101.944 77.75 98.1667 79.25 94.6667C80.75 91.1667 82.8194 88.0972 85.4583 85.4583C88.0972 82.8194 91.1667 80.75 94.6667 79.25C98.1667 77.75 101.944 77 106 77C110.056 77 113.833 77.75 117.333 79.25C120.833 80.75 123.903 82.8194 126.542 85.4583C129.181 88.0972 131.25 91.1667 132.75 94.6667C134.25 98.1667 135 101.944 135 106C135 110.056 134.25 113.833 132.75 117.333C131.25 120.833 129.181 123.903 126.542 126.542C123.903 129.181 120.833 131.25 117.333 132.75C113.833 134.25 110.056 135 106 135ZM106 133.167C109.167 133.167 112.333 132.597 115.5 131.458C118.667 130.319 121.444 128.667 123.833 126.5C121.444 124.611 118.736 123.111 115.708 122C112.681 120.889 109.444 120.333 106 120.333C102.556 120.333 99.3056 120.875 96.25 121.958C93.1944 123.042 90.5278 124.556 88.25 126.5C90.5833 128.667 93.3333 130.319 96.5 131.458C99.6667 132.597 102.833 133.167 106 133.167ZM106 105.083C108.167 105.083 109.972 104.361 111.417 102.917C112.861 101.472 113.583 99.6667 113.583 97.5C113.583 95.3333 112.861 93.5278 111.417 92.0833C109.972 90.6389 108.167 89.9167 106 89.9167C103.833 89.9167 102.028 90.6389 100.583 92.0833C99.1389 93.5278 98.4167 95.3333 98.4167 97.5C98.4167 99.6667 99.1389 101.472 100.583 102.917C102.028 104.361 103.833 105.083 106 105.083Z" fill="#151515"/>
    <defs>
        <filter id="filter0_f_519_1960" x="0" y="0" width="212" height="212" filterUnits="userSpaceOnUse" color-interpolation-filters="sRGB">
            <feFlood flood-opacity="0" result="BackgroundImageFix"/>
            <feBlend mode="normal" in="SourceGraphic" in2="BackgroundImageFix" result="shape"/>
            <feGaussianBlur stdDeviation="30" result="effect1_foregroundBlur_519_1960"/>
        </filter>
        <radialGradient id="paint0_radial_519_1960" cx="0" cy="0" r="1" gradientUnits="userSpaceOnUse" gradientTransform="translate(124.86 84.84) rotate(105.686) scale(69.7579 109.218)">
            <stop stop-color="#01CDAE"/>
            <stop offset="1" stop-color="#01CDAE" stop-opacity="0"/>
        </radialGradient>
    </defs>
</svg>
