<svg width="212" height="212" viewBox="0 0 212 212" fill="none" xmlns="http://www.w3.org/2000/svg">
    <g opacity="0.3" filter="url(#filter0_f_519_1995)">
        <circle cx="106" cy="106" r="46" fill="#2876F8"/>
        <circle cx="106" cy="106" r="46" fill="url(#paint0_radial_519_1995)"/>
    </g>
    <g clip-path="url(#clip0_519_1995)">
        <path d="M85.7919 101.529L127.227 76.1362C127.416 76.0173 127.642 75.9697 127.862 76.0021C128.083 76.0345 128.286 76.1446 128.432 76.3127C128.579 76.4809 128.661 76.6959 128.664 76.9192C128.666 77.1425 128.589 77.3593 128.446 77.5306L111.337 100.428L126.22 108.818L125.774 109.638L126.243 108.818C126.388 108.902 126.508 109.024 126.59 109.17C126.672 109.316 126.713 109.481 126.709 109.649C126.706 109.816 126.657 109.98 126.569 110.122C126.481 110.265 126.356 110.381 126.208 110.459L84.7724 135.852C84.5845 135.964 84.3633 136.007 84.1471 135.973C83.9309 135.939 83.7333 135.831 83.5887 135.667C83.444 135.503 83.3613 135.293 83.3549 135.074C83.3485 134.856 83.4188 134.642 83.5537 134.469L100.662 111.572L85.7684 103.182L86.2254 102.361L85.7567 103.182C85.6119 103.098 85.4922 102.976 85.4102 102.83C85.3282 102.684 85.2869 102.519 85.2905 102.351C85.294 102.184 85.3424 102.02 85.4306 101.878C85.5188 101.735 85.6436 101.619 85.7919 101.541V101.529ZM124.052 80.2961L88.0769 102.326L102.467 110.435C102.591 110.496 102.701 110.583 102.787 110.691C102.874 110.798 102.936 110.924 102.968 111.058C103.001 111.193 103.003 111.333 102.975 111.468C102.947 111.603 102.89 111.731 102.807 111.841L87.948 131.715L123.923 109.662L109.533 101.553C109.409 101.492 109.299 101.405 109.212 101.298C109.126 101.19 109.064 101.064 109.031 100.93C108.999 100.796 108.997 100.656 109.025 100.52C109.052 100.385 109.11 100.257 109.193 100.147L124.052 80.2961Z" fill="#151515"/>
    </g>
    <defs>
        <filter id="filter0_f_519_1995" x="0" y="0" width="212" height="212" filterUnits="userSpaceOnUse" color-interpolation-filters="sRGB">
            <feFlood flood-opacity="0" result="BackgroundImageFix"/>
            <feBlend mode="normal" in="SourceGraphic" in2="BackgroundImageFix" result="shape"/>
            <feGaussianBlur stdDeviation="30" result="effect1_foregroundBlur_519_1995"/>
        </filter>
        <radialGradient id="paint0_radial_519_1995" cx="0" cy="0" r="1" gradientUnits="userSpaceOnUse" gradientTransform="translate(124.86 84.84) rotate(105.686) scale(69.7579 109.218)">
            <stop stop-color="#01CDAE"/>
            <stop offset="1" stop-color="#01CDAE" stop-opacity="0"/>
        </radialGradient>
        <clipPath id="clip0_519_1995">
            <rect width="80" height="80" fill="white" transform="translate(66 66)"/>
        </clipPath>
    </defs>
</svg>
