<svg width="212" height="212" viewBox="0 0 212 212" fill="none" xmlns="http://www.w3.org/2000/svg">
    <g opacity="0.3" filter="url(#filter0_f_519_1977)">
        <circle cx="106" cy="106" r="46" fill="#2876F8"/>
        <circle cx="106" cy="106" r="46" fill="url(#paint0_radial_519_1977)"/>
    </g>
    <path d="M88.167 97.1667H116.25V90.0833C116.25 87.25 115.25 84.8333 113.25 82.8333C111.25 80.8333 108.834 79.8333 106 79.8333C103.167 79.8333 100.75 80.8333 98.7503 82.8333C96.7503 84.8333 95.7503 87.25 95.7503 90.0833H93.917C93.917 86.6944 95.0837 83.8333 97.417 81.5C99.7503 79.1667 102.611 78 106 78C109.389 78 112.25 79.1667 114.584 81.5C116.917 83.8333 118.084 86.6944 118.084 90.0833V97.1667H123.834C125.056 97.1667 126.111 97.5972 127 98.4583C127.889 99.3194 128.334 100.389 128.334 101.667V130.5C128.334 131.722 127.889 132.778 127 133.667C126.111 134.556 125.056 135 123.834 135H88.167C86.9448 135 85.8892 134.556 85.0003 133.667C84.1114 132.778 83.667 131.722 83.667 130.5V101.667C83.667 100.389 84.1114 99.3194 85.0003 98.4583C85.8892 97.5972 86.9448 97.1667 88.167 97.1667ZM88.167 133.167H123.834C124.611 133.167 125.25 132.917 125.75 132.417C126.25 131.917 126.5 131.278 126.5 130.5V101.667C126.5 100.889 126.25 100.25 125.75 99.75C125.25 99.25 124.611 99 123.834 99H88.167C87.3892 99 86.7503 99.25 86.2503 99.75C85.7503 100.25 85.5003 100.889 85.5003 101.667V130.5C85.5003 131.278 85.7503 131.917 86.2503 132.417C86.7503 132.917 87.3892 133.167 88.167 133.167Z" fill="#151515"/>
    <path fill-rule="evenodd" clip-rule="evenodd" d="M109.126 119.208C108.265 120.069 107.223 120.499 106.001 120.499C104.778 120.499 103.737 120.069 102.876 119.208C102.015 118.347 101.584 117.305 101.584 116.083C101.584 114.916 102.015 113.888 102.876 112.999C103.737 112.11 104.778 111.666 106.001 111.666C107.223 111.666 108.265 112.11 109.126 112.999C109.987 113.888 110.417 114.916 110.417 116.083C110.417 117.305 109.987 118.347 109.126 119.208ZM107.828 117.909C107.324 118.412 106.715 118.664 106.001 118.664C105.287 118.664 104.678 118.412 104.174 117.909C103.671 117.405 103.419 116.796 103.419 116.082C103.419 115.4 103.671 114.799 104.174 114.28C104.678 113.76 105.287 113.5 106.001 113.5C106.715 113.5 107.324 113.76 107.828 114.28C108.331 114.799 108.583 115.4 108.583 116.082C108.583 116.796 108.331 117.405 107.828 117.909Z" fill="#151515"/>
    <defs>
        <filter id="filter0_f_519_1977" x="0" y="0" width="212" height="212" filterUnits="userSpaceOnUse" color-interpolation-filters="sRGB">
            <feFlood flood-opacity="0" result="BackgroundImageFix"/>
            <feBlend mode="normal" in="SourceGraphic" in2="BackgroundImageFix" result="shape"/>
            <feGaussianBlur stdDeviation="30" result="effect1_foregroundBlur_519_1977"/>
        </filter>
        <radialGradient id="paint0_radial_519_1977" cx="0" cy="0" r="1" gradientUnits="userSpaceOnUse" gradientTransform="translate(124.86 84.84) rotate(105.686) scale(69.7579 109.218)">
            <stop stop-color="#01CDAE"/>
            <stop offset="1" stop-color="#01CDAE" stop-opacity="0"/>
        </radialGradient>
    </defs>
</svg>
