<svg width="488" height="488" viewBox="0 0 488 488" fill="none" xmlns="http://www.w3.org/2000/svg">
    <path d="M390.837 50.3654C350.048 19.3862 299.171 1 244 1C176.897 1 116.147 28.1987 72.173 72.173C28.1987 116.147 1 176.897 1 244C1 297.891 18.5432 347.685 48.2304 387.983C50.6104 391.213 55.2781 391.536 58.1729 388.757C82.6234 365.286 84.4428 327.525 74.6681 295.073C69.7978 278.903 67.1803 261.757 67.1803 244C67.1803 195.173 86.9717 150.968 118.97 118.97C150.968 86.9729 195.172 67.1823 243.998 67.1823C280.867 67.1823 315.1 78.4663 343.433 97.7692L313.527 127.677M390.837 50.3669C399.658 57.0666 408.008 64.3553 415.827 72.1744C429.273 85.6209 427.61 107.186 414.164 120.632L267.396 267.399C261.408 273.387 253.135 277.091 243.998 277.091C234.86 277.091 226.588 273.387 220.6 267.399C214.612 261.411 210.908 253.138 210.908 244.001C210.908 234.863 214.612 226.591 220.6 220.603L263.685 177.519M313.527 127.677L263.685 177.519M313.527 127.677C293.2 115.501 269.415 108.502 243.996 108.502C206.579 108.502 172.704 123.668 148.183 148.189C123.662 172.71 108.496 206.585 108.496 244.002C108.496 281.42 123.662 315.295 148.183 339.816C172.704 364.336 206.579 379.503 243.996 379.503C281.414 379.503 315.289 364.336 339.81 339.816C364.33 315.295 379.497 281.42 379.497 244.002C379.497 229.022 377.066 214.609 372.577 201.137C370.782 195.751 364.018 194.408 359.959 198.378L325.495 232.09C317.705 239.709 313.891 250.303 311.248 260.874C308.156 273.239 301.744 284.288 293.013 293.02C280.468 305.566 263.137 313.326 243.993 313.326C224.851 313.326 207.52 305.567 194.976 293.023C182.43 280.478 174.671 263.147 174.671 244.004C174.671 224.86 182.431 207.528 194.977 194.983C207.522 182.44 224.851 174.682 243.993 174.682C250.834 174.682 257.443 175.673 263.685 177.519M487 244C487 311.102 459.801 371.852 415.827 415.826C371.853 459.801 311.103 486.999 244 486.999C179.061 486.999 120.072 461.527 76.4795 420.028C74.0729 417.737 74.078 413.922 76.4275 411.572C99.923 388.077 137.863 389.294 167.842 403.623C190.906 414.646 216.731 420.818 243.999 420.818C292.826 420.818 337.031 401.027 369.029 369.028C401.026 337.031 420.817 292.827 420.817 244C420.817 233.811 419.955 223.824 418.3 214.107C413.804 187.7 417.837 159.14 436.691 140.111L446.911 129.796C450.666 126.006 456.998 126.819 459.47 131.547C477.055 165.172 487 203.424 487 244Z" stroke="#F3F4F5" stroke-width="2"/>
</svg>
